<svg xmlns="http://www.w3.org/2000/svg" viewBox="0 0 490.29 490.29"><g fill="#144d75"><path d="M249.457 288.49c30.062-11.866 23.138-60.108 22.148-69.072-1.054-8.784-12.527-52.148-2.168-66.096-30.458 10.711-23.261 57.106-21.771 72.032 1.92 19.246 12.945 45.649 1.791 63.136zm113.613 18.397c30.061-11.866 23.138-60.108 22.148-69.073-1.054-8.784-12.527-52.148-2.168-66.096-30.459 10.711-23.261 57.106-21.772 72.032 1.921 19.246 12.947 45.649 1.792 63.137z"/><path d="M245.145 315.569c-11.893 0-37.636.255-68.081 2.024V214.782c0-28.91-23.522-52.428-52.448-52.428-9.031 0-17.398 2.506-24.834 6.536 9.118 7.183 16.537 16.264 21.66 26.788 1.073-.175 2.059-.639 3.174-.639 10.888 0 19.759 8.857 19.759 19.743v25.912l-39.502 6.342v-17.954c0-28.914-23.508-52.428-52.424-52.428C23.532 176.655 0 200.169 0 229.083v30.65c0 9.024 7.327 16.342 16.35 16.342 9.031 0 16.341-7.317 16.341-16.342v-30.65c0-10.886 8.871-19.74 19.759-19.74 10.881 0 19.742 8.855 19.742 19.74v101.373C31.508 339.355 0 353.535 0 376.175c0 57.687 204.226 60.607 245.145 60.607 40.952 0 245.145-2.92 245.145-60.607s-204.192-60.606-245.145-60.606zM104.873 280.14l39.502-6.347v46.21c-13.101 1.191-26.444 2.69-39.502 4.592V280.14zm140.272 123.584c-134.323 0-198.308-12.335-198.308-27.549 0-15.214 65.147-27.548 198.308-27.548 135.419 0 198.307 12.334 198.307 27.548 0 15.214-69.864 27.549-198.307 27.549zm68.492-215.047c30.061-11.866 23.138-60.108 22.148-69.072-1.054-8.784-12.527-52.148-2.168-66.096-30.458 10.711-23.26 57.106-21.771 72.031 1.92 19.246 12.946 45.65 1.791 63.137z"/></g></svg>