<svg xmlns="http://www.w3.org/2000/svg" width="621.121" height="621.121"><g fill="#144d75"><path d="M197.85 48.183h-.332c-.493-.64-.986-1.304-1.47-1.962.645.649 1.143 1.312 1.802 1.962z"/><path d="M209.692 183.435h129.501v32.909H209.692v-32.909zm0 144.898v-11.956h34.027c11.207-5.85 23.011-13.909 35.715-25.11 3.868-3.418 7.348-6.187 10.913-9.107h-80.655v-31.586h129.501v.304c10.031-4.233 18.924-6.552 27.476-8.367V96.394c0-.502.161-.991.161-1.484v-1.972c.162-45.405 27.154-38.175 27.154-38.175 15.956 1.631 19.578 23.864 20.394 36.535.834 8.068 6.409 8.708 6.409 8.708h12.345c4.769 0 5.783-3.612 5.783-6.418-.171-.981-.171-1.967-.342-3.133v-.157c-1.138-9.376-3.129-23.679-5.765-31.425a44.354 44.354 0 0 0-6.086-10.699c-.493-.64-.986-1.304-1.479-1.962-.645-.659-1.156-1.323-1.811-1.816-1.337-1.318-2.627-2.456-3.935-3.456-1.318-1.157-2.807-2.138-4.286-3.115 0-.166-.151-.166-.151-.166a52.233 52.233 0 0 0-8.732-4.11c-4.437-1.65-8.391-2.309-11.349-2.811-1.83-.166-3.451-.322-5.271-.322h-1.137c-27.153 0-49.358 22.205-49.358 49.358v69.425h-129.52V96.394c0-.502.166-.991.166-1.484v-1.972c0-45.405 27.158-38.175 27.158-38.175 15.795 1.631 19.569 23.864 20.384 36.535.834 8.068 6.428 8.708 6.428 8.708h12.344c4.778 0 5.755-3.612 5.755-6.418-.161-.981-.161-1.967-.322-3.133v-.157c-1.157-9.376-3.138-23.679-5.764-31.425-1.641-4.11-3.773-7.732-6.087-10.699-.484-.64-.986-1.304-1.489-1.962-.645-.659-1.138-1.323-1.792-1.816a38.466 38.466 0 0 0-3.963-3.456c-1.309-1.157-2.797-2.138-4.276-3.115 0-.166-.171-.166-.171-.166a51.71 51.71 0 0 0-8.713-4.11c-4.447-1.65-8.391-2.309-11.358-2.811-1.811-.166-3.441-.322-5.271-.322h-1.132c-27.158 0-49.358 22.205-49.358 49.358V330.67c8.929.043 18.036-.564 27.46-2.337z"/><path d="M579.585 515.598c0 15.738-12.752 28.519-28.51 28.519H70.036c-15.738 0-28.504-12.761-28.504-28.519V113.882H0v443.906c0 18.185 14.733 32.918 32.899 32.918h555.322c18.166 0 32.899-14.733 32.899-32.918V113.882h-41.536v401.716h.001z"/><path d="M543.681 315.458c-5.329-5.096-12.335-10.292-19.598-16-65.808-45.736-129.653-29.292-129.653-29.292-25.172 5.11-49.358 8.234-97.74 50.847-48.202 42.769-84.239 40.646-120.286 38.673-36.028-2.152-72.397-33.089-80.115-40.664-4.438-4.418-10.865-4.584-16.236-3.005-7.969 3.281-9.879 14.051-10.259 21.181V489.81c0 13.33 14.814 24.366 32.899 24.366h415.634c18.261 0 32.908-11.036 32.908-24.366V339.094c-.378-7.225-1.989-17.502-7.554-23.636z"/></g></svg>