<svg xmlns="http://www.w3.org/2000/svg" width="297mm" height="210mm" viewBox="0 0 297 210"><g fill="#133a5e"><g font-weight="400" font-family="Source Sans Pro" letter-spacing="0" word-spacing="0"><path d="M131.318 89.615v-8.332h2.477q.635 0 1.155.115.534.114.902.355.38.242.584.635.216.381.216.927 0 .623-.317 1.13-.305.496-.902.686v.051q.762.14 1.232.635.47.496.47 1.36 0 .609-.229 1.066-.229.457-.648.762-.419.305-1.003.457-.584.153-1.283.153zm1.054-4.788h1.232q1.067 0 1.537-.369.47-.368.47-1.003 0-.724-.496-1.029-.482-.304-1.46-.304h-1.283zm0 3.95h1.448q1.08 0 1.676-.394.597-.407.597-1.245 0-.775-.584-1.13-.584-.369-1.69-.369h-1.447zm8.813.99q-.623 0-1.169-.216-.533-.229-.94-.635-.393-.419-.622-1.016-.229-.597-.229-1.359t.229-1.359q.241-.61.622-1.028.394-.42.89-.635.495-.229 1.028-.229.584 0 1.041.203.47.203.775.584.318.381.483.915.165.533.165 1.194 0 .165-.013.33 0 .152-.025.266h-4.166q.064.991.61 1.575.559.572 1.448.572.444 0 .812-.127.381-.14.724-.356l.369.686q-.407.254-.902.444-.495.191-1.13.191zm-1.944-3.734h3.302q0-.94-.406-1.422-.394-.496-1.118-.496-.33 0-.635.127-.292.127-.533.381-.241.242-.406.597-.153.356-.204.813zm8.244 3.734q-.622 0-1.169-.216-.533-.229-.94-.635-.393-.419-.622-1.016-.228-.597-.228-1.359t.228-1.359q.242-.61.623-1.028.393-.42.889-.635.495-.229 1.028-.229.585 0 1.042.203.47.203.775.584.317.381.482.915.165.533.165 1.194 0 .165-.012.33 0 .152-.026.266h-4.165q.063.991.61 1.575.558.572 1.447.572.444 0 .813-.127.38-.14.724-.356l.368.686q-.406.254-.902.444-.495.191-1.13.191zm-1.943-3.734h3.302q0-.94-.407-1.422-.393-.496-1.117-.496-.33 0-.635.127-.292.127-.534.381-.24.242-.406.597-.152.356-.203.813zm5.741 3.582v-6.173h.864l.089.89h.038q.406-.445.876-.737.483-.305 1.042-.305.71 0 1.105.317.406.305.596.864.483-.533.966-.85.495-.331 1.066-.331.953 0 1.41.61.47.61.47 1.803v3.912h-1.041v-3.772q0-.877-.28-1.258-.28-.393-.863-.393-.699 0-1.55.952v4.47h-1.041v-3.771q0-.877-.28-1.258-.279-.393-.876-.393-.698 0-1.55.952v4.47zm13.019.152q-.622 0-1.168-.216-.533-.229-.94-.635-.393-.419-.622-1.016-.229-.597-.229-1.359t.229-1.359q.241-.61.622-1.028.394-.42.89-.635.495-.229 1.028-.229.584 0 1.041.203.47.203.775.584.318.381.483.915.165.533.165 1.194 0 .165-.013.33 0 .152-.025.266h-4.166q.064.991.61 1.575.558.572 1.447.572.445 0 .813-.127.381-.14.724-.356l.368.686q-.406.254-.901.444-.496.191-1.13.191zm-1.943-3.734h3.302q0-.94-.406-1.422-.394-.496-1.118-.496-.33 0-.635.127-.292.127-.533.381-.241.242-.406.597-.153.356-.204.813zm5.742 3.582v-6.173h.864l.088 1.118h.039q.317-.584.762-.927.457-.343.99-.343.368 0 .66.127l-.203.914q-.152-.05-.279-.076-.127-.025-.318-.025-.393 0-.825.317-.42.318-.737 1.105v3.963zm7.047 0v-8.332h2.375q.698 0 1.27.127.584.127.99.42.407.279.635.749.229.47.229 1.155 0 .66-.229 1.143-.216.483-.622.8-.406.318-.978.483-.559.153-1.244.153h-1.372v3.302zm1.054-4.166h1.245q1.092 0 1.612-.406.534-.42.534-1.309 0-.901-.559-1.244-.546-.356-1.638-.356h-1.194zm8.14 4.318q-.571 0-1.092-.216-.508-.216-.902-.622-.393-.42-.635-1.016-.228-.61-.228-1.372 0-.775.228-1.371.242-.61.635-1.03.394-.418.902-.634.52-.216 1.092-.216.572 0 1.08.216.52.216.914.635.394.419.622 1.029.242.596.242 1.371 0 .762-.242 1.372-.228.597-.622 1.016-.394.406-.914.622-.508.216-1.08.216zm0-.864q.394 0 .724-.165.33-.178.559-.482.241-.318.368-.75.127-.431.127-.965 0-.533-.127-.965-.127-.445-.368-.762-.229-.318-.559-.483-.33-.177-.724-.177-.393 0-.724.177-.33.165-.571.483-.229.317-.356.762-.127.432-.127.965 0 .534.127.965.127.432.356.75.241.304.571.482.33.165.724.165zm6.896.864q-.572 0-1.092-.216-.508-.216-.902-.622-.394-.42-.635-1.016-.229-.61-.229-1.372 0-.775.23-1.371.24-.61.634-1.03.394-.418.902-.634.52-.216 1.092-.216.571 0 1.08.216.52.216.914.635.394.419.622 1.029.241.596.241 1.371 0 .762-.24 1.372-.23.597-.623 1.016-.394.406-.915.622-.508.216-1.079.216zm0-.864q.394 0 .724-.165.33-.178.559-.482.241-.318.368-.75.127-.431.127-.965 0-.533-.127-.965-.127-.445-.368-.762-.229-.318-.56-.483-.33-.177-.723-.177-.394 0-.724.177-.33.165-.571.483-.229.317-.356.762-.127.432-.127.965 0 .534.127.965.127.432.356.75.24.304.571.482.33.165.724.165zm5.6.864q-.597 0-.85-.356-.255-.355-.255-1.041v-7.798h1.042v7.874q0 .254.089.356.089.101.203.101h.089q.05 0 .14-.025l.14.787q-.102.051-.242.077-.14.025-.356.025zm3.758 0q-.66 0-1.258-.241-.596-.242-1.041-.61l.52-.698q.407.33.826.533.432.203.99.203.61 0 .915-.28.305-.279.305-.685 0-.241-.127-.42-.127-.177-.33-.304-.19-.14-.445-.241l-.508-.203q-.33-.115-.66-.254-.33-.153-.597-.356-.254-.216-.42-.495-.164-.28-.164-.673 0-.369.14-.686.152-.33.419-.559.279-.241.673-.368.393-.14.889-.14.584 0 1.067.203.495.203.85.495l-.495.66q-.317-.24-.66-.393-.343-.152-.75-.152-.584 0-.863.266-.267.267-.267.623 0 .216.114.38.115.153.305.28.19.114.432.216.254.089.52.19.33.128.661.267.343.14.61.356.266.203.432.508.177.305.177.736 0 .381-.152.712-.14.33-.432.584-.28.254-.711.394-.42.152-.965.152zm6.351-.152v-8.332h1.055v7.43h3.644v.902zm7.77.152q-.495 0-.838-.152-.33-.153-.546-.42-.203-.266-.292-.647-.089-.381-.089-.838v-3.417h-.914v-.787l.965-.064.127-1.727h.876v1.727h1.664v.851h-1.664v3.43q0 .57.203.888.216.305.75.305.165 0 .355-.05.19-.052.343-.115l.203.787q-.254.09-.558.153-.293.076-.585.076zm4.283 0q-1.168 0-1.867-.838-.686-.838-.686-2.388 0-.75.216-1.346.229-.61.597-1.029.368-.419.851-.647.483-.229 1.016-.229t.927.19q.394.191.8.521l-.05-1.054v-2.375h1.053v9.043h-.863l-.089-.724h-.038q-.368.355-.851.622-.47.254-1.016.254zm.229-.876q.431 0 .812-.204.381-.215.762-.647v-3.226q-.393-.356-.762-.495-.355-.153-.736-.153-.369 0-.699.178-.317.165-.558.483-.242.304-.381.736-.14.432-.14.965 0 1.118.444 1.74.445.623 1.258.623z" aria-label="Beemer Pools Ltd" font-size="12.7"/><path d="M131.121 97.068v-5.554h1.603q.472 0 .857.085.395.085.67.28.273.186.428.499.154.313.154.77 0 .44-.154.762-.146.322-.42.534-.275.211-.66.321-.378.102-.84.102h-.926v2.201zm.712-2.777h.84q.737 0 1.088-.27.36-.28.36-.873 0-.6-.377-.83-.368-.237-1.105-.237h-.806zm5.494 2.879q-.386 0-.737-.144-.343-.144-.609-.415-.265-.28-.428-.677-.155-.407-.155-.915 0-.516.155-.914.163-.406.428-.686.266-.28.609-.423.351-.144.737-.144t.729.144q.351.144.617.423.266.28.42.686.163.398.163.914 0 .508-.163.915-.154.398-.42.677-.266.271-.617.415-.343.144-.729.144zm0-.576q.266 0 .489-.11.223-.118.377-.322.163-.211.248-.5.086-.287.086-.643 0-.355-.086-.643-.085-.296-.248-.508-.154-.212-.377-.322-.223-.118-.489-.118t-.488.118q-.223.11-.386.322-.154.212-.24.508-.086.288-.086.643 0 .356.086.644.086.288.24.5.163.203.386.321.222.11.488.11zm4.654.576q-.385 0-.737-.144-.343-.144-.608-.415-.266-.28-.429-.677-.154-.407-.154-.915 0-.516.154-.914.163-.406.429-.686.265-.28.608-.423.352-.144.737-.144.386 0 .729.144.351.144.617.423.266.28.42.686.163.398.163.914 0 .508-.163.915-.154.398-.42.677-.266.271-.617.415-.343.144-.729.144zm0-.576q.266 0 .489-.11.223-.118.377-.322.163-.211.249-.5.085-.287.085-.643 0-.355-.085-.643-.086-.296-.249-.508-.154-.212-.377-.322-.223-.118-.489-.118-.265 0-.488.118-.223.11-.386.322-.154.212-.24.508-.086.288-.086.643 0 .356.086.644.086.288.24.5.163.203.386.321.223.11.488.11zm3.78.576q-.403 0-.574-.237-.171-.237-.171-.694V91.04h.703v5.25q0 .169.06.236.06.068.137.068h.06q.034 0 .094-.017l.094.525q-.068.034-.163.051-.094.017-.24.017zm4.441 0q-.385 0-.703-.11-.308-.119-.54-.322-.222-.203-.351-.482-.12-.288-.12-.627 0-.28.086-.508.094-.229.248-.423.155-.195.352-.356.205-.17.42-.313-.172-.347-.275-.67-.094-.33-.094-.634 0-.28.094-.517.095-.237.266-.414.172-.178.412-.28.24-.101.531-.101.523 0 .814.304.292.305.292.796 0 .271-.112.5-.111.228-.291.432-.18.194-.412.372-.222.17-.454.339.274.432.643.83.377.397.78.728.257-.347.454-.754.206-.406.335-.889h.66q-.172.55-.412 1.05t-.574.94q.291.195.557.33.266.135.497.203l-.188.576q-.3-.085-.626-.237-.326-.161-.669-.398-.325.288-.728.466-.395.169-.892.169zm-.368-4.454q0 .23.068.475.077.245.197.5.189-.128.36-.255.18-.135.309-.27.137-.145.214-.297.077-.161.077-.347 0-.246-.128-.424-.12-.186-.403-.186-.317 0-.506.229-.188.228-.188.575zm.445 3.895q.292 0 .558-.118.265-.119.514-.33-.412-.356-.797-.771-.377-.423-.677-.88-.3.236-.506.499-.197.254-.197.576 0 .228.085.423.086.186.232.322.154.135.351.211.206.068.437.068zm7.197.559q-.591 0-1.097-.22t-.874-.601l.428-.491q.3.313.703.508.412.186.849.186.557 0 .866-.246.308-.254.308-.66 0-.212-.077-.356-.068-.152-.197-.254-.12-.11-.291-.194-.172-.085-.369-.178l-.806-.347q-.197-.085-.403-.204-.205-.118-.368-.287-.163-.17-.266-.398-.103-.237-.103-.542 0-.313.129-.584.137-.271.368-.466.24-.203.557-.313.326-.11.712-.11.506 0 .934.194.429.187.729.491l-.386.458q-.257-.246-.574-.381-.309-.144-.703-.144-.471 0-.763.22-.283.211-.283.592 0 .204.077.348.086.135.223.245.137.102.3.186.163.077.335.144l.797.339q.24.102.454.237.214.127.369.305.154.17.24.406.094.229.094.534 0 .33-.137.618-.129.288-.377.508-.249.211-.6.338-.352.119-.798.119zm2.942 1.634v-5.85h.583l.06.474h.026q.283-.237.617-.407.343-.17.712-.17.402 0 .711.153.309.144.514.424.206.27.309.66.111.381.111.864 0 .525-.145.94-.146.406-.395.694-.248.288-.574.44-.326.144-.686.144-.291 0-.583-.127-.283-.127-.574-.347l.017.72v1.388zm1.723-2.218q.257 0 .472-.11.223-.119.377-.322.163-.212.248-.517.095-.304.095-.685 0-.339-.06-.618-.06-.28-.197-.475-.129-.203-.343-.313-.206-.11-.497-.11-.266 0-.54.144-.266.144-.575.415v2.159q.283.237.549.339.266.093.471.093zm3.875.584q-.523 0-.874-.305-.343-.305-.343-.863 0-.678.608-1.033.609-.364 1.946-.508 0-.195-.043-.381-.034-.187-.128-.33-.095-.145-.266-.23-.163-.092-.42-.092-.36 0-.677.135-.317.136-.566.305l-.274-.483q.291-.186.711-.355.42-.178.926-.178.763 0 1.106.466.343.457.343 1.227v2.523h-.583l-.06-.49h-.026q-.3.245-.643.423-.343.169-.737.169zm.206-.559q.3 0 .565-.135.266-.144.566-.415v-1.143q-.523.068-.883.16-.351.094-.574.22-.214.128-.317.297-.095.161-.095.356 0 .355.215.508.214.152.523.152zm6.49.559q-.592 0-1.098-.22-.505-.22-.874-.601l.429-.491q.3.313.703.508.411.186.848.186.557 0 .866-.246.309-.254.309-.66 0-.212-.078-.356-.068-.152-.197-.254-.12-.11-.291-.194-.172-.085-.369-.178l-.806-.347q-.197-.085-.402-.204-.206-.118-.369-.287-.163-.17-.266-.398-.103-.237-.103-.542 0-.313.129-.584.137-.271.369-.466.24-.203.557-.313.325-.11.711-.11.506 0 .935.194.428.187.728.491l-.386.458q-.257-.246-.574-.381-.308-.144-.703-.144-.471 0-.763.22-.283.211-.283.592 0 .204.078.348.085.135.222.245.138.102.3.186.163.077.335.144l.797.339q.24.102.454.237.215.127.369.305.154.17.24.406.094.229.094.534 0 .33-.137.618-.129.288-.377.508-.249.211-.6.338-.352.119-.797.119zm4.63 0q-.42 0-.788-.144-.36-.152-.635-.423-.265-.28-.42-.678-.154-.398-.154-.906t.154-.906q.163-.406.42-.685.266-.28.6-.424.335-.152.695-.152.394 0 .703.135.317.136.522.39.215.254.326.61.112.355.112.795 0 .11-.009.22 0 .102-.017.178h-2.812q.043.66.412 1.05.377.381.977.381.3 0 .549-.085.257-.093.488-.237l.249.458q-.275.169-.609.296-.334.127-.763.127zm-1.311-2.49h2.228q0-.626-.274-.948-.266-.33-.754-.33-.223 0-.429.085-.197.085-.36.254-.163.16-.274.398-.103.237-.137.542zm3.875 2.388v-4.114h.583l.06.745h.026q.214-.39.514-.618.309-.23.669-.23.248 0 .445.086l-.137.61q-.103-.035-.188-.052-.086-.017-.215-.017-.265 0-.557.212-.283.212-.497.737v2.641zm4.098 0l-1.5-4.114h.728l.789 2.336.189.61q.102.305.197.601h.034l.189-.601.188-.61.789-2.336h.694l-1.474 4.114zm3.101 0v-4.114h.703v4.114zm.36-4.961q-.206 0-.351-.127-.137-.127-.137-.322 0-.203.137-.322.145-.127.351-.127t.343.127q.146.119.146.322 0 .195-.146.322-.137.127-.343.127zm3.395 5.063q-.411 0-.771-.144-.36-.144-.626-.415-.257-.28-.411-.677-.146-.407-.146-.915 0-.516.163-.914.163-.406.437-.686t.634-.423q.369-.144.772-.144.411 0 .703.144.291.144.514.339l-.36.457q-.18-.161-.386-.263-.197-.101-.445-.101-.283 0-.523.118-.24.11-.412.322-.171.212-.274.508-.094.288-.094.643 0 .356.094.644.094.288.257.5.172.203.412.321.24.11.522.11.292 0 .532-.118.248-.127.446-.297l.308.466q-.283.246-.626.39-.342.135-.72.135zm3.76 0q-.42 0-.789-.144-.36-.152-.634-.423-.266-.28-.42-.678-.154-.398-.154-.906t.154-.906q.163-.406.42-.685.266-.28.6-.424.334-.152.694-.152.395 0 .703.135.317.136.523.39.215.254.326.61.111.355.111.795 0 .11-.008.22 0 .102-.017.178h-2.812q.043.66.412 1.05.377.381.977.381.3 0 .548-.085.257-.093.489-.237l.249.458q-.275.169-.61.296-.333.127-.762.127zm-1.312-2.49h2.23q0-.626-.275-.948-.266-.33-.754-.33-.223 0-.429.085-.197.085-.36.254-.163.16-.274.398-.103.237-.138.542zm6.869 2.49q-.385 0-.703-.11-.308-.119-.54-.322-.223-.203-.351-.482-.12-.288-.12-.627 0-.28.086-.508.094-.229.248-.423.155-.195.352-.356.205-.17.42-.313-.172-.347-.275-.67-.094-.33-.094-.634 0-.28.094-.517.095-.237.266-.414.172-.178.412-.28.24-.101.531-.101.523 0 .814.304.292.305.292.796 0 .271-.112.5-.111.228-.291.432-.18.194-.412.372-.222.17-.454.339.274.432.643.83.377.397.78.728.257-.347.454-.754.206-.406.335-.889h.66q-.172.55-.412 1.05t-.574.94q.291.195.557.33.266.135.497.203l-.188.576q-.3-.085-.626-.237-.326-.161-.669-.398-.325.288-.728.466-.395.169-.892.169zm-.368-4.454q0 .23.068.475.077.245.197.5.189-.128.36-.255.18-.135.309-.27.137-.145.214-.297.077-.161.077-.347 0-.246-.128-.424-.12-.186-.403-.186-.317 0-.506.229-.188.228-.188.575zm.445 3.895q.292 0 .558-.118.265-.119.514-.33-.412-.356-.797-.771-.377-.423-.677-.88-.3.236-.506.499-.197.254-.197.576 0 .228.085.423.086.186.232.322.154.135.351.211.206.068.437.068zm5.637.457v-5.554h.857l1.08 2.964q.103.287.198.584l.205.575h.035q.103-.287.188-.575.095-.297.197-.584l1.063-2.964h.866v5.554h-.668v-3.056q0-.373.034-.821.034-.45.06-.822h-.034l-.446 1.262-1.063 2.879h-.472l-1.063-2.88-.445-1.26h-.035q.026.372.052.82.034.45.034.822v3.056zm7.119.102q-.522 0-.874-.305-.342-.305-.342-.863 0-.678.608-1.033.609-.364 1.946-.508 0-.195-.043-.381-.034-.187-.128-.33-.095-.145-.266-.23-.163-.092-.42-.092-.36 0-.677.135-.318.136-.566.305l-.274-.483q.291-.186.711-.355.42-.178.926-.178.763 0 1.106.466.342.457.342 1.227v2.523h-.582l-.06-.49h-.026q-.3.245-.643.423-.343.169-.737.169zm.207-.559q.3 0 .565-.135.266-.144.566-.415v-1.143q-.523.068-.883.16-.351.094-.574.22-.215.128-.317.297-.095.161-.095.356 0 .355.215.508.214.152.523.152zm3.153.457v-4.114h.703v4.114zm.36-4.961q-.206 0-.351-.127-.137-.127-.137-.322 0-.203.137-.322.145-.127.351-.127t.343.127q.146.119.146.322 0 .195-.146.322-.137.127-.343.127zm1.75 4.961v-4.114h.583l.06.592h.025q.3-.296.626-.49.334-.204.772-.204.66 0 .96.406.308.407.308 1.203v2.607h-.703v-2.514q0-.584-.188-.838-.189-.263-.6-.263-.326 0-.575.16-.248.162-.565.475v2.98zm5.999.102q-.334 0-.566-.102-.223-.101-.368-.28-.138-.177-.198-.43-.06-.255-.06-.56v-2.277h-.617v-.525l.652-.042.085-1.152H224v1.152h1.123v.567H224v2.286q0 .38.137.592.146.204.506.204.111 0 .24-.034.128-.034.231-.076l.137.525q-.171.059-.377.101-.197.05-.394.05zm3.156 0q-.42 0-.788-.144-.36-.152-.635-.423-.265-.28-.42-.678-.154-.398-.154-.906t.154-.906q.163-.406.42-.685.266-.28.6-.424.335-.152.695-.152.394 0 .703.135.317.136.523.39.214.254.325.61.112.355.112.795 0 .11-.009.22 0 .102-.017.178h-2.812q.043.66.412 1.05.377.381.977.381.3 0 .549-.085.257-.093.488-.237l.249.458q-.274.169-.609.296-.334.127-.763.127zm-1.311-2.49h2.228q0-.626-.274-.948-.266-.33-.754-.33-.223 0-.429.085-.197.085-.36.254-.163.16-.274.398-.103.237-.137.542zm3.876 2.388v-4.114h.582l.06.592h.026q.3-.296.625-.49.335-.204.772-.204.66 0 .96.406.309.407.309 1.203v2.607h-.703v-2.514q0-.584-.189-.838-.188-.263-.6-.263-.326 0-.574.16-.249.162-.566.475v2.98zm5.647.102q-.523 0-.874-.305-.343-.305-.343-.863 0-.678.608-1.033.609-.364 1.946-.508 0-.195-.043-.381-.034-.187-.128-.33-.095-.145-.266-.23-.163-.092-.42-.092-.36 0-.677.135-.317.136-.566.305l-.274-.483q.291-.186.711-.355.42-.178.926-.178.763 0 1.106.466.343.457.343 1.227v2.523h-.583l-.06-.49h-.026q-.3.245-.643.423-.343.169-.737.169zm.206-.559q.3 0 .565-.135.266-.144.566-.415v-1.143q-.523.068-.883.16-.351.094-.574.22-.214.128-.317.297-.095.161-.095.356 0 .355.215.508.214.152.523.152zm3.153.457v-4.114h.583l.06.592h.026q.3-.296.626-.49.334-.204.771-.204.66 0 .96.406.309.407.309 1.203v2.607h-.703v-2.514q0-.584-.189-.838-.188-.263-.6-.263-.325 0-.574.16-.249.162-.566.475v2.98zm6.334.102q-.412 0-.772-.144-.36-.144-.625-.415-.257-.28-.412-.677-.145-.407-.145-.915 0-.516.162-.914.163-.406.438-.686.274-.28.634-.423.368-.144.771-.144.412 0 .703.144.292.144.515.339l-.36.457q-.18-.161-.386-.263-.197-.101-.446-.101-.283 0-.523.118-.24.11-.411.322-.172.212-.275.508-.094.288-.094.643 0 .356.094.644.095.288.258.5.171.203.411.321.24.11.523.11.291 0 .531-.118.249-.127.446-.297l.309.466q-.283.246-.626.39-.343.135-.72.135zm3.76 0q-.42 0-.79-.144-.36-.152-.633-.423-.266-.28-.42-.678-.155-.398-.155-.906t.155-.906q.162-.406.42-.685.265-.28.6-.424.334-.152.694-.152.394 0 .703.135.317.136.523.39.214.254.325.61.112.355.112.795 0 .11-.009.22 0 .102-.017.178h-2.811q.042.66.411 1.05.377.381.977.381.3 0 .549-.085.257-.093.488-.237l.249.458q-.274.169-.609.296-.334.127-.763.127zm-1.312-2.49h2.229q0-.626-.275-.948-.265-.33-.754-.33-.223 0-.429.085-.197.085-.36.254-.162.16-.274.398-.103.237-.137.542z" aria-label="Pool &amp; Spa Service &amp; Maintenance" font-size="32"/></g><path d="M108.113 76.225a12.926 12.926 0 0 0-6.923 1.134 12.755 12.755 0 0 0-4.817 3.908 12.312 12.312 0 0 0-2.386 6.052 12.32 12.32 0 0 0 .023 2.742c.236-.67.526-1.344.864-2.012a19.285 19.285 0 0 1 2.267-3.477 17.424 17.424 0 0 1 3.23-3.077 13.22 13.22 0 0 1 2.845-1.587c1.49-.595 3.073-.865 4.691-.688 2.01.222 3.92 1.214 5.604 2.623a18.07 18.07 0 0 1 2.493 2.571 21.26 21.26 0 0 1 1.937 2.878 18.828 18.828 0 0 1 1.478 3.32c.03-.165.057-.33.08-.495.108-.984.096-1.955-.023-2.898a12.384 12.384 0 0 0-1.504-4.533 12.82 12.82 0 0 0-4.408-4.588 13.003 13.003 0 0 0-5.45-1.873z" stroke="#000" stroke-width=".1" stroke-linejoin="round"/><g stroke="#000" stroke-width=".265"><path d="M95.27 93.075c.708-1.31 1.634-2.895 2.675-4.179 1.04-1.284 2.195-2.268 3.296-2.85 1.1-.58 2.148-.759 3.21-.761 1.062-.002 2.139.17 3.152.775 1.012.605 2.017 1.703 2.88 2.592.863.888 1.655 1.639 2.335 2.334.68.694 1.266 1.351 2.021 1.906.755.554 1.68 1.007 2.902 1.43 1.221.423 2.78.827 4.077.981a9.968 9.968 0 0 0 3.395-.158c1.043-.222 2.075-.576 2.17-.496.096.08-.745.595-1.814 1.04a11.187 11.187 0 0 1-4.024.88c-1.66.058-3.752-.212-5.647-.875-1.894-.663-3.714-1.778-5.164-2.714-1.45-.936-2.585-1.727-3.803-2.237-1.217-.51-2.608-.756-3.76-.7-1.154.057-2.084.399-3.031.792-.947.394-1.87.822-3.007 1.856-1.137 1.033-2.474 2.666-3.098 3.394-.624.728-.536.552-.247-.055.288-.608.775-1.644 1.483-2.955z"/><path d="M94.117 96.99c.793-.794 1.587-1.588 2.47-2.382.881-.793 1.851-1.587 2.777-2.16.926-.574 1.809-.927 2.778-1.103a8.125 8.125 0 0 1 2.955 0c.9.172 1.73.62 2.558 1.014.923.44 1.796.98 2.676 1.501.716.425 1.388.923 2.117 1.323.448.247.915.46 1.385.662.478.206.569.296 1.457.562.889.266 1.92.628 1.92.628s-1.35-.004-2.017-.099c-.62-.088-1.226-.257-1.826-.433-.57-.168-1.12-.394-1.68-.592-.646-.229-1.282-.486-1.936-.69a42.516 42.516 0 0 0-3.11-.833c-.97-.22-1.853-.397-2.719-.4-.866-.003-1.78.18-2.703.4-.924.22-1.899.485-2.8.825-.902.34-1.833.806-2.538 1.115-.706.309-1.235.485-1.764.662zm4.763-10.055c.793-.617 1.587-1.235 2.557-1.675.97-.441 2.117-.706 3.175-.706 1.058 0 2.028.265 2.778.618.75.352 1.279.793 1.764 1.234.485.441.895.852 1.32 1.276l1.197 1.197 1.496 1.496c-.53-.97-1.059-1.94-1.676-2.955-.617-1.014-1.323-2.072-2.16-2.954a11.322 11.322 0 0 0-2.602-2.028c-.794-.441-1.411-.618-2.117-.662-.706-.044-1.5.044-2.205.309a4.26 4.26 0 0 0-1.764 1.234c-.44.53-.705 1.146-.97 1.764l-.794 1.852z"/></g></g></svg>