<svg xmlns="http://www.w3.org/2000/svg" viewBox="0 0 157.4 22.708" height="85.826" width="594.896"><g fill="#133a5e"><path d="M37.884 13.519V5.188h2.476q.635 0 1.156.114.533.114.902.355.38.242.584.635.216.381.216.928 0 .622-.318 1.13-.305.495-.902.686v.05q.762.14 1.232.635.47.496.47 1.36 0 .609-.228 1.066-.229.457-.648.762-.42.305-1.003.457-.585.153-1.283.153zm1.054-4.788h1.232q1.066 0 1.536-.368.47-.369.47-1.004 0-.724-.495-1.028-.483-.305-1.46-.305h-1.283zm0 3.95h1.448q1.08 0 1.676-.394.597-.407.597-1.245 0-.774-.584-1.13-.585-.368-1.69-.368h-1.447zm8.812.99q-.622 0-1.168-.216-.534-.228-.94-.635-.394-.419-.622-1.016-.229-.597-.229-1.359t.229-1.359q.241-.61.622-1.028.394-.42.889-.635.495-.229 1.029-.229.584 0 1.041.203.47.204.775.585.317.38.482.914.165.533.165 1.194 0 .165-.012.33 0 .152-.026.267H45.82q.063.99.61 1.574.558.572 1.447.572.445 0 .813-.127.381-.14.724-.356l.368.686q-.406.254-.902.445-.495.19-1.13.19zm-1.943-3.734h3.302q0-.94-.406-1.422-.394-.495-1.118-.495-.33 0-.635.127-.292.127-.533.38-.242.242-.407.598-.152.355-.203.812zm8.243 3.734q-.622 0-1.168-.216-.533-.228-.94-.635-.393-.419-.622-1.016-.229-.597-.229-1.359t.23-1.359q.24-.61.621-1.028.394-.42.89-.635.495-.229 1.028-.229.584 0 1.041.203.47.204.775.585.318.38.483.914.165.533.165 1.194 0 .165-.013.33 0 .152-.025.267H52.12q.064.99.61 1.574.559.572 1.448.572.444 0 .812-.127.381-.14.724-.356l.369.686q-.407.254-.902.445-.495.19-1.13.19zm-1.943-3.734h3.302q0-.94-.406-1.422-.394-.495-1.118-.495-.33 0-.635.127-.292.127-.533.38-.241.242-.406.598-.153.355-.204.812zm5.743 3.582V7.347h.863l.089.889h.038q.406-.445.876-.737.483-.305 1.041-.305.712 0 1.105.318.407.304.597.863.483-.533.965-.85.496-.33 1.067-.33.953 0 1.41.609.47.61.47 1.803v3.912h-1.042V9.747q0-.876-.279-1.257-.28-.394-.864-.394-.698 0-1.549.952v4.47h-1.041v-3.77q0-.876-.28-1.257-.28-.394-.876-.394-.699 0-1.55.952v4.47zm13.018.152q-.622 0-1.168-.216-.534-.228-.94-.635-.394-.419-.622-1.016-.229-.597-.229-1.359t.229-1.359q.241-.61.622-1.028.394-.42.889-.635.495-.229 1.029-.229.584 0 1.041.203.47.204.775.585.317.38.482.914.165.533.165 1.194 0 .165-.012.33 0 .152-.026.267h-4.165q.063.99.61 1.574.558.572 1.447.572.445 0 .813-.127.381-.14.724-.356l.368.686q-.406.254-.902.445-.495.19-1.13.19zm-1.943-3.734h3.302q0-.94-.406-1.422-.394-.495-1.118-.495-.33 0-.635.127-.292.127-.533.38-.242.242-.407.598-.152.355-.203.812zm5.742 3.582V7.347h.863l.09 1.117h.037q.318-.584.762-.927.457-.343.99-.343.37 0 .661.127l-.203.915q-.152-.051-.28-.077-.126-.025-.317-.025-.394 0-.825.317-.42.318-.737 1.105v3.963zm7.047 0V5.188h2.374q.699 0 1.27.127.585.127.991.419.406.279.635.749.229.47.229 1.156 0 .66-.229 1.143-.216.482-.622.8-.407.317-.978.482-.559.153-1.245.153h-1.371v3.302zm1.054-4.166h1.244q1.092 0 1.613-.406.534-.42.534-1.308 0-.902-.56-1.245-.545-.356-1.638-.356h-1.193zm8.14 4.318q-.572 0-1.092-.216-.508-.216-.902-.622-.394-.42-.635-1.016-.229-.61-.229-1.372 0-.774.23-1.371.24-.61.634-1.029.394-.42.902-.635.52-.216 1.092-.216.571 0 1.08.216.52.216.914.635.394.42.622 1.029.241.597.241 1.371 0 .762-.24 1.372-.23.597-.623 1.016-.394.406-.915.622-.508.216-1.079.216zm0-.863q.394 0 .724-.166.33-.177.559-.482.241-.318.368-.75.127-.431.127-.965 0-.533-.127-.965-.127-.444-.368-.762-.229-.317-.56-.482-.33-.178-.723-.178-.394 0-.724.178-.33.165-.571.482-.229.318-.356.762-.127.432-.127.965 0 .534.127.966.127.431.356.749.24.305.571.482.33.166.724.166zm6.896.863q-.572 0-1.093-.216-.508-.216-.901-.622-.394-.42-.635-1.016-.229-.61-.229-1.372 0-.774.229-1.371.241-.61.635-1.029.393-.42.901-.635.521-.216 1.093-.216.571 0 1.08.216.52.216.914.635.393.42.622 1.029.241.597.241 1.371 0 .762-.241 1.372-.229.597-.622 1.016-.394.406-.915.622-.508.216-1.08.216zm0-.863q.393 0 .724-.166.33-.177.558-.482.242-.318.369-.75.127-.431.127-.965 0-.533-.127-.965-.127-.444-.369-.762-.228-.317-.558-.482-.33-.178-.724-.178-.394 0-.724.178-.33.165-.572.482-.228.318-.355.762-.127.432-.127.965 0 .534.127.966.127.431.355.749.242.305.572.482.33.166.724.166zm5.6.863q-.597 0-.85-.355-.255-.356-.255-1.042V4.476h1.041v7.874q0 .254.09.356.088.102.203.102h.088q.051 0 .14-.026l.14.788q-.102.05-.241.076-.14.025-.356.025zm3.757 0q-.66 0-1.257-.241-.597-.241-1.041-.61l.52-.698q.407.33.826.533.432.203.99.203.61 0 .915-.28.305-.278.305-.685 0-.241-.127-.419t-.33-.305q-.191-.14-.445-.241l-.508-.203q-.33-.115-.66-.254-.33-.153-.597-.356-.254-.216-.42-.495-.165-.28-.165-.673 0-.369.14-.686.153-.33.42-.559.279-.241.672-.368.394-.14.89-.14.584 0 1.066.203.495.204.851.496l-.495.66q-.318-.241-.66-.394-.344-.152-.75-.152-.584 0-.864.267-.266.266-.266.622 0 .216.114.38.114.153.305.28.19.115.432.216.254.09.52.19.33.128.66.267.344.14.61.356.267.203.432.508.178.305.178.737 0 .38-.152.71-.14.331-.432.585-.28.254-.711.394-.42.152-.966.152zm6.352-.152V5.188h1.054v7.429h3.645v.902zm7.77.152q-.495 0-.838-.152-.33-.153-.546-.42-.204-.266-.292-.647-.09-.381-.09-.838V8.197h-.914V7.41l.965-.063.127-1.728h.877v1.728h1.663v.85h-1.663v3.43q0 .57.203.888.216.305.75.305.164 0 .355-.05.19-.051.343-.115l.203.788q-.254.088-.559.152-.292.076-.584.076zm4.283 0q-1.169 0-1.867-.838-.686-.838-.686-2.388 0-.749.216-1.346.228-.61.597-1.029.368-.419.85-.647.483-.229 1.017-.229.533 0 .927.19.393.191.8.521l-.05-1.054V4.476h1.053v9.043h-.863l-.09-.724h-.037q-.369.355-.851.622-.47.254-1.016.254zm.228-.876q.432 0 .813-.203.381-.216.762-.648V8.718q-.394-.355-.762-.495-.356-.153-.737-.153-.368 0-.698.178-.318.165-.559.483-.241.305-.38.736-.14.432-.14.966 0 1.117.444 1.74.444.622 1.257.622z" aria-label="Beemer Pools Ltd" font-weight="400" font-size="12.7" font-family="Source Sans Pro" letter-spacing="0" word-spacing="0"/><path d="M37.687 20.972v-5.554h1.603q.471 0 .857.085.394.085.669.28.274.186.428.499.155.313.155.77 0 .44-.155.762-.145.322-.42.534-.274.212-.66.322-.377.101-.84.101h-.926v2.202zm.711-2.777h.84q.738 0 1.09-.27.36-.28.36-.873 0-.6-.378-.83-.369-.236-1.106-.236h-.806zm5.495 2.879q-.386 0-.737-.144-.343-.144-.609-.415-.266-.28-.429-.677-.154-.406-.154-.914 0-.517.154-.915.163-.406.429-.686.266-.279.609-.423.351-.144.737-.144t.728.144q.352.144.618.423.265.28.42.686.163.398.163.915 0 .508-.163.914-.155.398-.42.677-.266.271-.618.415-.342.144-.728.144zm0-.576q.266 0 .488-.11.223-.118.378-.321.162-.212.248-.5.086-.288.086-.643 0-.356-.086-.644-.086-.296-.248-.508-.155-.212-.378-.322-.222-.118-.488-.118t-.489.118q-.223.11-.386.322-.154.212-.24.508-.085.288-.085.644 0 .355.085.643.086.288.24.5.163.203.386.321.223.11.489.11zm4.654.576q-.386 0-.737-.144-.343-.144-.609-.415-.265-.28-.428-.677-.155-.406-.155-.914 0-.517.155-.915.163-.406.428-.686.266-.279.609-.423.351-.144.737-.144t.729.144q.351.144.617.423.266.28.42.686.163.398.163.915 0 .508-.163.914-.154.398-.42.677-.266.271-.617.415-.343.144-.729.144zm0-.576q.266 0 .489-.11.223-.118.377-.321.163-.212.248-.5.086-.288.086-.643 0-.356-.086-.644-.085-.296-.248-.508-.154-.212-.377-.322-.223-.118-.489-.118t-.488.118q-.223.11-.386.322-.155.212-.24.508-.086.288-.086.644 0 .355.086.643.085.288.24.5.163.203.386.321.222.11.488.11zm3.78.576q-.403 0-.574-.237-.172-.237-.172-.694v-5.199h.703v5.25q0 .169.06.237.06.067.137.067h.06q.035 0 .095-.017l.094.525q-.069.034-.163.051-.094.017-.24.017zm4.441 0q-.386 0-.703-.11-.309-.119-.54-.322-.223-.203-.351-.482-.12-.288-.12-.627 0-.28.085-.508.095-.228.249-.423.154-.195.351-.356.206-.17.42-.313-.171-.347-.274-.669-.094-.33-.094-.635 0-.28.094-.516.094-.237.266-.415.171-.178.411-.28.24-.101.532-.101.523 0 .814.305.291.304.291.795 0 .271-.111.5-.111.229-.291.432-.18.194-.412.372-.223.17-.454.339.274.432.643.83.377.398.78.728.257-.347.454-.754.206-.406.334-.889h.66q-.171.55-.411 1.05-.24.5-.574.94.291.195.557.33.266.136.497.203l-.189.576q-.3-.085-.625-.237-.326-.16-.669-.398-.326.288-.729.466-.394.17-.891.17zm-.369-4.453q0 .228.069.474.077.245.197.5.189-.128.36-.255.18-.135.309-.27.137-.145.214-.297.077-.16.077-.347 0-.246-.128-.423-.12-.187-.403-.187-.317 0-.506.229-.189.228-.189.576zm.446 3.894q.292 0 .557-.118.266-.119.515-.33-.412-.356-.798-.77-.377-.424-.677-.881-.3.237-.505.5-.198.253-.198.575 0 .228.086.423.086.186.231.322.155.135.352.212.206.067.437.067zm7.197.559q-.591 0-1.097-.22t-.874-.601l.428-.491q.3.313.703.508.411.186.849.186.557 0 .865-.246.309-.254.309-.66 0-.212-.077-.356-.069-.152-.197-.254-.12-.11-.292-.194-.171-.085-.368-.178l-.806-.347q-.197-.085-.403-.203-.206-.119-.369-.288-.162-.17-.265-.398-.103-.237-.103-.542 0-.313.128-.584.138-.271.369-.466.24-.203.557-.313.326-.11.712-.11.505 0 .934.194.429.187.729.492l-.386.457q-.257-.246-.575-.381-.308-.144-.702-.144-.472 0-.763.22-.283.212-.283.593 0 .203.077.347.086.135.223.245.137.102.3.187.163.076.334.143l.797.34q.24.1.455.236.214.127.368.305.155.17.24.406.095.229.095.534 0 .33-.138.618-.128.288-.377.508-.248.212-.6.339-.351.118-.797.118zm2.942 1.634v-5.85h.583l.06.474h.026q.282-.237.617-.407.343-.169.711-.169.403 0 .712.152.308.144.514.424.206.27.309.66.111.381.111.864 0 .525-.146.94-.145.406-.394.694-.249.288-.574.44-.326.144-.686.144-.292 0-.583-.127-.283-.127-.574-.347l.017.72v1.388zm1.723-2.218q.257 0 .471-.11.223-.119.378-.322.162-.212.248-.516.094-.305.094-.686 0-.339-.06-.618-.06-.28-.197-.474-.128-.204-.343-.314-.205-.11-.497-.11-.265 0-.54.144-.266.144-.574.415v2.16q.283.236.548.338.266.093.472.093zm3.875.584q-.523 0-.875-.305-.343-.305-.343-.863 0-.678.609-1.033.609-.364 1.946-.508 0-.195-.043-.381-.034-.187-.129-.33-.094-.144-.265-.229-.163-.093-.42-.093-.36 0-.678.135-.317.136-.565.305l-.275-.482q.292-.187.712-.356.42-.178.926-.178.762 0 1.105.466.343.457.343 1.227v2.524h-.583l-.06-.492h-.025q-.3.246-.643.424-.343.17-.737.17zm.205-.559q.3 0 .566-.135.266-.144.566-.415v-1.143q-.523.068-.883.16-.352.094-.574.221-.215.127-.318.296-.094.161-.094.356 0 .355.214.508.215.152.523.152zm6.49.559q-.591 0-1.097-.22t-.874-.601l.428-.491q.3.313.703.508.412.186.849.186.557 0 .866-.246.308-.254.308-.66 0-.212-.077-.356-.069-.152-.197-.254-.12-.11-.292-.194-.171-.085-.368-.178l-.806-.347q-.197-.085-.403-.203-.206-.119-.368-.288-.163-.17-.266-.398-.103-.237-.103-.542 0-.313.129-.584.137-.271.368-.466.24-.203.557-.313.326-.11.712-.11.506 0 .934.194.429.187.729.492l-.386.457q-.257-.246-.574-.381-.309-.144-.703-.144-.472 0-.763.22-.283.212-.283.593 0 .203.077.347.086.135.223.245.137.102.3.187.163.076.334.143l.798.34q.24.1.454.236.214.127.368.305.155.17.24.406.095.229.095.534 0 .33-.137.618-.129.288-.378.508-.248.212-.6.339-.351.118-.797.118zm4.631 0q-.42 0-.789-.144-.36-.152-.634-.423-.266-.28-.42-.678-.154-.397-.154-.905t.154-.906q.163-.407.42-.686.266-.28.6-.424.334-.152.694-.152.395 0 .703.136.317.135.523.389.214.254.326.61.111.355.111.795 0 .11-.009.22 0 .102-.017.178h-2.811q.042.66.411 1.05.377.381.977.381.3 0 .549-.084.257-.094.488-.237l.249.457q-.274.169-.609.296-.334.127-.762.127zm-1.312-2.49h2.23q0-.626-.275-.947-.266-.33-.755-.33-.222 0-.428.084-.197.085-.36.254-.163.161-.274.398-.103.237-.138.542zm3.876 2.388v-4.114h.583l.06.745h.025q.215-.39.515-.618.308-.229.668-.229.249 0 .446.085l-.137.61q-.103-.035-.189-.051-.085-.017-.214-.017-.266 0-.557.211-.283.212-.497.737v2.642zm4.098 0l-1.5-4.114h.728l.789 2.336.188.61q.103.305.197.601h.035q.094-.296.188-.6l.189-.61.788-2.337h.695l-1.475 4.114zm3.1 0v-4.114h.704v4.114zm.36-4.961q-.205 0-.35-.127-.138-.127-.138-.322 0-.203.137-.321.146-.127.352-.127t.343.127q.145.118.145.321 0 .195-.145.322-.137.127-.343.127zm3.396 5.063q-.411 0-.771-.144-.36-.144-.626-.415-.257-.28-.412-.677-.145-.406-.145-.914 0-.517.163-.915.162-.406.437-.686.274-.279.634-.423.369-.144.772-.144.411 0 .702.144.292.144.515.339l-.36.457q-.18-.161-.386-.263-.197-.101-.446-.101-.283 0-.523.118-.24.11-.411.322-.172.212-.274.508-.095.288-.095.644 0 .355.095.643.094.288.257.5.171.203.411.321.24.11.523.11.292 0 .532-.118.248-.127.445-.297l.309.466q-.283.246-.626.39-.343.135-.72.135zm3.76 0q-.42 0-.789-.144-.36-.152-.634-.423-.266-.28-.42-.678-.155-.397-.155-.905t.155-.906q.163-.407.42-.686.265-.28.6-.424.334-.152.694-.152.394 0 .703.136.317.135.523.389.214.254.326.61.111.355.111.795 0 .11-.009.22 0 .102-.017.178h-2.812q.043.66.412 1.05.377.381.977.381.3 0 .549-.084.257-.094.488-.237l.249.457q-.274.169-.609.296-.334.127-.763.127zm-1.312-2.49h2.229q0-.626-.274-.947-.266-.33-.755-.33-.223 0-.428.084-.198.085-.36.254-.163.161-.275.398-.103.237-.137.542zm6.869 2.49q-.386 0-.703-.11-.309-.119-.54-.322-.223-.203-.351-.482-.12-.288-.12-.627 0-.28.085-.508.095-.228.249-.423.154-.195.351-.356.206-.17.42-.313-.171-.347-.274-.669-.094-.33-.094-.635 0-.28.094-.516.094-.237.266-.415.171-.178.411-.28.24-.101.532-.101.523 0 .814.305.291.304.291.795 0 .271-.111.5-.111.229-.291.432-.18.194-.412.372-.223.17-.454.339.274.432.643.83.377.398.78.728.257-.347.454-.754.206-.406.334-.889h.66q-.171.55-.411 1.05-.24.5-.574.94.291.195.557.33.266.136.497.203l-.189.576q-.3-.085-.625-.237-.326-.16-.669-.398-.326.288-.729.466-.394.17-.891.17zm-.369-4.453q0 .228.069.474.077.245.197.5.189-.128.36-.255.18-.135.309-.27.137-.145.214-.297.077-.16.077-.347 0-.246-.128-.423-.12-.187-.403-.187-.317 0-.506.229-.189.228-.189.576zm.446 3.894q.292 0 .557-.118.266-.119.515-.33-.412-.356-.798-.77-.377-.424-.677-.881-.3.237-.506.5-.197.253-.197.575 0 .228.086.423.086.186.231.322.155.135.352.212.206.067.437.067zm5.637.457v-5.554h.857l1.08 2.964q.103.288.197.584l.206.576h.034q.103-.288.189-.576.094-.296.197-.584l1.063-2.964h.866v5.554h-.669v-3.056q0-.373.034-.821.035-.449.06-.822h-.034l-.446 1.262-1.062 2.879h-.472l-1.063-2.879-.446-1.262h-.034q.026.373.052.822.034.448.034.821v3.056zm7.119.102q-.522 0-.874-.305-.343-.305-.343-.863 0-.678.609-1.033.608-.364 1.946-.508 0-.195-.043-.381-.035-.187-.129-.33-.094-.144-.266-.229-.162-.093-.42-.093-.36 0-.677.135-.317.136-.565.305l-.275-.482q.292-.187.712-.356.42-.178.925-.178.763 0 1.106.466.343.457.343 1.227v2.524h-.583l-.06-.492h-.025q-.3.246-.643.424-.343.17-.738.17zm.206-.559q.3 0 .566-.135.266-.144.566-.415v-1.143q-.523.068-.883.16-.352.094-.575.221-.214.127-.317.296-.094.161-.094.356 0 .355.214.508.215.152.523.152zm3.154.457v-4.114h.703v4.114zm.36-4.961q-.206 0-.352-.127-.137-.127-.137-.322 0-.203.137-.321.146-.127.352-.127t.343.127q.145.118.145.321 0 .195-.145.322-.137.127-.343.127zm1.749 4.961v-4.114h.583l.06.592h.026q.3-.296.626-.49.334-.204.771-.204.66 0 .96.406.309.407.309 1.203v2.607h-.703v-2.514q0-.584-.189-.838-.188-.263-.6-.263-.325 0-.574.161-.249.161-.566.474v2.98zm6 .102q-.335 0-.566-.102-.223-.101-.369-.279-.137-.178-.197-.432t-.06-.559v-2.277h-.617V16.9l.651-.042.086-1.152h.592v1.152h1.123v.567h-1.123v2.286q0 .381.137.593.145.203.505.203.112 0 .24-.034.13-.034.232-.076l.137.525q-.171.059-.377.101-.197.051-.394.051zm3.156 0q-.42 0-.789-.144-.36-.152-.634-.423-.266-.28-.42-.678-.154-.397-.154-.905t.154-.906q.163-.407.42-.686.266-.28.6-.424.334-.152.694-.152.395 0 .703.136.317.135.523.389.214.254.326.61.111.355.111.795 0 .11-.009.22 0 .102-.017.178h-2.811q.043.66.411 1.05.377.381.977.381.3 0 .549-.084.257-.094.489-.237l.248.457q-.274.169-.609.296-.334.127-.762.127zm-1.312-2.49h2.23q0-.626-.275-.947-.266-.33-.754-.33-.223 0-.43.084-.196.085-.36.254-.162.161-.273.398-.103.237-.138.542zm3.876 2.388v-4.114h.583l.06.592h.025q.3-.296.626-.49.334-.204.772-.204.66 0 .96.406.308.407.308 1.203v2.607h-.703v-2.514q0-.584-.188-.838-.189-.263-.6-.263-.326 0-.575.161-.248.161-.565.474v2.98zm5.648.102q-.523 0-.875-.305-.343-.305-.343-.863 0-.678.609-1.033.609-.364 1.946-.508 0-.195-.043-.381-.034-.187-.129-.33-.094-.144-.265-.229-.163-.093-.42-.093-.36 0-.678.135-.317.136-.565.305l-.275-.482q.292-.187.712-.356.42-.178.926-.178.763 0 1.105.466.343.457.343 1.227v2.524h-.583l-.06-.492h-.025q-.3.246-.643.424-.343.17-.737.17zm.205-.559q.3 0 .566-.135.266-.144.566-.415v-1.143q-.523.068-.883.16-.352.094-.574.221-.215.127-.318.296-.094.161-.094.356 0 .355.214.508.215.152.523.152zm3.154.457v-4.114h.583l.06.592h.026q.3-.296.625-.49.335-.204.772-.204.66 0 .96.406.308.407.308 1.203v2.607h-.702v-2.514q0-.584-.189-.838-.189-.263-.6-.263-.326 0-.574.161-.249.161-.566.474v2.98zm6.334.102q-.412 0-.772-.144-.36-.144-.626-.415-.257-.28-.411-.677-.146-.406-.146-.914 0-.517.163-.915.163-.406.437-.686.275-.279.635-.423.368-.144.771-.144.411 0 .703.144.291.144.514.339l-.36.457q-.18-.161-.386-.263-.197-.101-.445-.101-.283 0-.523.118-.24.11-.412.322-.171.212-.274.508-.094.288-.094.644 0 .355.094.643.094.288.257.5.172.203.412.321.24.11.523.11.291 0 .531-.118.249-.127.446-.297l.308.466q-.283.246-.625.39-.343.135-.72.135zm3.759 0q-.42 0-.788-.144-.36-.152-.635-.423-.265-.28-.42-.678-.154-.397-.154-.905t.154-.906q.163-.407.42-.686.266-.28.6-.424.335-.152.695-.152.394 0 .703.136.317.135.522.389.215.254.326.61.112.355.112.795 0 .11-.01.22 0 .102-.017.178h-2.811q.043.66.411 1.05.377.381.978.381.3 0 .548-.084.257-.094.489-.237l.248.457q-.274.169-.608.296-.335.127-.763.127zm-1.311-2.49h2.228q0-.626-.274-.947-.266-.33-.754-.33-.223 0-.429.084-.197.085-.36.254-.163.161-.274.398-.103.237-.137.542z" style="line-height:1.25;-inkscape-font-specification:'Source Sans Pro'" font-weight="400" font-size="32" font-family="Source Sans Pro" letter-spacing="0" word-spacing="0"/><path d="M14.68.13a12.926 12.926 0 0 0-6.923 1.134A12.755 12.755 0 0 0 2.938 5.17a12.312 12.312 0 0 0-2.386 6.052 12.32 12.32 0 0 0 .022 2.742c.237-.669.526-1.344.864-2.011a19.285 19.285 0 0 1 2.268-3.478A17.424 17.424 0 0 1 6.936 5.4a13.22 13.22 0 0 1 2.845-1.588c1.49-.595 3.073-.865 4.692-.688 2.01.223 3.92 1.214 5.604 2.623.902.755 1.74 1.63 2.493 2.571.731.914 1.383 1.89 1.937 2.878a18.828 18.828 0 0 1 1.478 3.32c.03-.165.056-.33.08-.495.107-.984.096-1.955-.023-2.898a12.384 12.384 0 0 0-1.505-4.533 12.82 12.82 0 0 0-4.407-4.588A13.003 13.003 0 0 0 14.679.13z" stroke="#000" stroke-width=".1" stroke-linejoin="round"/><g stroke="#000" stroke-width=".265"><path d="M1.836 16.98c.708-1.312 1.634-2.895 2.674-4.18 1.04-1.284 2.196-2.268 3.297-2.849 1.1-.581 2.148-.76 3.21-.762 1.061-.002 2.139.17 3.151.775 1.013.605 2.018 1.703 2.881 2.592.863.888 1.655 1.64 2.335 2.334.679.694 1.266 1.351 2.02 1.906.756.554 1.681 1.007 2.903 1.43 1.221.423 2.78.827 4.077.981a9.968 9.968 0 0 0 3.394-.158c1.043-.222 2.076-.576 2.171-.496.096.08-.746.595-1.814 1.041a11.187 11.187 0 0 1-4.024.88c-1.66.057-3.753-.213-5.647-.876-1.894-.663-3.715-1.777-5.165-2.713-1.45-.937-2.584-1.728-3.802-2.238-1.217-.51-2.608-.756-3.761-.7-1.153.057-2.083.399-3.03.792-.948.394-1.87.822-3.007 1.856C2.562 17.628 1.225 19.262.6 19.989c-.624.728-.536.552-.248-.055.288-.607.776-1.644 1.483-2.955z"/><path d="M.682 20.894c.794-.794 1.588-1.588 2.47-2.382.882-.793 1.852-1.587 2.778-2.16.926-.574 1.808-.926 2.778-1.103a8.125 8.125 0 0 1 2.955 0c.9.172 1.73.62 2.557 1.015.924.44 1.797.98 2.677 1.5.716.425 1.387.923 2.117 1.323.448.247.914.46 1.384.662.478.206.57.296 1.458.562.888.266 1.92.629 1.92.629s-1.35-.004-2.017-.1c-.62-.088-1.226-.257-1.826-.433-.57-.168-1.12-.394-1.68-.592-.646-.229-1.282-.486-1.936-.69a42.516 42.516 0 0 0-3.11-.833c-.971-.22-1.853-.397-2.72-.4-.866-.003-1.779.18-2.703.4-.924.22-1.898.485-2.8.825-.9.341-1.832.806-2.538 1.115-.705.309-1.234.485-1.764.662zM5.445 10.84c.794-.618 1.588-1.235 2.558-1.676.97-.441 2.116-.706 3.175-.706 1.058 0 2.028.265 2.778.618.75.352 1.278.793 1.764 1.234.485.441.895.852 1.32 1.276l1.196 1.197 1.496 1.496a70.072 70.072 0 0 0-1.675-2.954c-.618-1.015-1.323-2.073-2.161-2.955a11.322 11.322 0 0 0-2.602-2.028c-.793-.441-1.41-.618-2.116-.662-.706-.044-1.5.044-2.205.309a4.26 4.26 0 0 0-1.764 1.234c-.441.53-.706 1.147-.97 1.764l-.794 1.853z"/></g></g></svg>