<?xml version="1.0" encoding="iso-8859-1"?><!DOCTYPE svg PUBLIC "-//W3C//DTD SVG 1.1//EN" "http://www.w3.org/Graphics/SVG/1.1/DTD/svg11.dtd"><svg width="1605" height="1474" viewBox="0 0 1605 1474" xmlns="http://www.w3.org/2000/svg" xmlns:xlink="http://www.w3.org/1999/xlink"><svg viewBox="0 0 490.29 490.29" width="490.29" height="490.29" id="001-hot" y="983" xmlns="http://www.w3.org/2000/svg"><path d="M249.457 288.49c30.062-11.866 23.138-60.108 22.148-69.072-1.054-8.784-12.527-52.148-2.168-66.096-30.458 10.711-23.261 57.106-21.771 72.032 1.92 19.246 12.945 45.649 1.791 63.136zM363.07 306.887c30.061-11.866 23.138-60.108 22.148-69.073-1.054-8.784-12.527-52.148-2.168-66.096-30.459 10.711-23.261 57.106-21.772 72.032 1.921 19.246 12.947 45.649 1.792 63.137z"/><path d="M245.145 315.569c-11.893 0-37.636.255-68.081 2.024V214.782c0-28.91-23.522-52.428-52.448-52.428-9.031 0-17.398 2.506-24.834 6.536 9.118 7.183 16.537 16.264 21.66 26.788 1.073-.175 2.059-.639 3.174-.639 10.888 0 19.759 8.857 19.759 19.743v25.912l-39.502 6.342v-17.954c0-28.914-23.508-52.428-52.424-52.428C23.532 176.655 0 200.169 0 229.083v30.65c0 9.024 7.327 16.342 16.35 16.342 9.031 0 16.341-7.317 16.341-16.342v-30.65c0-10.886 8.871-19.74 19.759-19.74 10.881 0 19.742 8.855 19.742 19.74v101.373C31.508 339.355 0 353.535 0 376.175c0 57.687 204.226 60.607 245.145 60.607 40.952 0 245.145-2.92 245.145-60.607s-204.192-60.606-245.145-60.606zM104.873 280.14l39.502-6.347v46.21c-13.101 1.191-26.444 2.69-39.502 4.592V280.14zm140.272 123.584c-134.323 0-198.308-12.335-198.308-27.549 0-15.214 65.147-27.548 198.308-27.548 135.419 0 198.307 12.334 198.307 27.548 0 15.214-69.864 27.549-198.307 27.549zM313.637 188.677c30.061-11.866 23.138-60.108 22.148-69.072-1.054-8.784-12.527-52.148-2.168-66.096-30.458 10.711-23.26 57.106-21.771 72.031 1.92 19.246 12.946 45.65 1.791 63.137z"/></svg><svg width="983" height="983" viewBox="0 0 983 983" id="002-shape" xmlns="http://www.w3.org/2000/svg"><path d="M937.8 702.95c-4.399-3.2-10.399 1.3-8.5 6.399 2.2 6 3.4 12.101 3.4 18.301 0 81.3-197.5 147.1-441.2 147.1s-441.2-65.8-441.2-147c0-6.2 1.1-12.3 3.4-18.3 1.9-5.101-4-9.601-8.5-6.4-29 20.9-45.2 44.2-45.2 68.7 0 90.5 220 163.8 491.5 163.8S983 862.25 983 771.75c0-24.6-16.2-47.9-45.2-68.8z"/><path d="M811.6 674.15c4.301 6.1 6.601 12.399 6.601 18.8 0 51.8-146.3 93.8-326.7 93.8s-326.7-42-326.7-93.8c0-6.4 2.3-12.7 6.6-18.8 3.3-4.7-1.8-10.7-7-8.2-34.6 16.5-54.5 35.8-54.5 56.399 0 60.5 170.8 109.5 381.5 109.5 210.699 0 381.5-49 381.5-109.5 0-20.6-19.9-39.899-54.5-56.399-5.001-2.5-10.101 3.5-6.801 8.2z"/><path d="M259.5 670.55c-3.2 1.8-4.7 5.601-3.6 9 11.6 34.5 112.6 61.4 235.6 61.4 122.9 0 223.8-26.9 235.6-61.2 1.2-3.5-.399-7.4-3.699-9.1-28-14.7-191.2-69-225.9-354 21.9-3 38.9-21.7 38.9-44.5 0-24.8-20.101-44.9-44.9-44.9s-44.9 20.1-44.9 44.9c0 22.9 17.101 41.7 39.2 44.5C451.6 602.85 286.2 655.85 259.5 670.55zM556.5 112.55c0-35.9-29.1-65.1-65.1-65.1-35.9 0-65.101 29.1-65.101 65.1s29.101 65.1 65.101 65.1c36-.1 65.1-29.2 65.1-65.1zm-85.5 3c-10.8 0-19.8-9-19.8-19.8s9-19.8 19.8-19.8 19.8 9 19.8 19.8-9 19.8-19.8 19.8z"/></svg><svg viewBox="0 0 303.477 303.477" width="303.48" height="303.48" id="003-construction" x="983" y="621.121" xmlns="http://www.w3.org/2000/svg"><path d="M298.604 64.209l-49.978 49.979-43.719-15.618-15.617-43.718 49.979-49.979c-32.791-10.97-70.418-3.42-96.529 22.692-25.629 25.629-33.373 62.349-23.281 94.704a44.282 44.282 0 0 0-3.93 3.476L12.884 228.389c-17.178 17.177-17.178 45.027 0 62.205 17.178 17.178 45.029 17.178 62.207 0l102.645-102.645a44.418 44.418 0 0 0 3.475-3.929c32.355 10.092 69.074 2.347 94.703-23.282 26.11-26.112 33.661-63.737 22.69-96.529z"/></svg><svg width="621.121" height="621.121" viewBox="0 0 621.121 621.121" id="004-summer" x="983" xmlns="http://www.w3.org/2000/svg"><g fill="#27241f"><path d="M197.85 48.183h-.332c-.493-.64-.986-1.304-1.47-1.962.645.649 1.143 1.312 1.802 1.962z"/><path d="M209.692 183.435h129.501v32.909H209.692v-32.909zm0 144.898v-11.956h34.027c11.207-5.85 23.011-13.909 35.715-25.11 3.868-3.418 7.348-6.187 10.913-9.107h-80.655v-31.586h129.501v.304c10.031-4.233 18.924-6.552 27.476-8.367V96.394c0-.502.161-.991.161-1.484v-1.972c.162-45.405 27.154-38.175 27.154-38.175 15.956 1.631 19.578 23.864 20.394 36.535.834 8.068 6.409 8.708 6.409 8.708h12.345c4.769 0 5.783-3.612 5.783-6.418-.171-.981-.171-1.967-.342-3.133v-.157c-1.138-9.376-3.129-23.679-5.765-31.425a44.354 44.354 0 0 0-6.086-10.699c-.493-.64-.986-1.304-1.479-1.962-.645-.659-1.156-1.323-1.811-1.816-1.337-1.318-2.627-2.456-3.935-3.456-1.318-1.157-2.807-2.138-4.286-3.115 0-.166-.151-.166-.151-.166a52.233 52.233 0 0 0-8.732-4.11c-4.437-1.65-8.391-2.309-11.349-2.811-1.83-.166-3.451-.322-5.271-.322h-1.137c-27.153 0-49.358 22.205-49.358 49.358v69.425h-129.52V96.394c0-.502.166-.991.166-1.484v-1.972c0-45.405 27.158-38.175 27.158-38.175 15.795 1.631 19.569 23.864 20.384 36.535.834 8.068 6.428 8.708 6.428 8.708h12.344c4.778 0 5.755-3.612 5.755-6.418-.161-.981-.161-1.967-.322-3.133v-.157c-1.157-9.376-3.138-23.679-5.764-31.425-1.641-4.11-3.773-7.732-6.087-10.699-.484-.64-.986-1.304-1.489-1.962-.645-.659-1.138-1.323-1.792-1.816a38.466 38.466 0 0 0-3.963-3.456c-1.309-1.157-2.797-2.138-4.276-3.115 0-.166-.171-.166-.171-.166a51.71 51.71 0 0 0-8.713-4.11c-4.447-1.65-8.391-2.309-11.358-2.811-1.811-.166-3.441-.322-5.271-.322h-1.132c-27.158 0-49.358 22.205-49.358 49.358V330.67c8.929.043 18.036-.564 27.46-2.337z"/><path d="M579.585 515.598c0 15.738-12.752 28.519-28.51 28.519H70.036c-15.738 0-28.504-12.761-28.504-28.519V113.882H0v443.906c0 18.185 14.733 32.918 32.899 32.918h555.322c18.166 0 32.899-14.733 32.899-32.918V113.882h-41.536v401.716h.001z"/><path d="M543.681 315.458c-5.329-5.096-12.335-10.292-19.598-16-65.808-45.736-129.653-29.292-129.653-29.292-25.172 5.11-49.358 8.234-97.74 50.847-48.202 42.769-84.239 40.646-120.286 38.673-36.028-2.152-72.397-33.089-80.115-40.664-4.438-4.418-10.865-4.584-16.236-3.005-7.969 3.281-9.879 14.051-10.259 21.181V489.81c0 13.33 14.814 24.366 32.899 24.366h415.634c18.261 0 32.908-11.036 32.908-24.366V339.094c-.378-7.225-1.989-17.502-7.554-23.636z"/></g></svg><svg width="31.39" height="31.39" viewBox="0 0 31.39 31.39" id="005-person" x="1286.48" y="621.121" xmlns="http://www.w3.org/2000/svg"><path d="M27.851 21.77a1.73 1.73 0 0 1-2.605 0 5.605 5.605 0 0 0-4.244-1.933 5.605 5.605 0 0 0-4.216 1.897 1.73 1.73 0 0 1-2.586.001 5.605 5.605 0 0 0-4.215-1.898 5.598 5.598 0 0 0-4.214 1.898c-.33.37-.799.58-1.295.58-.492 0-.965-.21-1.292-.579A5.603 5.603 0 0 0 0 19.948v3.414c.27.134.519.315.728.552a5.018 5.018 0 0 0 3.749 1.684 5.002 5.002 0 0 0 3.747-1.686 2.334 2.334 0 0 1 1.762-.794 2.32 2.32 0 0 1 1.76.795 5.008 5.008 0 0 0 7.495 0 2.33 2.33 0 0 1 1.763-.795c.926 0 1.507.508 1.771.809a5.009 5.009 0 0 0 7.55 0 2.405 2.405 0 0 1 1.065-.694v-3.319c-1.408.178-2.652.841-3.539 1.856z"/><circle cx="24.374" cy="14.518" r="4.047"/><path d="M15.018 21.01c.24.268.708.27.949-.001a6.743 6.743 0 0 1 3.949-2.168 3.79 3.79 0 0 0-.15-1.898c-.117-.331-1.404-4.654-1.404-4.654-.002-.009-.156-.9.391-1.701.542-.793 1.677-1.337 3.277-1.577a1.641 1.641 0 1 0-.485-3.245c-2.562.382-4.415 1.381-5.501 2.968-1.352 1.975-.936 4.049-.875 4.31l.348 1.41c-.212.037-.426.08-.634.154l-6.62 2.337a3.827 3.827 0 0 0-2.543 3.341 6.722 6.722 0 0 1 4.268-1.543 6.72 6.72 0 0 1 5.03 2.267z"/></svg></svg>