<?xml version="1.0" encoding="UTF-8" standalone="no"?>
<svg
   xmlns:dc="http://purl.org/dc/elements/1.1/"
   xmlns:cc="http://creativecommons.org/ns#"
   xmlns:rdf="http://www.w3.org/1999/02/22-rdf-syntax-ns#"
   xmlns:svg="http://www.w3.org/2000/svg"
   xmlns="http://www.w3.org/2000/svg"
   id="svg8"
   version="1.1"
   viewBox="0 0 149.87952 18.722918"
   height="18.722918mm"
   width="149.87952mm">
  <defs
     id="defs2" />
  <metadata
     id="metadata5">
    <rdf:RDF>
      <cc:Work
         rdf:about="">
        <dc:format>image/svg+xml</dc:format>
        <dc:type
           rdf:resource="http://purl.org/dc/dcmitype/StillImage" />
        <dc:title></dc:title>
      </cc:Work>
    </rdf:RDF>
  </metadata>
  <g
     transform="translate(-3.2290427,-350.45422)"
     id="layer1">
    <g
       id="text4508"
       style="font-style:normal;font-variant:normal;font-weight:normal;font-stretch:normal;font-size:14.11111069px;line-height:1.25;font-family:'Source Sans Pro';-inkscape-font-specification:'Source Sans Pro';letter-spacing:0px;word-spacing:0px;fill:#000000;fill-opacity:1;stroke:none;stroke-width:0.26458332"
       aria-label="Beemer Pools Ltd" />
    <text
       id="text4520"
       y="369.76041"
       x="31.75"
       style="font-style:normal;font-variant:normal;font-weight:normal;font-stretch:normal;font-size:8.46666622px;line-height:1.25;font-family:'Source Sans Pro';-inkscape-font-specification:'Source Sans Pro';letter-spacing:0px;word-spacing:0px;fill:#000000;fill-opacity:1;stroke:none;stroke-width:0.26458332"
       xml:space="preserve"><tspan
         style="font-size:8.46666622px;stroke-width:0.26458332"
         y="377.16873"
         x="31.75"
         id="tspan4518" /></text>
    <text
       id="text4524"
       y="369.76041"
       x="31.75"
       style="font-style:normal;font-variant:normal;font-weight:normal;font-stretch:normal;font-size:7.05555534px;line-height:1.25;font-family:'Source Sans Pro';-inkscape-font-specification:'Source Sans Pro';letter-spacing:0px;word-spacing:0px;fill:#000000;fill-opacity:1;stroke:none;stroke-width:0.26458332"
       xml:space="preserve"><tspan
         style="stroke-width:0.26458332"
         y="375.93402"
         x="31.75"
         id="tspan4522" /></text>
    <g
       transform="matrix(0.97302545,0,0,0.9251605,4.1313606,26.22905)"
       id="g5098">
      <path
         d="m 33.02,360.5 v -9.25689 h 2.751667 q 0.705555,0 1.284111,0.127 0.592666,0.127 1.001888,0.39511 0.423334,0.26811 0.649112,0.70556 0.239888,0.42333 0.239888,1.03011 0,0.69144 -0.352777,1.25589 -0.338667,0.55033 -1.001889,0.762 v 0.0564 q 0.846666,0.15522 1.368778,0.70556 0.522111,0.55033 0.522111,1.50989 0,0.67733 -0.254,1.18533 -0.254,0.508 -0.719667,0.84667 -0.465667,0.33866 -1.114778,0.508 Q 36.745333,360.5 35.969222,360.5 Z m 1.171222,-5.31989 H 35.56 q 1.185333,0 1.707444,-0.40922 0.522111,-0.40922 0.522111,-1.11478 0,-0.80433 -0.550333,-1.143 -0.536222,-0.33867 -1.622778,-0.33867 h -1.425222 z m 0,4.38856 h 1.608667 q 1.199444,0 1.862666,-0.43745 0.663223,-0.45155 0.663223,-1.38289 0,-0.86077 -0.649112,-1.25589 -0.649111,-0.40922 -1.876777,-0.40922 h -1.608667 z"
         style="font-style:normal;font-variant:normal;font-weight:normal;font-stretch:normal;font-size:14.11111069px;line-height:1.25;font-family:'Source Sans Pro';-inkscape-font-specification:'Source Sans Pro';letter-spacing:0px;word-spacing:0px;fill:#143d63;fill-opacity:1;stroke:none;stroke-width:0.26458332"
         id="path5009" />
      <path
         d="m 43.71552,360.66933 q -0.691444,0 -1.298222,-0.23989 -0.592666,-0.254 -1.044222,-0.70555 -0.437444,-0.46567 -0.691444,-1.12889 -0.254,-0.66322 -0.254,-1.50989 0,-0.84667 0.254,-1.50989 0.268111,-0.67733 0.691444,-1.143 0.437445,-0.46566 0.987778,-0.70555 0.550333,-0.254 1.143,-0.254 0.649111,0 1.157111,0.22577 0.522111,0.22578 0.860778,0.64912 0.352777,0.42333 0.536222,1.016 0.183444,0.59266 0.183444,1.32644 0,0.18344 -0.01411,0.36689 0,0.16933 -0.02822,0.29633 h -4.628444 q 0.07055,1.10067 0.677333,1.74978 0.620889,0.635 1.608667,0.635 0.493888,0 0.903111,-0.14111 0.423333,-0.15522 0.804333,-0.39511 l 0.409222,0.762 q -0.451555,0.28222 -1.001889,0.49389 -0.550333,0.21166 -1.255889,0.21166 z m -2.158999,-4.14866 h 3.668888 q 0,-1.04423 -0.451555,-1.58045 -0.437445,-0.55033 -1.241778,-0.55033 -0.366889,0 -0.705556,0.14111 -0.324555,0.14111 -0.592666,0.42333 -0.268111,0.26811 -0.451556,0.66323 -0.169333,0.39511 -0.225777,0.90311 z"
         style="font-style:normal;font-variant:normal;font-weight:normal;font-stretch:normal;font-size:14.11111069px;line-height:1.25;font-family:'Source Sans Pro';-inkscape-font-specification:'Source Sans Pro';letter-spacing:0px;word-spacing:0px;fill:#143d63;fill-opacity:1;stroke:none;stroke-width:0.26458332"
         id="path5011" />
      <path
         d="m 50.715954,360.66933 q -0.691444,0 -1.298222,-0.23989 -0.592666,-0.254 -1.044222,-0.70555 -0.437444,-0.46567 -0.691444,-1.12889 -0.254,-0.66322 -0.254,-1.50989 0,-0.84667 0.254,-1.50989 0.268111,-0.67733 0.691444,-1.143 0.437444,-0.46566 0.987778,-0.70555 0.550333,-0.254 1.143,-0.254 0.649111,0 1.157111,0.22577 0.522111,0.22578 0.860778,0.64912 0.352777,0.42333 0.536222,1.016 0.183444,0.59266 0.183444,1.32644 0,0.18344 -0.01411,0.36689 0,0.16933 -0.02822,0.29633 h -4.628444 q 0.07055,1.10067 0.677333,1.74978 0.620889,0.635 1.608666,0.635 0.493889,0 0.903112,-0.14111 0.423333,-0.15522 0.804333,-0.39511 l 0.409222,0.762 q -0.451555,0.28222 -1.001889,0.49389 -0.550333,0.21166 -1.255889,0.21166 z m -2.159,-4.14866 h 3.668889 q 0,-1.04423 -0.451555,-1.58045 -0.437445,-0.55033 -1.241778,-0.55033 -0.366889,0 -0.705556,0.14111 -0.324555,0.14111 -0.592666,0.42333 -0.268111,0.26811 -0.451556,0.66323 -0.169333,0.39511 -0.225778,0.90311 z"
         style="font-style:normal;font-variant:normal;font-weight:normal;font-stretch:normal;font-size:14.11111069px;line-height:1.25;font-family:'Source Sans Pro';-inkscape-font-specification:'Source Sans Pro';letter-spacing:0px;word-spacing:0px;fill:#143d63;fill-opacity:1;stroke:none;stroke-width:0.26458332"
         id="path5013" />
      <path
         d="m 54.401959,360.5 v -6.858 h 0.959556 l 0.09878,0.98778 h 0.04233 q 0.451556,-0.49389 0.973667,-0.81845 0.536222,-0.33866 1.157111,-0.33866 0.790222,0 1.227666,0.35277 0.451556,0.33867 0.663223,0.95956 0.536222,-0.59267 1.072444,-0.94544 0.550333,-0.36689 1.185333,-0.36689 1.058334,0 1.566334,0.67733 0.522111,0.67733 0.522111,2.00378 V 360.5 h -1.157111 v -4.191 q 0,-0.97367 -0.310445,-1.397 -0.310444,-0.43744 -0.959555,-0.43744 -0.776112,0 -1.721556,1.05833 V 360.5 h -1.157111 v -4.191 q 0,-0.97367 -0.310444,-1.397 -0.310445,-0.43744 -0.973667,-0.43744 -0.776111,0 -1.721556,1.05833 V 360.5 Z"
         style="font-style:normal;font-variant:normal;font-weight:normal;font-stretch:normal;font-size:14.11111069px;line-height:1.25;font-family:'Source Sans Pro';-inkscape-font-specification:'Source Sans Pro';letter-spacing:0px;word-spacing:0px;fill:#143d63;fill-opacity:1;stroke:none;stroke-width:0.26458332"
         id="path5015" />
      <path
         d="m 68.333072,360.66933 q -0.691444,0 -1.298222,-0.23989 -0.592667,-0.254 -1.044222,-0.70555 -0.437445,-0.46567 -0.691445,-1.12889 -0.254,-0.66322 -0.254,-1.50989 0,-0.84667 0.254,-1.50989 0.268112,-0.67733 0.691445,-1.143 0.437444,-0.46566 0.987778,-0.70555 0.550333,-0.254 1.143,-0.254 0.649111,0 1.157111,0.22577 0.522111,0.22578 0.860777,0.64912 0.352778,0.42333 0.536223,1.016 0.183444,0.59266 0.183444,1.32644 0,0.18344 -0.01411,0.36689 0,0.16933 -0.02822,0.29633 h -4.628445 q 0.07056,1.10067 0.677334,1.74978 0.620889,0.635 1.608666,0.635 0.493889,0 0.903111,-0.14111 0.423334,-0.15522 0.804334,-0.39511 l 0.409222,0.762 q -0.451556,0.28222 -1.001889,0.49389 -0.550333,0.21166 -1.255889,0.21166 z m -2.159,-4.14866 h 3.668889 q 0,-1.04423 -0.451555,-1.58045 -0.437445,-0.55033 -1.241778,-0.55033 -0.366889,0 -0.705556,0.14111 -0.324555,0.14111 -0.592666,0.42333 -0.268111,0.26811 -0.451556,0.66323 -0.169333,0.39511 -0.225778,0.90311 z"
         style="font-style:normal;font-variant:normal;font-weight:normal;font-stretch:normal;font-size:14.11111069px;line-height:1.25;font-family:'Source Sans Pro';-inkscape-font-specification:'Source Sans Pro';letter-spacing:0px;word-spacing:0px;fill:#143d63;fill-opacity:1;stroke:none;stroke-width:0.26458332"
         id="path5017" />
      <path
         d="m 72.553618,360.5 v -6.858 h 0.959556 l 0.09878,1.24178 h 0.04233 q 0.352778,-0.64911 0.846667,-1.03011 0.508,-0.381 1.100666,-0.381 0.409222,0 0.733778,0.14111 l -0.225778,1.016 q -0.169333,-0.0564 -0.310444,-0.0847 -0.141111,-0.0282 -0.352778,-0.0282 -0.437444,0 -0.917222,0.35278 -0.465667,0.35277 -0.818445,1.22766 V 360.5 Z"
         style="font-style:normal;font-variant:normal;font-weight:normal;font-stretch:normal;font-size:14.11111069px;line-height:1.25;font-family:'Source Sans Pro';-inkscape-font-specification:'Source Sans Pro';letter-spacing:0px;word-spacing:0px;fill:#143d63;fill-opacity:1;stroke:none;stroke-width:0.26458332"
         id="path5019" />
      <path
         d="m 80.517154,360.5 v -9.25689 h 2.638778 q 0.776111,0 1.411111,0.14111 0.649111,0.14111 1.100667,0.46567 0.451555,0.31044 0.705555,0.83255 0.254,0.52212 0.254,1.28412 0,0.73377 -0.254,1.27 -0.239889,0.53622 -0.691444,0.889 -0.451556,0.35277 -1.086556,0.53622 -0.620889,0.16933 -1.382889,0.16933 h -1.524 V 360.5 Z m 1.171222,-4.62844 h 1.382889 q 1.213556,0 1.792111,-0.45156 0.592667,-0.46567 0.592667,-1.45344 0,-1.00189 -0.620889,-1.38289 -0.606778,-0.39511 -1.820333,-0.39511 h -1.326445 z"
         style="font-style:normal;font-variant:normal;font-weight:normal;font-stretch:normal;font-size:14.11111069px;line-height:1.25;font-family:'Source Sans Pro';-inkscape-font-specification:'Source Sans Pro';letter-spacing:0px;word-spacing:0px;fill:#143d63;fill-opacity:1;stroke:none;stroke-width:0.26458332"
         id="path5021" />
      <path
         d="m 90.395713,360.66933 q -0.635,0 -1.213556,-0.23989 -0.564444,-0.23988 -1.001889,-0.69144 -0.437444,-0.46567 -0.705555,-1.12889 -0.254,-0.67733 -0.254,-1.524 0,-0.86078 0.254,-1.524 0.268111,-0.67733 0.705555,-1.143 0.437445,-0.46567 1.001889,-0.70555 0.578556,-0.23989 1.213556,-0.23989 0.635,0 1.199444,0.23989 0.578556,0.23988 1.016,0.70555 0.437445,0.46567 0.691445,1.143 0.268111,0.66322 0.268111,1.524 0,0.84667 -0.268111,1.524 -0.254,0.66322 -0.691445,1.12889 -0.437444,0.45156 -1.016,0.69144 -0.564444,0.23989 -1.199444,0.23989 z m 0,-0.95955 q 0.437444,0 0.804333,-0.18345 0.366889,-0.19755 0.620889,-0.53622 0.268111,-0.35278 0.409222,-0.83255 0.141111,-0.47978 0.141111,-1.07245 0,-0.59267 -0.141111,-1.07244 -0.141111,-0.49389 -0.409222,-0.84667 -0.254,-0.35278 -0.620889,-0.53622 -0.366889,-0.19756 -0.804333,-0.19756 -0.437445,0 -0.804333,0.19756 -0.366889,0.18344 -0.635,0.53622 -0.254,0.35278 -0.395112,0.84667 -0.141111,0.47977 -0.141111,1.07244 0,0.59267 0.141111,1.07245 0.141112,0.47977 0.395112,0.83255 0.268111,0.33867 0.635,0.53622 0.366888,0.18345 0.804333,0.18345 z"
         style="font-style:normal;font-variant:normal;font-weight:normal;font-stretch:normal;font-size:14.11111069px;line-height:1.25;font-family:'Source Sans Pro';-inkscape-font-specification:'Source Sans Pro';letter-spacing:0px;word-spacing:0px;fill:#143d63;fill-opacity:1;stroke:none;stroke-width:0.26458332"
         id="path5023" />
      <path
         d="m 97.656703,360.66933 q -0.635,0 -1.213556,-0.23989 -0.564444,-0.23988 -1.001888,-0.69144 -0.437445,-0.46567 -0.705556,-1.12889 -0.254,-0.67733 -0.254,-1.524 0,-0.86078 0.254,-1.524 0.268111,-0.67733 0.705556,-1.143 0.437444,-0.46567 1.001888,-0.70555 0.578556,-0.23989 1.213556,-0.23989 0.635,0 1.199444,0.23989 0.578556,0.23988 1.016,0.70555 0.437443,0.46567 0.691443,1.143 0.26811,0.66322 0.26811,1.524 0,0.84667 -0.26811,1.524 -0.254,0.66322 -0.691443,1.12889 -0.437444,0.45156 -1.016,0.69144 -0.564444,0.23989 -1.199444,0.23989 z m 0,-0.95955 q 0.437444,0 0.804333,-0.18345 0.366889,-0.19755 0.620889,-0.53622 0.268111,-0.35278 0.409222,-0.83255 0.141112,-0.47978 0.141112,-1.07245 0,-0.59267 -0.141112,-1.07244 -0.141111,-0.49389 -0.409222,-0.84667 -0.254,-0.35278 -0.620889,-0.53622 -0.366889,-0.19756 -0.804333,-0.19756 -0.437444,0 -0.804333,0.19756 -0.366889,0.18344 -0.635,0.53622 -0.254,0.35278 -0.395111,0.84667 -0.141111,0.47977 -0.141111,1.07244 0,0.59267 0.141111,1.07245 0.141111,0.47977 0.395111,0.83255 0.268111,0.33867 0.635,0.53622 0.366889,0.18345 0.804333,0.18345 z"
         style="font-style:normal;font-variant:normal;font-weight:normal;font-stretch:normal;font-size:14.11111069px;line-height:1.25;font-family:'Source Sans Pro';-inkscape-font-specification:'Source Sans Pro';letter-spacing:0px;word-spacing:0px;fill:#143d63;fill-opacity:1;stroke:none;stroke-width:0.26458332"
         id="path5025" />
      <path
         d="m 103.47835,360.66933 q -0.66322,0 -0.94544,-0.39511 -0.28222,-0.39511 -0.28222,-1.15711 v -8.66422 h 1.15711 v 8.74889 q 0,0.28222 0.0988,0.39511 0.0988,0.11289 0.22578,0.11289 0.0564,0 0.0988,0 0.0564,0 0.15522,-0.0282 l 0.15522,0.87488 q -0.11288,0.0564 -0.26811,0.0847 -0.15522,0.0282 -0.39511,0.0282 z"
         style="font-style:normal;font-variant:normal;font-weight:normal;font-stretch:normal;font-size:14.11111069px;line-height:1.25;font-family:'Source Sans Pro';-inkscape-font-specification:'Source Sans Pro';letter-spacing:0px;word-spacing:0px;fill:#143d63;fill-opacity:1;stroke:none;stroke-width:0.26458332"
         id="path5027" />
      <path
         d="m 107.65326,360.66933 q -0.73378,0 -1.397,-0.26811 -0.66322,-0.26811 -1.15711,-0.67733 l 0.57856,-0.77611 q 0.45155,0.36689 0.91722,0.59266 0.47978,0.22578 1.10067,0.22578 0.67733,0 1.016,-0.31044 0.33866,-0.31045 0.33866,-0.762 0,-0.26811 -0.14111,-0.46567 -0.14111,-0.19755 -0.36689,-0.33867 -0.21166,-0.15522 -0.49389,-0.26811 -0.28222,-0.11289 -0.56444,-0.22577 -0.36689,-0.127 -0.73378,-0.28223 -0.36689,-0.16933 -0.66322,-0.39511 -0.28222,-0.23989 -0.46567,-0.55033 -0.18344,-0.31045 -0.18344,-0.74789 0,-0.40922 0.15522,-0.762 0.16933,-0.36689 0.46567,-0.62089 0.31044,-0.26811 0.74789,-0.40922 0.43744,-0.15522 0.98777,-0.15522 0.64911,0 1.18534,0.22577 0.55033,0.22578 0.94544,0.55034 l -0.55033,0.73378 q -0.35278,-0.26812 -0.73378,-0.43745 -0.381,-0.16933 -0.83256,-0.16933 -0.64911,0 -0.95955,0.29633 -0.29633,0.29633 -0.29633,0.69145 0,0.23988 0.127,0.42333 0.127,0.16933 0.33866,0.31044 0.21167,0.127 0.47978,0.23989 0.28222,0.0988 0.57856,0.21167 0.36688,0.14111 0.73377,0.29633 0.381,0.15522 0.67734,0.39511 0.29633,0.22578 0.47977,0.56445 0.19756,0.33866 0.19756,0.81844 0,0.42334 -0.16933,0.79022 -0.15523,0.36689 -0.47978,0.64912 -0.31045,0.28222 -0.79022,0.43744 -0.46567,0.16933 -1.07245,0.16933 z"
         style="font-style:normal;font-variant:normal;font-weight:normal;font-stretch:normal;font-size:14.11111069px;line-height:1.25;font-family:'Source Sans Pro';-inkscape-font-specification:'Source Sans Pro';letter-spacing:0px;word-spacing:0px;fill:#143d63;fill-opacity:1;stroke:none;stroke-width:0.26458332"
         id="path5029" />
      <path
         d="m 114.84443,360.5 v -9.25689 h 1.17122 v 8.255 h 4.04989 V 360.5 Z"
         style="font-style:normal;font-variant:normal;font-weight:normal;font-stretch:normal;font-size:14.11111069px;line-height:1.25;font-family:'Source Sans Pro';-inkscape-font-specification:'Source Sans Pro';letter-spacing:0px;word-spacing:0px;fill:#143d63;fill-opacity:1;stroke:none;stroke-width:0.26458332"
         id="path5031" />
      <path
         d="m 123.47757,360.66933 q -0.55033,0 -0.93133,-0.16933 -0.36689,-0.16933 -0.60678,-0.46567 -0.22578,-0.29633 -0.32455,-0.71966 -0.0988,-0.42334 -0.0988,-0.93134 v -3.79589 h -1.016 v -0.87488 l 1.07244,-0.0706 0.14111,-1.91911 h 0.97367 v 1.91911 h 1.84856 v 0.94544 h -1.84856 v 3.81 q 0,0.635 0.22578,0.98778 0.23989,0.33867 0.83255,0.33867 0.18345,0 0.39511,-0.0564 0.21167,-0.0564 0.381,-0.127 l 0.22578,0.87489 q -0.28222,0.0988 -0.62089,0.16934 -0.32455,0.0847 -0.64911,0.0847 z"
         style="font-style:normal;font-variant:normal;font-weight:normal;font-stretch:normal;font-size:14.11111069px;line-height:1.25;font-family:'Source Sans Pro';-inkscape-font-specification:'Source Sans Pro';letter-spacing:0px;word-spacing:0px;fill:#143d63;fill-opacity:1;stroke:none;stroke-width:0.26458332"
         id="path5033" />
      <path
         d="m 128.2361,360.66933 q -1.29822,0 -2.07434,-0.93133 -0.762,-0.93133 -0.762,-2.65289 0,-0.83255 0.23989,-1.49578 0.254,-0.67733 0.66323,-1.143 0.40922,-0.46566 0.94544,-0.71966 0.53622,-0.254 1.12889,-0.254 0.59266,0 1.03011,0.21166 0.43744,0.21167 0.889,0.57856 l -0.0565,-1.17122 v -2.63878 h 1.17123 V 360.5 h -0.95956 l -0.0988,-0.80433 h -0.0423 q -0.40922,0.39511 -0.94544,0.69144 -0.52212,0.28222 -1.12889,0.28222 z m 0.254,-0.97366 q 0.47977,0 0.90311,-0.22578 0.42333,-0.23989 0.84666,-0.71967 V 355.166 q -0.43744,-0.39511 -0.84666,-0.55033 -0.39511,-0.16934 -0.81845,-0.16934 -0.40922,0 -0.77611,0.19756 -0.35277,0.18344 -0.62089,0.53622 -0.26811,0.33867 -0.42333,0.81845 -0.15522,0.47977 -0.15522,1.07244 0,1.24178 0.49389,1.93322 0.49389,0.69145 1.397,0.69145 z"
         style="font-style:normal;font-variant:normal;font-weight:normal;font-stretch:normal;font-size:14.11111069px;line-height:1.25;font-family:'Source Sans Pro';-inkscape-font-specification:'Source Sans Pro';letter-spacing:0px;word-spacing:0px;fill:#143d63;fill-opacity:1;stroke:none;stroke-width:0.26458332"
         id="path5035" />
      <g
         aria-label="Pool &amp; Spa Service &amp; Maintenance"
         transform="scale(0.96319873,1.0382073)"
         style="font-style:normal;font-variant:normal;font-weight:normal;font-stretch:normal;font-size:8.84986496px;line-height:1.25;font-family:'Source Sans Pro';-inkscape-font-specification:'Source Sans Pro';letter-spacing:0px;word-spacing:0px;fill:#000000;fill-opacity:1;stroke:none;stroke-width:0.27655828"
         id="text4516">
        <path
           d="m 34.293772,354.73611 v -5.80551 h 1.654925 q 0.486742,0 0.884986,0.0885 0.407094,0.0885 0.690289,0.29205 0.283196,0.19469 0.442494,0.52214 0.159297,0.32744 0.159297,0.80534 0,0.46019 -0.159297,0.79648 -0.150448,0.3363 -0.433644,0.55755 -0.283195,0.22124 -0.681439,0.33629 -0.389394,0.1062 -0.867287,0.1062 h -0.955785 v 2.30096 z m 0.734539,-2.90275 h 0.867286 q 0.761089,0 1.123933,-0.2832 0.371695,-0.29204 0.371695,-0.91153 0,-0.62834 -0.389395,-0.86729 -0.380544,-0.2478 -1.141632,-0.2478 h -0.831887 z"
           style="font-size:8.84986496px;stroke-width:0.27655828"
           id="path4954" />
        <path
           d="m 40.700797,354.84231 q -0.398243,0 -0.761088,-0.15044 -0.353995,-0.15045 -0.62834,-0.43365 -0.274346,-0.29204 -0.442494,-0.70799 -0.159297,-0.42479 -0.159297,-0.95578 0,-0.53984 0.159297,-0.95579 0.168148,-0.42479 0.442494,-0.71684 0.274345,-0.29204 0.62834,-0.44249 0.362845,-0.15045 0.761088,-0.15045 0.398244,0 0.752239,0.15045 0.362844,0.15045 0.63719,0.44249 0.274346,0.29205 0.433644,0.71684 0.168147,0.41595 0.168147,0.95579 0,0.53099 -0.168147,0.95578 -0.159298,0.41595 -0.433644,0.70799 -0.274346,0.2832 -0.63719,0.43365 -0.353995,0.15044 -0.752239,0.15044 z m 0,-0.60179 q 0.274346,0 0.504443,-0.11505 0.230096,-0.12389 0.389394,-0.33629 0.168147,-0.22125 0.256646,-0.52214 0.0885,-0.3009 0.0885,-0.67259 0,-0.3717 -0.0885,-0.67259 -0.0885,-0.30975 -0.256646,-0.53099 -0.159298,-0.22125 -0.389394,-0.3363 -0.230097,-0.1239 -0.504443,-0.1239 -0.274345,0 -0.504442,0.1239 -0.230096,0.11505 -0.398244,0.3363 -0.159297,0.22124 -0.247796,0.53099 -0.0885,0.30089 -0.0885,0.67259 0,0.37169 0.0885,0.67259 0.0885,0.30089 0.247796,0.52214 0.168148,0.2124 0.398244,0.33629 0.230097,0.11505 0.504442,0.11505 z"
           style="font-size:8.84986496px;stroke-width:0.27655828"
           id="path4956" />
        <path
           d="m 45.505998,354.84231 q -0.398244,0 -0.761089,-0.15044 -0.353994,-0.15045 -0.62834,-0.43365 -0.274346,-0.29204 -0.442494,-0.70799 -0.159297,-0.42479 -0.159297,-0.95578 0,-0.53984 0.159297,-0.95579 0.168148,-0.42479 0.442494,-0.71684 0.274346,-0.29204 0.62834,-0.44249 0.362845,-0.15045 0.761089,-0.15045 0.398243,0 0.752238,0.15045 0.362845,0.15045 0.63719,0.44249 0.274346,0.29205 0.433644,0.71684 0.168147,0.41595 0.168147,0.95579 0,0.53099 -0.168147,0.95578 -0.159298,0.41595 -0.433644,0.70799 -0.274345,0.2832 -0.63719,0.43365 -0.353995,0.15044 -0.752238,0.15044 z m 0,-0.60179 q 0.274345,0 0.504442,-0.11505 0.230096,-0.12389 0.389394,-0.33629 0.168147,-0.22125 0.256646,-0.52214 0.0885,-0.3009 0.0885,-0.67259 0,-0.3717 -0.0885,-0.67259 -0.0885,-0.30975 -0.256646,-0.53099 -0.159298,-0.22125 -0.389394,-0.3363 -0.230097,-0.1239 -0.504442,-0.1239 -0.274346,0 -0.504443,0.1239 -0.230096,0.11505 -0.398244,0.3363 -0.159297,0.22124 -0.247796,0.53099 -0.0885,0.30089 -0.0885,0.67259 0,0.37169 0.0885,0.67259 0.0885,0.30089 0.247796,0.52214 0.168148,0.2124 0.398244,0.33629 0.230097,0.11505 0.504443,0.11505 z"
           style="font-size:8.84986496px;stroke-width:0.27655828"
           id="path4958" />
        <path
           d="m 49.408511,354.84231 q -0.415944,0 -0.592941,-0.24779 -0.176997,-0.2478 -0.176997,-0.72569 v -5.43382 h 0.725689 v 5.48692 q 0,0.17699 0.06195,0.24779 0.06195,0.0708 0.141598,0.0708 0.0354,0 0.06195,0 0.0354,0 0.09735,-0.0177 l 0.09735,0.54869 q -0.0708,0.0354 -0.168148,0.0531 -0.09735,0.0177 -0.247796,0.0177 z"
           style="font-size:8.84986496px;stroke-width:0.27655828"
           id="path4960" />
        <path
           d="m 54.260702,354.84231 q -0.398244,0 -0.725689,-0.11505 -0.318596,-0.12389 -0.557542,-0.33629 -0.230096,-0.2124 -0.362844,-0.50444 -0.123898,-0.3009 -0.123898,-0.65489 0,-0.29205 0.0885,-0.53099 0.09735,-0.23895 0.256646,-0.4425 0.159298,-0.20354 0.362845,-0.37169 0.212397,-0.177 0.433643,-0.32745 -0.176997,-0.36284 -0.283196,-0.69914 -0.09735,-0.34514 -0.09735,-0.66374 0,-0.29204 0.09735,-0.53984 0.09735,-0.24779 0.274346,-0.43364 0.176998,-0.18585 0.424794,-0.29205 0.247796,-0.1062 0.548691,-0.1062 0.539842,0 0.840738,0.3186 0.300895,0.31859 0.300895,0.83189 0,0.28319 -0.115048,0.52214 -0.115048,0.23895 -0.300896,0.45134 -0.185847,0.20355 -0.424793,0.3894 -0.230097,0.17699 -0.469043,0.35399 0.283196,0.45134 0.66374,0.86729 0.389394,0.41594 0.805338,0.76109 0.265496,-0.36285 0.469042,-0.78764 0.212397,-0.4248 0.345145,-0.92924 h 0.68144 q -0.176998,0.57524 -0.424794,1.09739 -0.247796,0.52214 -0.592941,0.98233 0.300896,0.20355 0.575242,0.34515 0.274345,0.14159 0.513292,0.21239 l -0.194697,0.60179 q -0.309746,-0.0885 -0.646041,-0.24779 -0.336294,-0.16815 -0.690289,-0.41595 -0.336295,0.3009 -0.752238,0.48675 -0.407094,0.17699 -0.920386,0.17699 z m -0.380545,-4.65503 q 0,0.23895 0.0708,0.4956 0.07965,0.25664 0.203547,0.52214 0.194697,-0.13275 0.371695,-0.2655 0.185847,-0.1416 0.318595,-0.28319 0.141597,-0.15045 0.221246,-0.30975 0.07965,-0.16815 0.07965,-0.36284 0,-0.25665 -0.132748,-0.4425 -0.123898,-0.19469 -0.415944,-0.19469 -0.327445,0 -0.522142,0.23894 -0.194697,0.23895 -0.194697,0.60179 z m 0.460193,4.07094 q 0.300896,0 0.575242,-0.1239 0.274345,-0.12389 0.530991,-0.34514 -0.424793,-0.3717 -0.823037,-0.80534 -0.389394,-0.44249 -0.699139,-0.92038 -0.309746,0.24779 -0.522142,0.52214 -0.203547,0.26549 -0.203547,0.60179 0,0.23894 0.0885,0.44249 0.0885,0.1947 0.238947,0.3363 0.159297,0.14159 0.362844,0.22124 0.212397,0.0708 0.451343,0.0708 z"
           style="font-size:8.84986496px;stroke-width:0.27655828"
           id="path4962" />
        <path
           d="m 62.037912,354.84231 q -0.610641,0 -1.132783,-0.23009 -0.522142,-0.2301 -0.902686,-0.62834 l 0.442493,-0.5133 q 0.309746,0.32745 0.725689,0.531 0.424794,0.19469 0.876137,0.19469 0.575241,0 0.893836,-0.25664 0.318595,-0.2655 0.318595,-0.69029 0,-0.22125 -0.07965,-0.3717 -0.0708,-0.15929 -0.203547,-0.26549 -0.123898,-0.11505 -0.300896,-0.20355 -0.176997,-0.0885 -0.380544,-0.18585 l -0.831887,-0.36284 q -0.203547,-0.0885 -0.415944,-0.2124 -0.212397,-0.1239 -0.380544,-0.30089 -0.168147,-0.177 -0.274346,-0.41595 -0.106198,-0.24779 -0.106198,-0.56639 0,-0.32744 0.132748,-0.61064 0.141598,-0.2832 0.380544,-0.48674 0.247796,-0.2124 0.575241,-0.32745 0.336295,-0.11505 0.734539,-0.11505 0.522142,0 0.964635,0.20355 0.442493,0.1947 0.752239,0.51329 l -0.398244,0.4779 q -0.265496,-0.25665 -0.592941,-0.39825 -0.318595,-0.15045 -0.725689,-0.15045 -0.486743,0 -0.787638,0.2301 -0.292046,0.22125 -0.292046,0.61949 0,0.2124 0.07965,0.36285 0.0885,0.14159 0.230097,0.25664 0.141598,0.1062 0.309745,0.1947 0.168147,0.0796 0.345145,0.15045 l 0.823037,0.35399 q 0.247796,0.1062 0.469043,0.2478 0.221247,0.13275 0.380544,0.31859 0.159298,0.177 0.247796,0.4248 0.09735,0.23894 0.09735,0.55754 0,0.34514 -0.141598,0.64604 -0.132748,0.30089 -0.389394,0.53099 -0.256646,0.22125 -0.619491,0.35399 -0.362844,0.1239 -0.823037,0.1239 z"
           style="font-size:8.84986496px;stroke-width:0.27655828"
           id="path4964" />
        <path
           d="m 65.075214,356.55034 v -6.11526 h 0.601791 l 0.06195,0.49559 h 0.02655 q 0.292045,-0.24779 0.63719,-0.42479 0.353995,-0.177 0.734539,-0.177 0.415944,0 0.734539,0.1593 0.318595,0.15045 0.530992,0.44249 0.212396,0.2832 0.318595,0.69029 0.115048,0.39825 0.115048,0.90269 0,0.54869 -0.150448,0.98233 -0.150447,0.4248 -0.407094,0.72569 -0.256646,0.3009 -0.59294,0.4602 -0.336295,0.15044 -0.70799,0.15044 -0.300895,0 -0.60179,-0.13275 -0.292046,-0.13274 -0.592941,-0.36284 l 0.0177,0.75224 v 1.45138 z m 1.778823,-2.31867 q 0.265496,0 0.486743,-0.11505 0.230096,-0.12389 0.389394,-0.33629 0.168147,-0.22125 0.256646,-0.53984 0.09735,-0.3186 0.09735,-0.71684 0,-0.354 -0.06195,-0.64604 -0.06195,-0.29205 -0.203546,-0.49559 -0.132748,-0.2124 -0.353995,-0.32745 -0.212397,-0.11505 -0.513292,-0.11505 -0.274346,0 -0.557542,0.15045 -0.274346,0.15045 -0.592941,0.43364 v 2.25672 q 0.292046,0.2478 0.566392,0.35399 0.274345,0.0974 0.486742,0.0974 z"
           style="font-size:8.84986496px;stroke-width:0.27655828"
           id="path4966" />
        <path
           d="m 70.854314,354.84231 q -0.539842,0 -0.902687,-0.31859 -0.353994,-0.3186 -0.353994,-0.90269 0,-0.70799 0.62834,-1.07968 0.628341,-0.38055 2.008919,-0.53099 0,-0.20355 -0.04425,-0.39825 -0.0354,-0.19469 -0.132748,-0.34514 -0.09735,-0.15045 -0.274346,-0.23895 -0.168147,-0.0974 -0.433643,-0.0974 -0.371694,0 -0.699139,0.1416 -0.327445,0.1416 -0.584091,0.3186 l -0.283196,-0.50445 q 0.300895,-0.19469 0.734539,-0.37169 0.433643,-0.18585 0.955785,-0.18585 0.787638,0 1.141633,0.48674 0.353994,0.4779 0.353994,1.28323 v 2.63726 h -0.60179 l -0.06195,-0.51329 h -0.02655 q -0.309745,0.25665 -0.66374,0.4425 -0.353995,0.17699 -0.761088,0.17699 z m 0.212396,-0.58409 q 0.309746,0 0.584091,-0.1416 0.274346,-0.15044 0.584091,-0.43364 v -1.19473 q -0.539841,0.0708 -0.911536,0.16815 -0.362844,0.0973 -0.592941,0.23009 -0.221246,0.13275 -0.327445,0.30975 -0.09735,0.16815 -0.09735,0.37169 0,0.3717 0.221247,0.53099 0.221246,0.1593 0.539841,0.1593 z"
           style="font-size:8.84986496px;stroke-width:0.27655828"
           id="path4968" />
        <path
           d="m 77.767164,354.84231 q -0.610641,0 -1.132783,-0.23009 -0.522142,-0.2301 -0.902686,-0.62834 l 0.442493,-0.5133 q 0.309745,0.32745 0.725689,0.531 0.424794,0.19469 0.876137,0.19469 0.575241,0 0.893836,-0.25664 0.318595,-0.2655 0.318595,-0.69029 0,-0.22125 -0.07965,-0.3717 -0.0708,-0.15929 -0.203546,-0.26549 -0.123899,-0.11505 -0.300896,-0.20355 -0.176997,-0.0885 -0.380544,-0.18585 l -0.831887,-0.36284 q -0.203547,-0.0885 -0.415944,-0.2124 -0.212397,-0.1239 -0.380544,-0.30089 -0.168148,-0.177 -0.274346,-0.41595 -0.106198,-0.24779 -0.106198,-0.56639 0,-0.32744 0.132748,-0.61064 0.141597,-0.2832 0.380544,-0.48674 0.247796,-0.2124 0.575241,-0.32745 0.336295,-0.11505 0.734539,-0.11505 0.522142,0 0.964635,0.20355 0.442493,0.1947 0.752239,0.51329 l -0.398244,0.4779 q -0.265496,-0.25665 -0.592941,-0.39825 -0.318595,-0.15045 -0.725689,-0.15045 -0.486743,0 -0.787638,0.2301 -0.292046,0.22125 -0.292046,0.61949 0,0.2124 0.07965,0.36285 0.0885,0.14159 0.230097,0.25664 0.141597,0.1062 0.309745,0.1947 0.168147,0.0796 0.345145,0.15045 l 0.823037,0.35399 q 0.247796,0.1062 0.469043,0.2478 0.221246,0.13275 0.380544,0.31859 0.159298,0.177 0.247796,0.4248 0.09735,0.23894 0.09735,0.55754 0,0.34514 -0.141598,0.64604 -0.132748,0.30089 -0.389394,0.53099 -0.256646,0.22125 -0.619491,0.35399 -0.362844,0.1239 -0.823037,0.1239 z"
           style="font-size:8.84986496px;stroke-width:0.27655828"
           id="path4970" />
        <path
           d="m 82.54789,354.84231 q -0.433644,0 -0.814188,-0.15044 -0.371694,-0.1593 -0.65489,-0.4425 -0.274346,-0.29204 -0.433643,-0.70799 -0.159298,-0.41594 -0.159298,-0.94693 0,-0.53099 0.159298,-0.94694 0.168147,-0.42479 0.433643,-0.71684 0.274346,-0.29204 0.619491,-0.44249 0.345144,-0.1593 0.716839,-0.1593 0.407093,0 0.725689,0.1416 0.327445,0.1416 0.539841,0.40709 0.221247,0.2655 0.336295,0.63719 0.115048,0.3717 0.115048,0.83189 0,0.11505 -0.0088,0.2301 0,0.1062 -0.0177,0.18584 H 81.20271 q 0.04425,0.69029 0.424794,1.09739 0.389394,0.39824 1.008884,0.39824 0.309746,0 0.566392,-0.0885 0.265496,-0.0974 0.504442,-0.24779 l 0.256646,0.47789 q -0.283196,0.177 -0.62834,0.30974 -0.345145,0.13275 -0.787638,0.13275 z m -1.35403,-2.60186 h 2.300965 q 0,-0.65489 -0.283195,-0.99118 -0.274346,-0.34515 -0.778789,-0.34515 -0.230096,0 -0.442493,0.0885 -0.203547,0.0885 -0.371694,0.2655 -0.168148,0.16815 -0.283196,0.41594 -0.106198,0.2478 -0.141598,0.56639 z"
           style="font-size:8.84986496px;stroke-width:0.27655828"
           id="path4972" />
        <path
           d="m 85.194828,354.73611 v -4.30103 h 0.601791 l 0.06195,0.77879 h 0.02655 q 0.221247,-0.4071 0.530992,-0.64604 0.318596,-0.23895 0.69029,-0.23895 0.256646,0 0.460193,0.0885 l -0.141598,0.63719 q -0.106198,-0.0354 -0.194697,-0.0531 -0.0885,-0.0177 -0.221247,-0.0177 -0.274345,0 -0.575241,0.22125 -0.292045,0.22125 -0.513292,0.76994 v 2.76115 z"
           style="font-size:8.84986496px;stroke-width:0.27655828"
           id="path4974" />
        <path
           d="m 89.425478,354.73611 -1.548726,-4.30103 h 0.752238 l 0.814188,2.44256 q 0.09735,0.3186 0.194697,0.63719 0.106198,0.3186 0.203547,0.62834 h 0.0354 q 0.09735,-0.30974 0.194697,-0.62834 0.09735,-0.31859 0.194698,-0.63719 l 0.814187,-2.44256 h 0.716839 l -1.522177,4.30103 z"
           style="font-size:8.84986496px;stroke-width:0.27655828"
           id="path4976" />
        <path
           d="m 92.627331,354.73611 v -4.30103 h 0.725689 v 4.30103 z m 0.371694,-5.18602 q -0.212397,0 -0.362844,-0.13274 -0.141598,-0.13275 -0.141598,-0.3363 0,-0.2124 0.141598,-0.33629 0.150447,-0.13275 0.362844,-0.13275 0.212397,0 0.353995,0.13275 0.150447,0.12389 0.150447,0.33629 0,0.20355 -0.150447,0.3363 -0.141598,0.13274 -0.353995,0.13274 z"
           style="font-size:8.84986496px;stroke-width:0.27655828"
           id="path4978" />
        <path
           d="m 96.504403,354.84231 q -0.424793,0 -0.796488,-0.15044 -0.371694,-0.15045 -0.64604,-0.43365 -0.265496,-0.29204 -0.424793,-0.70799 -0.150448,-0.42479 -0.150448,-0.95578 0,-0.53984 0.168147,-0.95579 0.168148,-0.42479 0.451344,-0.71684 0.283195,-0.29204 0.65489,-0.44249 0.380544,-0.15045 0.796487,-0.15045 0.424794,0 0.725689,0.15045 0.300896,0.15045 0.530992,0.35399 l -0.371694,0.4779 q -0.185847,-0.16815 -0.398244,-0.27435 -0.203547,-0.1062 -0.460193,-0.1062 -0.292046,0 -0.539842,0.1239 -0.247796,0.11505 -0.424793,0.3363 -0.176998,0.22124 -0.283196,0.53099 -0.09735,0.30089 -0.09735,0.67259 0,0.37169 0.09735,0.67259 0.09735,0.30089 0.265496,0.52214 0.176997,0.2124 0.424794,0.33629 0.247796,0.11505 0.539841,0.11505 0.300896,0 0.548692,-0.1239 0.256646,-0.13274 0.460193,-0.30974 l 0.318595,0.48674 q -0.292045,0.25665 -0.64604,0.4071 -0.353995,0.14159 -0.743389,0.14159 z"
           style="font-size:8.84986496px;stroke-width:0.27655828"
           id="path4980" />
        <path
           d="m 100.3859,354.84231 q -0.433645,0 -0.814189,-0.15044 -0.371694,-0.1593 -0.65489,-0.4425 -0.274346,-0.29204 -0.433643,-0.70799 -0.159298,-0.41594 -0.159298,-0.94693 0,-0.53099 0.159298,-0.94694 0.168147,-0.42479 0.433643,-0.71684 0.274346,-0.29204 0.61949,-0.44249 0.345145,-0.1593 0.716839,-0.1593 0.40709,0 0.72569,0.1416 0.32744,0.1416 0.53984,0.40709 0.22125,0.2655 0.3363,0.63719 0.11504,0.3717 0.11504,0.83189 0,0.11505 -0.009,0.2301 0,0.1062 -0.0177,0.18584 h -2.902751 q 0.04425,0.69029 0.424794,1.09739 0.389394,0.39824 1.008887,0.39824 0.30974,0 0.56639,-0.0885 0.26549,-0.0974 0.50444,-0.24779 l 0.25665,0.47789 q -0.2832,0.177 -0.62834,0.30974 -0.34515,0.13275 -0.78764,0.13275 z m -1.354031,-2.60186 h 2.300961 q 0,-0.65489 -0.28319,-0.99118 -0.27435,-0.34515 -0.77879,-0.34515 -0.2301,0 -0.442493,0.0885 -0.203547,0.0885 -0.371694,0.2655 -0.168148,0.16815 -0.283196,0.41594 -0.106198,0.2478 -0.141598,0.56639 z"
           style="font-size:8.84986496px;stroke-width:0.27655828"
           id="path4982" />
        <path
           d="m 106.39065,354.84231 q -0.39825,0 -0.72569,-0.11505 -0.3186,-0.12389 -0.55754,-0.33629 -0.2301,-0.2124 -0.36285,-0.50444 -0.1239,-0.3009 -0.1239,-0.65489 0,-0.29205 0.0885,-0.53099 0.0974,-0.23895 0.25665,-0.4425 0.1593,-0.20354 0.36284,-0.37169 0.2124,-0.177 0.43365,-0.32745 -0.177,-0.36284 -0.2832,-0.69914 -0.0974,-0.34514 -0.0974,-0.66374 0,-0.29204 0.0974,-0.53984 0.0973,-0.24779 0.27435,-0.43364 0.17699,-0.18585 0.42479,-0.29205 0.2478,-0.1062 0.54869,-0.1062 0.53984,0 0.84074,0.3186 0.30089,0.31859 0.30089,0.83189 0,0.28319 -0.11504,0.52214 -0.11505,0.23895 -0.3009,0.45134 -0.18585,0.20355 -0.42479,0.3894 -0.2301,0.17699 -0.46905,0.35399 0.2832,0.45134 0.66374,0.86729 0.3894,0.41594 0.80534,0.76109 0.2655,-0.36285 0.46905,-0.78764 0.21239,-0.4248 0.34514,-0.92924 h 0.68144 q -0.177,0.57524 -0.42479,1.09739 -0.2478,0.52214 -0.59294,0.98233 0.30089,0.20355 0.57524,0.34515 0.27434,0.14159 0.51329,0.21239 l -0.1947,0.60179 q -0.30974,-0.0885 -0.64604,-0.24779 -0.33629,-0.16815 -0.69029,-0.41595 -0.33629,0.3009 -0.75224,0.48675 -0.40709,0.17699 -0.92038,0.17699 z m -0.38055,-4.65503 q 0,0.23895 0.0708,0.4956 0.0797,0.25664 0.20355,0.52214 0.1947,-0.13275 0.37169,-0.2655 0.18585,-0.1416 0.3186,-0.28319 0.1416,-0.15045 0.22125,-0.30975 0.0796,-0.16815 0.0796,-0.36284 0,-0.25665 -0.13274,-0.4425 -0.1239,-0.19469 -0.41595,-0.19469 -0.32744,0 -0.52214,0.23894 -0.1947,0.23895 -0.1947,0.60179 z m 0.4602,4.07094 q 0.30089,0 0.57524,-0.1239 0.27434,-0.12389 0.53099,-0.34514 -0.42479,-0.3717 -0.82304,-0.80534 -0.38939,-0.44249 -0.69914,-0.92038 -0.30974,0.24779 -0.52214,0.52214 -0.20355,0.26549 -0.20355,0.60179 0,0.23894 0.0885,0.44249 0.0885,0.1947 0.23895,0.3363 0.1593,0.14159 0.36284,0.22124 0.2124,0.0708 0.45135,0.0708 z"
           style="font-size:8.84986496px;stroke-width:0.27655828"
           id="path4984" />
        <path
           d="m 112.55718,354.73611 v -5.80551 h 0.88498 l 1.11509,3.09746 q 0.10619,0.30089 0.20354,0.61064 0.1062,0.30089 0.2124,0.60179 h 0.0354 q 0.1062,-0.3009 0.1947,-0.60179 0.0973,-0.30975 0.20354,-0.61064 l 1.09739,-3.09746 h 0.89383 v 5.80551 h -0.69029 v -3.1948 q 0,-0.38939 0.0354,-0.85843 0.0354,-0.46905 0.0619,-0.85844 h -0.0354 l -0.46019,1.31863 -1.09738,3.00895 h -0.48675 l -1.09738,-3.00895 -0.46019,-1.31863 h -0.0354 q 0.0266,0.38939 0.0531,0.85844 0.0354,0.46904 0.0354,0.85843 v 3.1948 z"
           style="font-size:8.84986496px;stroke-width:0.27655828"
           id="path4986" />
        <path
           d="m 119.90755,354.84231 q -0.53984,0 -0.90269,-0.31859 -0.35399,-0.3186 -0.35399,-0.90269 0,-0.70799 0.62834,-1.07968 0.62834,-0.38055 2.00892,-0.53099 0,-0.20355 -0.0442,-0.39825 -0.0354,-0.19469 -0.13275,-0.34514 -0.0974,-0.15045 -0.27435,-0.23895 -0.16814,-0.0974 -0.43364,-0.0974 -0.37169,0 -0.69914,0.1416 -0.32744,0.1416 -0.58409,0.3186 l -0.2832,-0.50445 q 0.3009,-0.19469 0.73454,-0.37169 0.43365,-0.18585 0.95579,-0.18585 0.78764,0 1.14163,0.48674 0.354,0.4779 0.354,1.28323 v 2.63726 h -0.6018 l -0.0619,-0.51329 h -0.0266 q -0.30975,0.25665 -0.66374,0.4425 -0.354,0.17699 -0.76109,0.17699 z m 0.21239,-0.58409 q 0.30975,0 0.5841,-0.1416 0.27434,-0.15044 0.58409,-0.43364 v -1.19473 q -0.53985,0.0708 -0.91154,0.16815 -0.36284,0.0973 -0.59294,0.23009 -0.22125,0.13275 -0.32745,0.30975 -0.0973,0.16815 -0.0973,0.37169 0,0.3717 0.22124,0.53099 0.22125,0.1593 0.53984,0.1593 z"
           style="font-size:8.84986496px;stroke-width:0.27655828"
           id="path4988" />
        <path
           d="m 123.37587,354.73611 v -4.30103 h 0.72568 v 4.30103 z m 0.37169,-5.18602 q -0.2124,0 -0.36284,-0.13274 -0.1416,-0.13275 -0.1416,-0.3363 0,-0.2124 0.1416,-0.33629 0.15044,-0.13275 0.36284,-0.13275 0.2124,0 0.35399,0.13275 0.15045,0.12389 0.15045,0.33629 0,0.20355 -0.15045,0.3363 -0.14159,0.13274 -0.35399,0.13274 z"
           style="font-size:8.84986496px;stroke-width:0.27655828"
           id="path4990" />
        <path
           d="m 125.55376,354.73611 v -4.30103 h 0.60179 l 0.0619,0.61949 h 0.0266 q 0.30975,-0.30974 0.64604,-0.51329 0.34514,-0.2124 0.79649,-0.2124 0.68144,0 0.99118,0.4248 0.3186,0.42479 0.3186,1.25668 v 2.72575 h -0.72569 v -2.62841 q 0,-0.61064 -0.1947,-0.87613 -0.19469,-0.27435 -0.61949,-0.27435 -0.33629,0 -0.59294,0.16815 -0.25665,0.16815 -0.58409,0.49559 v 3.11515 z"
           style="font-size:8.84986496px;stroke-width:0.27655828"
           id="path4992" />
        <path
           d="m 131.74756,354.84231 q -0.34515,0 -0.58409,-0.1062 -0.2301,-0.10619 -0.38055,-0.29204 -0.1416,-0.18585 -0.20354,-0.45134 -0.0619,-0.2655 -0.0619,-0.5841 v -2.38061 h -0.63719 v -0.54869 l 0.67259,-0.0442 0.0885,-1.20358 h 0.61064 v 1.20358 h 1.15934 v 0.59294 h -1.15934 v 2.38946 q 0,0.39825 0.1416,0.6195 0.15045,0.21239 0.52214,0.21239 0.11505,0 0.2478,-0.0354 0.13275,-0.0354 0.23895,-0.0797 l 0.1416,0.5487 q -0.177,0.0619 -0.3894,0.10619 -0.20355,0.0531 -0.40709,0.0531 z"
           style="font-size:8.84986496px;stroke-width:0.27655828"
           id="path4994" />
        <path
           d="m 135.00624,354.84231 q -0.43364,0 -0.81418,-0.15044 -0.3717,-0.1593 -0.65489,-0.4425 -0.27435,-0.29204 -0.43365,-0.70799 -0.15929,-0.41594 -0.15929,-0.94693 0,-0.53099 0.15929,-0.94694 0.16815,-0.42479 0.43365,-0.71684 0.27434,-0.29204 0.61949,-0.44249 0.34514,-0.1593 0.71684,-0.1593 0.40709,0 0.72569,0.1416 0.32744,0.1416 0.53984,0.40709 0.22124,0.2655 0.33629,0.63719 0.11505,0.3717 0.11505,0.83189 0,0.11505 -0.009,0.2301 0,0.1062 -0.0177,0.18584 h -2.90275 q 0.0442,0.69029 0.42479,1.09739 0.38939,0.39824 1.00888,0.39824 0.30975,0 0.56639,-0.0885 0.2655,-0.0974 0.50445,-0.24779 l 0.25664,0.47789 q -0.28319,0.177 -0.62834,0.30974 -0.34514,0.13275 -0.78764,0.13275 z m -1.35402,-2.60186 h 2.30096 q 0,-0.65489 -0.2832,-0.99118 -0.27434,-0.34515 -0.77878,-0.34515 -0.2301,0 -0.4425,0.0885 -0.20354,0.0885 -0.37169,0.2655 -0.16815,0.16815 -0.2832,0.41594 -0.1062,0.2478 -0.14159,0.56639 z"
           style="font-size:8.84986496px;stroke-width:0.27655828"
           id="path4996" />
        <path
           d="m 137.65319,354.73611 v -4.30103 h 0.60179 l 0.062,0.61949 h 0.0265 q 0.30974,-0.30974 0.64604,-0.51329 0.34514,-0.2124 0.79648,-0.2124 0.68144,0 0.99119,0.4248 0.31859,0.42479 0.31859,1.25668 v 2.72575 h -0.72568 v -2.62841 q 0,-0.61064 -0.1947,-0.87613 -0.1947,-0.27435 -0.61949,-0.27435 -0.3363,0 -0.59294,0.16815 -0.25665,0.16815 -0.58409,0.49559 v 3.11515 z"
           style="font-size:8.84986496px;stroke-width:0.27655828"
           id="path4998" />
        <path
           d="m 143.48414,354.84231 q -0.53984,0 -0.90269,-0.31859 -0.35399,-0.3186 -0.35399,-0.90269 0,-0.70799 0.62834,-1.07968 0.62834,-0.38055 2.00892,-0.53099 0,-0.20355 -0.0443,-0.39825 -0.0354,-0.19469 -0.13275,-0.34514 -0.0974,-0.15045 -0.27435,-0.23895 -0.16814,-0.0974 -0.43364,-0.0974 -0.37169,0 -0.69914,0.1416 -0.32744,0.1416 -0.58409,0.3186 l -0.28319,-0.50445 q 0.30089,-0.19469 0.73453,-0.37169 0.43365,-0.18585 0.95579,-0.18585 0.78764,0 1.14163,0.48674 0.354,0.4779 0.354,1.28323 v 2.63726 h -0.60179 l -0.0619,-0.51329 h -0.0265 q -0.30975,0.25665 -0.66374,0.4425 -0.354,0.17699 -0.76109,0.17699 z m 0.2124,-0.58409 q 0.30974,0 0.58409,-0.1416 0.27434,-0.15044 0.58409,-0.43364 v -1.19473 q -0.53984,0.0708 -0.91154,0.16815 -0.36284,0.0973 -0.59294,0.23009 -0.22125,0.13275 -0.32744,0.30975 -0.0974,0.16815 -0.0974,0.37169 0,0.3717 0.22124,0.53099 0.22125,0.1593 0.53985,0.1593 z"
           style="font-size:8.84986496px;stroke-width:0.27655828"
           id="path5000" />
        <path
           d="m 146.95246,354.73611 v -4.30103 h 0.60179 l 0.0619,0.61949 h 0.0266 q 0.30974,-0.30974 0.64604,-0.51329 0.34514,-0.2124 0.79648,-0.2124 0.68144,0 0.99119,0.4248 0.31859,0.42479 0.31859,1.25668 v 2.72575 h -0.72568 v -2.62841 q 0,-0.61064 -0.1947,-0.87613 -0.1947,-0.27435 -0.61949,-0.27435 -0.3363,0 -0.59294,0.16815 -0.25665,0.16815 -0.58409,0.49559 v 3.11515 z"
           style="font-size:8.84986496px;stroke-width:0.27655828"
           id="path5002" />
        <path
           d="m 153.4914,354.84231 q -0.42479,0 -0.79649,-0.15044 -0.37169,-0.15045 -0.64604,-0.43365 -0.26549,-0.29204 -0.42479,-0.70799 -0.15045,-0.42479 -0.15045,-0.95578 0,-0.53984 0.16815,-0.95579 0.16814,-0.42479 0.45134,-0.71684 0.2832,-0.29204 0.65489,-0.44249 0.38054,-0.15045 0.79649,-0.15045 0.42479,0 0.72569,0.15045 0.30089,0.15045 0.53099,0.35399 l -0.3717,0.4779 q -0.18584,-0.16815 -0.39824,-0.27435 -0.20355,-0.1062 -0.46019,-0.1062 -0.29205,0 -0.53984,0.1239 -0.2478,0.11505 -0.4248,0.3363 -0.17699,0.22124 -0.28319,0.53099 -0.0974,0.30089 -0.0974,0.67259 0,0.37169 0.0974,0.67259 0.0974,0.30089 0.26549,0.52214 0.177,0.2124 0.4248,0.33629 0.24779,0.11505 0.53984,0.11505 0.30089,0 0.54869,-0.1239 0.25665,-0.13274 0.46019,-0.30974 l 0.3186,0.48674 q -0.29205,0.25665 -0.64604,0.4071 -0.354,0.14159 -0.74339,0.14159 z"
           style="font-size:8.84986496px;stroke-width:0.27655828"
           id="path5004" />
        <path
           d="m 157.3729,354.84231 q -0.43365,0 -0.81419,-0.15044 -0.37169,-0.1593 -0.65489,-0.4425 -0.27435,-0.29204 -0.43364,-0.70799 -0.1593,-0.41594 -0.1593,-0.94693 0,-0.53099 0.1593,-0.94694 0.16814,-0.42479 0.43364,-0.71684 0.27435,-0.29204 0.61949,-0.44249 0.34515,-0.1593 0.71684,-0.1593 0.40709,0 0.72569,0.1416 0.32744,0.1416 0.53984,0.40709 0.22125,0.2655 0.3363,0.63719 0.11504,0.3717 0.11504,0.83189 0,0.11505 -0.009,0.2301 0,0.1062 -0.0177,0.18584 h -2.90275 q 0.0443,0.69029 0.42479,1.09739 0.3894,0.39824 1.00889,0.39824 0.30974,0 0.56639,-0.0885 0.26549,-0.0974 0.50444,-0.24779 l 0.25665,0.47789 q -0.2832,0.177 -0.62834,0.30974 -0.34515,0.13275 -0.78764,0.13275 z m -1.35403,-2.60186 h 2.30096 q 0,-0.65489 -0.28319,-0.99118 -0.27435,-0.34515 -0.77879,-0.34515 -0.2301,0 -0.44249,0.0885 -0.20355,0.0885 -0.3717,0.2655 -0.16815,0.16815 -0.28319,0.41594 -0.1062,0.2478 -0.1416,0.56639 z"
           style="font-size:8.84986496px;stroke-width:0.27655828"
           id="path5006" />
      </g>
      <path
         style="fill:#143d63;fill-opacity:1;stroke:#000000;stroke-width:0.26458332px;stroke-linecap:butt;stroke-linejoin:miter;stroke-opacity:1"
         d="m 28.631447,365.82664 c -0.472719,0.035 -1.418303,0.10492 -3.104429,-0.33602 -1.686125,-0.44093 -4.112698,-1.39279 -5.624327,-2.08924 -1.511629,-0.69644 -2.108178,-1.13743 -2.822896,-1.60068 -0.714718,-0.46325 -1.547642,-0.94877 -2.34228,-1.46735 -0.794638,-0.51859 -1.552846,-1.07161 -2.237365,-1.48965 -0.68452,-0.41803 -1.42077,-0.75948 -2.024447,-0.8745 -0.6036767,-0.11503 -1.5981688,-0.11503 -2.3029957,0.11978 -0.7048269,0.23481 -1.1171518,0.64714 -1.558124,1.08811 -0.289542,0.28506 -0.5788163,0.56986 -0.8327747,0.95513 -0.2539584,0.38526 -0.4722035,0.87078 -0.7683727,1.38971 -0.2961692,0.51893 -0.6700945,1.07093 -1.0779346,1.78851 -0.4078401,0.71758 -0.8485259,1.59895 -1.5099804,2.70141 -0.6614545,1.10247 -1.54311366,2.42496 -2.20473657,3.30718 -0.66162291,0.88223 -1.10246456,1.32307 -1.02899786,1.24957 0.0734667,-0.0735 0.66138013,-0.66148 0.73476386,-0.73489 0.07338371986,-0.0734 -0.36742245,0.36739 0.19182207,0.0209 0.55924451,-0.34653 2.0843641,-1.45566 3.4492088,-2.57966 1.3648447,-1.124 2.0018379,-1.76099 3.0104066,-2.52782 1.0085686,-0.76683 1.6763367,-1.10243 2.2459457,-1.35295 0.569609,-0.25052 0.8891292,-0.33968 1.2017605,-0.41599 0.312631,-0.0763 0.618366,-0.13978 0.937773,-0.18607 0.319408,-0.0463 0.652496,-0.0754 0.959191,-0.0813 0.306696,-0.006 0.587027,0.0115 0.910654,0.0497 0.323627,0.0382 0.690579,0.0973 1.068939,0.17287 0.37836,0.0756 0.76814,0.16773 1.613312,0.35291 0.845172,0.18517 2.14572,0.46339 2.90593,0.65749 0.76021,0.1941 1.128326,0.37813 1.93683,0.67212 0.808503,0.29399 2.131411,0.73496 3.307324,1.10243 1.175912,0.36747 2.204781,0.66145 3.086801,0.66136 0.88202,-9e-5 1.617028,-0.29406 1.984374,-0.44099 0.367345,-0.14692 0.367345,-0.14692 0.367345,-0.14692 0,0 0,-4e-5 -0.47272,0.0349 z"
         id="path4532" />
      <path
         style="fill:#143d63;fill-opacity:1;stroke:#000000;stroke-width:0.26458332px;stroke-linecap:butt;stroke-linejoin:miter;stroke-opacity:1"
         d="m 2.1938734,369.04316 c 0.8709567,-0.71726 2.6125614,-2.15153 3.7149985,-3.03347 1.1024372,-0.88193 1.5656822,-1.21154 2.4587709,-1.59678 0.8930887,-0.38523 2.2160032,-0.8262 3.9798402,-0.82613 1.763838,7e-5 3.96869,0.44104 5.76373,0.89092 1.79504,0.44987 3.181596,0.90907 4.305665,1.23846 1.124069,0.32939 1.988218,0.52984 1.736573,0.52094 -0.251645,-0.009 -1.550025,-0.21612 -3.171395,-0.46879 -1.62137,-0.25268 -3.253858,-0.50219 -4.79724,-0.64474 -1.543382,-0.14254 -2.910844,-0.16481 -4.202571,-0.078 -1.291727,0.0868 -2.5077579,0.2828 -4.3340361,1.07335 -1.8262782,0.79055 -4.2628193,2.17581 -5.4187499,2.88193 -1.1559306,0.70612 -1.0311518,0.73288 -0.968847,0.74625 0.062305,0.0134 0.062305,0.0133 0.9332614,-0.70396 z"
         id="path4536" />
      <path
         style="fill:#143d63;fill-opacity:1;stroke:#000000;stroke-width:0.26458332px;stroke-linecap:butt;stroke-linejoin:miter;stroke-opacity:1"
         d="m 6.6624782,358.03641 c 0.3148876,-0.25816 0.8119592,-0.60968 1.4219341,-0.78361 0.6099748,-0.17393 1.3942594,-0.21388 2.0936867,-0.1463 0.699428,0.0676 1.314102,0.24264 1.851704,0.50081 0.537601,0.25817 0.998279,0.59949 1.405843,0.87498 0.407563,0.27548 0.762074,0.48519 1.062218,0.66966 0.300144,0.18447 0.545838,0.34365 0.976607,0.62973 0.43077,0.28609 1.045318,0.69821 1.45147,0.97129 0.406152,0.27308 0.603653,0.40693 0.84618,0.57252 0.242528,0.16559 0.529715,0.36267 0.54756,0.28805 0.01784,-0.0746 -0.233652,-0.42063 -0.443511,-0.67028 -0.209859,-0.24965 -0.377891,-0.40267 -1.290257,-1.23332 -0.912366,-0.83065 -2.568745,-2.33864 -3.742725,-3.27099 -1.173981,-0.93234 -1.864854,-1.28858 -2.37682,-1.47221 -0.511965,-0.18363 -0.8438673,-0.19407 -1.2601303,-0.16264 -0.416263,0.0314 -0.9170053,0.10474 -1.4562402,0.49141 -0.5392349,0.38668 -1.1904969,1.17598 -1.5957677,1.8396 -0.4052708,0.66362 -0.8829715,1.78209 -1.1022435,2.32685 -0.219272,0.54476 -0.3158649,0.80605 -0.3425552,0.85337 -0.02669,0.0473 0.026915,-0.21601 0.1616174,-0.41478 0.1347025,-0.19876 0.4822794,-0.58321 0.8181433,-0.93571 0.335864,-0.3525 0.6583987,-0.67027 0.9732864,-0.92843 z"
         id="path4550" />
      <path
         style="fill:#143d63;fill-opacity:1;stroke:#000000;stroke-width:0.26458332px;stroke-linecap:butt;stroke-linejoin:miter;stroke-opacity:1"
         d="m 3.5387981,357.68294 c 0.1144451,-0.19745 0.3432893,-0.59227 0.6102808,-0.99328 0.2669915,-0.40101 0.5725189,-0.8089 1.0153518,-1.27137 0.4428329,-0.46248 1.0217586,-0.97846 1.7159002,-1.34159 0.6941416,-0.36313 1.5018435,-0.57254 2.1378871,-0.66697 0.6360435,-0.0944 1.10064,-0.074 1.640319,-0.0227 0.539678,0.0513 1.153605,0.1333 1.830274,0.3141 0.676669,0.1808 1.414281,0.4599 2.121238,0.81573 0.706958,0.35584 1.382865,0.78824 1.941269,1.2249 0.558404,0.43666 0.999322,0.87758 1.572645,1.53911 0.573323,0.66152 1.27881,1.54338 1.719764,2.11662 0.440954,0.57323 0.617341,0.83781 0.524071,0.59702 -0.09327,-0.24079 -0.45631,-0.98715 -0.764867,-1.60426 -0.308557,-0.61711 -0.563092,-1.1059 -0.822628,-1.57072 -0.259536,-0.46482 -0.524093,-0.90575 -0.87715,-1.39352 -0.353057,-0.48777 -0.794523,-1.02228 -1.378975,-1.60089 -0.584452,-0.57861 -1.311552,-1.20098 -2.181381,-1.66575 -0.869829,-0.46477 -1.882416,-0.77186 -2.918561,-0.92644 -1.036146,-0.15457 -2.0959421,-0.15657 -3.0746625,0.0274 -0.9787204,0.18398 -1.8764095,0.55407 -2.7623406,1.31388 -0.885931,0.75981 -1.7599975,1.90949 -2.3782004,2.97254 -0.6182029,1.06305 -0.9803618,2.0393 -1.2080205,2.93875 -0.2276586,0.89946 -0.3204335,1.7203 -0.3729583,2.37492 -0.052525,0.65462 -0.064486,1.13992 -0.07708,1.524 -0.012594,0.38408 -0.025845,0.66759 -0.00607,0.72052 0.01977,0.0529 0.072546,-0.12417 0.2378714,-0.65558 0.1653253,-0.5314 0.417411,-1.3349 0.7371858,-2.23233 0.3197749,-0.89743 0.5977726,-1.58173 0.7510846,-1.9591 0.153312,-0.37738 0.1533119,-0.37758 0.2677571,-0.57503 z"
         id="path4554" />
    </g>
  </g>
</svg>
