<?xml version="1.0" encoding="UTF-8" standalone="no"?>
<svg
   xmlns:osb="http://www.openswatchbook.org/uri/2009/osb"
   xmlns:dc="http://purl.org/dc/elements/1.1/"
   xmlns:cc="http://creativecommons.org/ns#"
   xmlns:rdf="http://www.w3.org/1999/02/22-rdf-syntax-ns#"
   xmlns:svg="http://www.w3.org/2000/svg"
   xmlns="http://www.w3.org/2000/svg"
   id="svg9551"
   version="1.1"
   viewBox="0 0 157.39955 22.708149"
   height="0.89402163in"
   width="6.1968327in">
  <defs
     id="defs9545">
    <linearGradient
       osb:paint="solid"
       id="linearGradient10334">
      <stop
         id="stop10332"
         offset="0"
         style="stop-color:#133a5e;stop-opacity:1;" />
    </linearGradient>
  </defs>
  <metadata
     id="metadata9548">
    <rdf:RDF>
      <cc:Work
         rdf:about="">
        <dc:format>image/svg+xml</dc:format>
        <dc:type
           rdf:resource="http://purl.org/dc/dcmitype/StillImage" />
        <dc:title></dc:title>
      </cc:Work>
    </rdf:RDF>
  </metadata>
  <g
     transform="translate(-93.43432,-163.09586)"
     id="layer1">
    <flowRoot
       transform="matrix(0.26458333,0,0,0.26458333,0,87)"
       style="font-style:normal;font-variant:normal;font-weight:normal;font-stretch:normal;font-size:32px;line-height:1.25;font-family:'Source Sans Pro';-inkscape-font-specification:'Source Sans Pro';letter-spacing:0px;word-spacing:0px;fill:#000000;fill-opacity:1;stroke:none"
       id="flowRoot9555"
       xml:space="preserve"><flowRegion
         id="flowRegion9557"><rect
           y="307.70081"
           x="475"
           height="96"
           width="556"
           id="rect9559" /></flowRegion><flowPara
         id="flowPara9561"></flowPara></flowRoot>    <g
       id="g10390">
      <g
         id="g10451">
        <g
           id="flowRoot9575"
           style="font-style:normal;font-variant:normal;font-weight:normal;font-stretch:normal;font-size:32px;line-height:1.25;font-family:'Source Sans Pro';-inkscape-font-specification:'Source Sans Pro';letter-spacing:0px;word-spacing:0px;fill:#133a5e;fill-opacity:1;stroke:none"
           transform="matrix(0.26787261,0,0,0.26458333,-3.0506994,84.928661)"
           aria-label="Pool &amp; Spa Service &amp; Maintenance" />
        <g
           aria-label="Beemer Pools Ltd"
           style="font-style:normal;font-variant:normal;font-weight:normal;font-stretch:normal;font-size:8.46666622px;line-height:1.25;font-family:'Source Sans Pro';-inkscape-font-specification:'Source Sans Pro';letter-spacing:0px;word-spacing:0px;fill:#133a5e;fill-opacity:1;stroke:none;stroke-width:0.26458332"
           id="text9565"
           transform="translate(0,-1.3125e-6)">
          <path
             d="m 131.318,176.61459 v -8.3312 h 2.4765 q 0.635,0 1.1557,0.1143 0.5334,0.1143 0.9017,0.3556 0.381,0.2413 0.5842,0.635 0.2159,0.381 0.2159,0.9271 0,0.6223 -0.3175,1.1303 -0.3048,0.4953 -0.9017,0.6858 v 0.0508 q 0.762,0.1397 1.2319,0.635 0.4699,0.4953 0.4699,1.3589 0,0.6096 -0.2286,1.0668 -0.2286,0.4572 -0.6477,0.762 -0.4191,0.3048 -1.0033,0.4572 -0.5842,0.1524 -1.2827,0.1524 z m 1.0541,-4.7879 h 1.2319 q 1.0668,0 1.5367,-0.3683 0.4699,-0.3683 0.4699,-1.0033 0,-0.7239 -0.4953,-1.0287 -0.4826,-0.3048 -1.4605,-0.3048 h -1.2827 z m 0,3.9497 h 1.4478 q 1.0795,0 1.6764,-0.3937 0.5969,-0.4064 0.5969,-1.2446 0,-0.7747 -0.5842,-1.1303 -0.5842,-0.3683 -1.6891,-0.3683 h -1.4478 z"
             style="font-size:12.69999981px;fill:#133a5e;fill-opacity:1;stroke-width:0.26458332"
             id="path9638" />
          <path
             d="m 141.18451,176.76699 q -0.6223,0 -1.1684,-0.2159 -0.5334,-0.2286 -0.9398,-0.635 -0.3937,-0.4191 -0.6223,-1.016 -0.2286,-0.5969 -0.2286,-1.3589 0,-0.762 0.2286,-1.3589 0.2413,-0.6096 0.6223,-1.0287 0.3937,-0.4191 0.889,-0.635 0.4953,-0.2286 1.0287,-0.2286 0.5842,0 1.0414,0.2032 0.4699,0.2032 0.7747,0.5842 0.3175,0.381 0.4826,0.9144 0.1651,0.5334 0.1651,1.1938 0,0.1651 -0.0127,0.3302 0,0.1524 -0.0254,0.2667 h -4.1656 q 0.0635,0.9906 0.6096,1.5748 0.5588,0.5715 1.4478,0.5715 0.4445,0 0.8128,-0.127 0.381,-0.1397 0.7239,-0.3556 l 0.3683,0.6858 q -0.4064,0.254 -0.9017,0.4445 -0.4953,0.1905 -1.1303,0.1905 z m -1.9431,-3.7338 h 3.302 q 0,-0.9398 -0.4064,-1.4224 -0.3937,-0.4953 -1.1176,-0.4953 -0.3302,0 -0.635,0.127 -0.2921,0.127 -0.5334,0.381 -0.2413,0.2413 -0.4064,0.5969 -0.1524,0.3556 -0.2032,0.8128 z"
             style="font-size:12.69999981px;fill:#133a5e;fill-opacity:1;stroke-width:0.26458332"
             id="path9640" />
          <path
             d="m 147.4849,176.76699 q -0.6223,0 -1.1684,-0.2159 -0.5334,-0.2286 -0.9398,-0.635 -0.3937,-0.4191 -0.6223,-1.016 -0.2286,-0.5969 -0.2286,-1.3589 0,-0.762 0.2286,-1.3589 0.2413,-0.6096 0.6223,-1.0287 0.3937,-0.4191 0.889,-0.635 0.4953,-0.2286 1.0287,-0.2286 0.5842,0 1.0414,0.2032 0.4699,0.2032 0.7747,0.5842 0.3175,0.381 0.4826,0.9144 0.1651,0.5334 0.1651,1.1938 0,0.1651 -0.0127,0.3302 0,0.1524 -0.0254,0.2667 h -4.1656 q 0.0635,0.9906 0.6096,1.5748 0.5588,0.5715 1.4478,0.5715 0.4445,0 0.8128,-0.127 0.381,-0.1397 0.7239,-0.3556 l 0.3683,0.6858 q -0.4064,0.254 -0.9017,0.4445 -0.4953,0.1905 -1.1303,0.1905 z m -1.9431,-3.7338 h 3.302 q 0,-0.9398 -0.4064,-1.4224 -0.3937,-0.4953 -1.1176,-0.4953 -0.3302,0 -0.635,0.127 -0.2921,0.127 -0.5334,0.381 -0.2413,0.2413 -0.4064,0.5969 -0.1524,0.3556 -0.2032,0.8128 z"
             style="font-size:12.69999981px;fill:#133a5e;fill-opacity:1;stroke-width:0.26458332"
             id="path9642" />
          <path
             d="m 151.28339,176.61459 v -6.1722 h 0.8636 l 0.0889,0.889 h 0.0381 q 0.4064,-0.4445 0.8763,-0.7366 0.4826,-0.3048 1.0414,-0.3048 0.7112,0 1.1049,0.3175 0.4064,0.3048 0.5969,0.8636 0.4826,-0.5334 0.9652,-0.8509 0.4953,-0.3302 1.0668,-0.3302 0.9525,0 1.4097,0.6096 0.4699,0.6096 0.4699,1.8034 v 3.9116 h -1.0414 v -3.7719 q 0,-0.8763 -0.2794,-1.2573 -0.2794,-0.3937 -0.8636,-0.3937 -0.6985,0 -1.5494,0.9525 v 4.4704 h -1.0414 v -3.7719 q 0,-0.8763 -0.2794,-1.2573 -0.2794,-0.3937 -0.8763,-0.3937 -0.6985,0 -1.5494,0.9525 v 4.4704 z"
             style="font-size:12.69999981px;fill:#133a5e;fill-opacity:1;stroke-width:0.26458332"
             id="path9644" />
          <path
             d="m 164.30248,176.76699 q -0.6223,0 -1.1684,-0.2159 -0.5334,-0.2286 -0.9398,-0.635 -0.3937,-0.4191 -0.6223,-1.016 -0.2286,-0.5969 -0.2286,-1.3589 0,-0.762 0.2286,-1.3589 0.2413,-0.6096 0.6223,-1.0287 0.3937,-0.4191 0.889,-0.635 0.4953,-0.2286 1.0287,-0.2286 0.5842,0 1.0414,0.2032 0.4699,0.2032 0.7747,0.5842 0.3175,0.381 0.4826,0.9144 0.1651,0.5334 0.1651,1.1938 0,0.1651 -0.0127,0.3302 0,0.1524 -0.0254,0.2667 h -4.1656 q 0.0635,0.9906 0.6096,1.5748 0.5588,0.5715 1.4478,0.5715 0.4445,0 0.8128,-0.127 0.381,-0.1397 0.7239,-0.3556 l 0.3683,0.6858 q -0.4064,0.254 -0.9017,0.4445 -0.4953,0.1905 -1.1303,0.1905 z m -1.9431,-3.7338 h 3.302 q 0,-0.9398 -0.4064,-1.4224 -0.3937,-0.4953 -1.1176,-0.4953 -0.3302,0 -0.635,0.127 -0.2921,0.127 -0.5334,0.381 -0.2413,0.2413 -0.4064,0.5969 -0.1524,0.3556 -0.2032,0.8128 z"
             style="font-size:12.69999981px;fill:#133a5e;fill-opacity:1;stroke-width:0.26458332"
             id="path9646" />
          <path
             d="m 168.10097,176.61459 v -6.1722 h 0.8636 l 0.0889,1.1176 h 0.0381 q 0.3175,-0.5842 0.762,-0.9271 0.4572,-0.3429 0.9906,-0.3429 0.3683,0 0.6604,0.127 l -0.2032,0.9144 q -0.1524,-0.0508 -0.2794,-0.0762 -0.127,-0.0254 -0.3175,-0.0254 -0.3937,0 -0.8255,0.3175 -0.4191,0.3175 -0.7366,1.1049 v 3.9624 z"
             style="font-size:12.69999981px;fill:#133a5e;fill-opacity:1;stroke-width:0.26458332"
             id="path9648" />
          <path
             d="m 175.14789,176.61459 v -8.3312 h 2.3749 q 0.6985,0 1.27,0.127 0.5842,0.127 0.9906,0.4191 0.4064,0.2794 0.635,0.7493 0.2286,0.4699 0.2286,1.1557 0,0.6604 -0.2286,1.143 -0.2159,0.4826 -0.6223,0.8001 -0.4064,0.3175 -0.9779,0.4826 -0.5588,0.1524 -1.2446,0.1524 h -1.3716 v 3.302 z m 1.0541,-4.1656 h 1.2446 q 1.0922,0 1.6129,-0.4064 0.5334,-0.4191 0.5334,-1.3081 0,-0.9017 -0.5588,-1.2446 -0.5461,-0.3556 -1.6383,-0.3556 h -1.1938 z"
             style="font-size:12.69999981px;fill:#133a5e;fill-opacity:1;stroke-width:0.26458332"
             id="path9650" />
          <path
             d="m 184.34229,176.76699 q -0.5715,0 -1.0922,-0.2159 -0.508,-0.2159 -0.9017,-0.6223 -0.3937,-0.4191 -0.635,-1.016 -0.2286,-0.6096 -0.2286,-1.3716 0,-0.7747 0.2286,-1.3716 0.2413,-0.6096 0.635,-1.0287 0.3937,-0.4191 0.9017,-0.635 0.5207,-0.2159 1.0922,-0.2159 0.5715,0 1.0795,0.2159 0.5207,0.2159 0.9144,0.635 0.3937,0.4191 0.6223,1.0287 0.2413,0.5969 0.2413,1.3716 0,0.762 -0.2413,1.3716 -0.2286,0.5969 -0.6223,1.016 -0.3937,0.4064 -0.9144,0.6223 -0.508,0.2159 -1.0795,0.2159 z m 0,-0.8636 q 0.3937,0 0.7239,-0.1651 0.3302,-0.1778 0.5588,-0.4826 0.2413,-0.3175 0.3683,-0.7493 0.127,-0.4318 0.127,-0.9652 0,-0.5334 -0.127,-0.9652 -0.127,-0.4445 -0.3683,-0.762 -0.2286,-0.3175 -0.5588,-0.4826 -0.3302,-0.1778 -0.7239,-0.1778 -0.3937,0 -0.7239,0.1778 -0.3302,0.1651 -0.5715,0.4826 -0.2286,0.3175 -0.3556,0.762 -0.127,0.4318 -0.127,0.9652 0,0.5334 0.127,0.9652 0.127,0.4318 0.3556,0.7493 0.2413,0.3048 0.5715,0.4826 0.3302,0.1651 0.7239,0.1651 z"
             style="font-size:12.69999981px;fill:#133a5e;fill-opacity:1;stroke-width:0.26458332"
             id="path9652" />
          <path
             d="m 191.23799,176.76699 q -0.5715,0 -1.0922,-0.2159 -0.508,-0.2159 -0.9017,-0.6223 -0.3937,-0.4191 -0.635,-1.016 -0.2286,-0.6096 -0.2286,-1.3716 0,-0.7747 0.2286,-1.3716 0.2413,-0.6096 0.635,-1.0287 0.3937,-0.4191 0.9017,-0.635 0.5207,-0.2159 1.0922,-0.2159 0.5715,0 1.0795,0.2159 0.5207,0.2159 0.9144,0.635 0.3937,0.4191 0.6223,1.0287 0.2413,0.5969 0.2413,1.3716 0,0.762 -0.2413,1.3716 -0.2286,0.5969 -0.6223,1.016 -0.3937,0.4064 -0.9144,0.6223 -0.508,0.2159 -1.0795,0.2159 z m 0,-0.8636 q 0.3937,0 0.7239,-0.1651 0.3302,-0.1778 0.5588,-0.4826 0.2413,-0.3175 0.3683,-0.7493 0.127,-0.4318 0.127,-0.9652 0,-0.5334 -0.127,-0.9652 -0.127,-0.4445 -0.3683,-0.762 -0.2286,-0.3175 -0.5588,-0.4826 -0.3302,-0.1778 -0.7239,-0.1778 -0.3937,0 -0.7239,0.1778 -0.3302,0.1651 -0.5715,0.4826 -0.2286,0.3175 -0.3556,0.762 -0.127,0.4318 -0.127,0.9652 0,0.5334 0.127,0.9652 0.127,0.4318 0.3556,0.7493 0.2413,0.3048 0.5715,0.4826 0.3302,0.1651 0.7239,0.1651 z"
             style="font-size:12.69999981px;fill:#133a5e;fill-opacity:1;stroke-width:0.26458332"
             id="path9654" />
          <path
             d="m 196.83829,176.76699 q -0.5969,0 -0.8509,-0.3556 -0.254,-0.3556 -0.254,-1.0414 v -7.7978 h 1.0414 v 7.874 q 0,0.254 0.0889,0.3556 0.0889,0.1016 0.2032,0.1016 0.0508,0 0.0889,0 0.0508,0 0.1397,-0.0254 l 0.1397,0.7874 q -0.1016,0.0508 -0.2413,0.0762 -0.1397,0.0254 -0.3556,0.0254 z"
             style="font-size:12.69999981px;fill:#133a5e;fill-opacity:1;stroke-width:0.26458332"
             id="path9656" />
          <path
             d="m 200.59571,176.76699 q -0.6604,0 -1.2573,-0.2413 -0.5969,-0.2413 -1.0414,-0.6096 l 0.5207,-0.6985 q 0.4064,0.3302 0.8255,0.5334 0.4318,0.2032 0.9906,0.2032 0.6096,0 0.9144,-0.2794 0.3048,-0.2794 0.3048,-0.6858 0,-0.2413 -0.127,-0.4191 -0.127,-0.1778 -0.3302,-0.3048 -0.1905,-0.1397 -0.4445,-0.2413 -0.254,-0.1016 -0.508,-0.2032 -0.3302,-0.1143 -0.6604,-0.254 -0.3302,-0.1524 -0.5969,-0.3556 -0.254,-0.2159 -0.4191,-0.4953 -0.1651,-0.2794 -0.1651,-0.6731 0,-0.3683 0.1397,-0.6858 0.1524,-0.3302 0.4191,-0.5588 0.2794,-0.2413 0.6731,-0.3683 0.3937,-0.1397 0.889,-0.1397 0.5842,0 1.0668,0.2032 0.4953,0.2032 0.8509,0.4953 l -0.4953,0.6604 q -0.3175,-0.2413 -0.6604,-0.3937 -0.3429,-0.1524 -0.7493,-0.1524 -0.5842,0 -0.8636,0.2667 -0.2667,0.2667 -0.2667,0.6223 0,0.2159 0.1143,0.381 0.1143,0.1524 0.3048,0.2794 0.1905,0.1143 0.4318,0.2159 0.254,0.0889 0.5207,0.1905 0.3302,0.127 0.6604,0.2667 0.3429,0.1397 0.6096,0.3556 0.2667,0.2032 0.4318,0.508 0.1778,0.3048 0.1778,0.7366 0,0.381 -0.1524,0.7112 -0.1397,0.3302 -0.4318,0.5842 -0.2794,0.254 -0.7112,0.3937 -0.4191,0.1524 -0.9652,0.1524 z"
             style="font-size:12.69999981px;fill:#133a5e;fill-opacity:1;stroke-width:0.26458332"
             id="path9658" />
          <path
             d="m 206.9475,176.61459 v -8.3312 h 1.0541 v 7.4295 h 3.6449 v 0.9017 z"
             style="font-size:12.69999981px;fill:#133a5e;fill-opacity:1;stroke-width:0.26458332"
             id="path9660" />
          <path
             d="m 214.71731,176.76699 q -0.4953,0 -0.8382,-0.1524 -0.3302,-0.1524 -0.5461,-0.4191 -0.2032,-0.2667 -0.2921,-0.6477 -0.0889,-0.381 -0.0889,-0.8382 v -3.4163 h -0.9144 v -0.7874 l 0.9652,-0.0635 0.127,-1.7272 h 0.8763 v 1.7272 h 1.6637 v 0.8509 h -1.6637 v 3.429 q 0,0.5715 0.2032,0.889 0.2159,0.3048 0.7493,0.3048 0.1651,0 0.3556,-0.0508 0.1905,-0.0508 0.3429,-0.1143 l 0.2032,0.7874 q -0.254,0.0889 -0.5588,0.1524 -0.2921,0.0762 -0.5842,0.0762 z"
             style="font-size:12.69999981px;fill:#133a5e;fill-opacity:1;stroke-width:0.26458332"
             id="path9662" />
          <path
             d="m 219,176.76699 q -1.1684,0 -1.8669,-0.8382 -0.6858,-0.8382 -0.6858,-2.3876 0,-0.7493 0.2159,-1.3462 0.2286,-0.6096 0.5969,-1.0287 0.3683,-0.4191 0.8509,-0.6477 0.4826,-0.2286 1.016,-0.2286 0.5334,0 0.9271,0.1905 0.3937,0.1905 0.8001,0.5207 l -0.0508,-1.0541 v -2.3749 h 1.0541 v 9.0424 h -0.8636 l -0.0889,-0.7239 h -0.0381 q -0.3683,0.3556 -0.8509,0.6223 -0.4699,0.254 -1.016,0.254 z m 0.2286,-0.8763 q 0.4318,0 0.8128,-0.2032 0.381,-0.2159 0.762,-0.6477 v -3.2258 q -0.3937,-0.3556 -0.762,-0.4953 -0.3556,-0.1524 -0.7366,-0.1524 -0.3683,0 -0.6985,0.1778 -0.3175,0.1651 -0.5588,0.4826 -0.2413,0.3048 -0.381,0.7366 -0.1397,0.4318 -0.1397,0.9652 0,1.1176 0.4445,1.7399 0.4445,0.6223 1.2573,0.6223 z"
             style="font-size:12.69999981px;fill:#133a5e;fill-opacity:1;stroke-width:0.26458332"
             id="path9664" />
        </g>
        <path
           d="m 131.12133,184.06834 v -5.55413 h 1.60295 q 0.47146,0 0.8572,0.0847 0.3943,0.0847 0.66861,0.2794 0.2743,0.18626 0.42859,0.49953 0.1543,0.31327 0.1543,0.77047 0,0.44026 -0.1543,0.762 -0.14572,0.32173 -0.42002,0.5334 -0.2743,0.21166 -0.66004,0.32173 -0.37717,0.1016 -0.84005,0.1016 h -0.92577 v 2.20133 z m 0.71147,-2.77706 h 0.84005 q 0.73719,0 1.08864,-0.27094 0.36002,-0.2794 0.36002,-0.87206 0,-0.60114 -0.37717,-0.82974 -0.36859,-0.23706 -1.10578,-0.23706 h -0.80576 z"
           style="font-style:normal;font-variant:normal;font-weight:normal;font-stretch:normal;font-size:32px;line-height:1.25;font-family:'Source Sans Pro';-inkscape-font-specification:'Source Sans Pro';letter-spacing:0px;word-spacing:0px;fill:#133a5e;fill-opacity:1;stroke:none;stroke-width:0.26622289"
           id="path9583" />
        <path
           d="m 137.32714,184.16994 q -0.38574,0 -0.73719,-0.14393 -0.34287,-0.14393 -0.6086,-0.41487 -0.26573,-0.2794 -0.4286,-0.67733 -0.15429,-0.4064 -0.15429,-0.9144 0,-0.51647 0.15429,-0.9144 0.16287,-0.4064 0.4286,-0.6858 0.26573,-0.2794 0.6086,-0.42333 0.35145,-0.14394 0.73719,-0.14394 0.38573,0 0.72861,0.14394 0.35145,0.14393 0.61718,0.42333 0.26573,0.2794 0.42002,0.6858 0.16287,0.39793 0.16287,0.9144 0,0.508 -0.16287,0.9144 -0.15429,0.39793 -0.42002,0.67733 -0.26573,0.27094 -0.61718,0.41487 -0.34288,0.14393 -0.72861,0.14393 z m 0,-0.57573 q 0.26573,0 0.4886,-0.11007 0.22287,-0.11853 0.37716,-0.32173 0.16287,-0.21167 0.24859,-0.49953 0.0857,-0.28787 0.0857,-0.64347 0,-0.3556 -0.0857,-0.64347 -0.0857,-0.29633 -0.24859,-0.508 -0.15429,-0.21166 -0.37716,-0.32173 -0.22287,-0.11853 -0.4886,-0.11853 -0.26573,0 -0.4886,0.11853 -0.22287,0.11007 -0.38574,0.32173 -0.15429,0.21167 -0.24001,0.508 -0.0857,0.28787 -0.0857,0.64347 0,0.3556 0.0857,0.64347 0.0857,0.28786 0.24001,0.49953 0.16287,0.2032 0.38574,0.32173 0.22287,0.11007 0.4886,0.11007 z"
           style="font-style:normal;font-variant:normal;font-weight:normal;font-stretch:normal;font-size:32px;line-height:1.25;font-family:'Source Sans Pro';-inkscape-font-specification:'Source Sans Pro';letter-spacing:0px;word-spacing:0px;fill:#133a5e;fill-opacity:1;stroke:none;stroke-width:0.26622289"
           id="path9585" />
        <path
           d="m 141.98142,184.16994 q -0.38573,0 -0.73718,-0.14393 -0.34288,-0.14393 -0.60861,-0.41487 -0.26573,-0.2794 -0.42859,-0.67733 -0.1543,-0.4064 -0.1543,-0.9144 0,-0.51647 0.1543,-0.9144 0.16286,-0.4064 0.42859,-0.6858 0.26573,-0.2794 0.60861,-0.42333 0.35145,-0.14394 0.73718,-0.14394 0.38574,0 0.72862,0.14394 0.35145,0.14393 0.61718,0.42333 0.26573,0.2794 0.42002,0.6858 0.16287,0.39793 0.16287,0.9144 0,0.508 -0.16287,0.9144 -0.15429,0.39793 -0.42002,0.67733 -0.26573,0.27094 -0.61718,0.41487 -0.34288,0.14393 -0.72862,0.14393 z m 0,-0.57573 q 0.26573,0 0.4886,-0.11007 0.22287,-0.11853 0.37717,-0.32173 0.16287,-0.21167 0.24859,-0.49953 0.0857,-0.28787 0.0857,-0.64347 0,-0.3556 -0.0857,-0.64347 -0.0857,-0.29633 -0.24859,-0.508 -0.1543,-0.21166 -0.37717,-0.32173 -0.22287,-0.11853 -0.4886,-0.11853 -0.26572,0 -0.48859,0.11853 -0.22287,0.11007 -0.38574,0.32173 -0.1543,0.21167 -0.24002,0.508 -0.0857,0.28787 -0.0857,0.64347 0,0.3556 0.0857,0.64347 0.0857,0.28786 0.24002,0.49953 0.16287,0.2032 0.38574,0.32173 0.22287,0.11007 0.48859,0.11007 z"
           style="font-style:normal;font-variant:normal;font-weight:normal;font-stretch:normal;font-size:32px;line-height:1.25;font-family:'Source Sans Pro';-inkscape-font-specification:'Source Sans Pro';letter-spacing:0px;word-spacing:0px;fill:#133a5e;fill-opacity:1;stroke:none;stroke-width:0.26622289"
           id="path9587" />
        <path
           d="m 145.76138,184.16994 q -0.40289,0 -0.57432,-0.23706 -0.17144,-0.23707 -0.17144,-0.69427 v -5.19853 h 0.7029 v 5.24933 q 0,0.16933 0.06,0.23707 0.06,0.0677 0.13715,0.0677 0.0343,0 0.06,0 0.0343,0 0.0943,-0.0169 l 0.0943,0.52493 q -0.0686,0.0339 -0.16287,0.0508 -0.0943,0.0169 -0.24001,0.0169 z"
           style="font-style:normal;font-variant:normal;font-weight:normal;font-stretch:normal;font-size:32px;line-height:1.25;font-family:'Source Sans Pro';-inkscape-font-specification:'Source Sans Pro';letter-spacing:0px;word-spacing:0px;fill:#133a5e;fill-opacity:1;stroke:none;stroke-width:0.26622289"
           id="path9589" />
        <path
           d="m 150.2023,184.16994 q -0.38574,0 -0.7029,-0.11006 -0.30859,-0.11854 -0.54003,-0.32174 -0.22287,-0.2032 -0.35145,-0.4826 -0.12,-0.28786 -0.12,-0.62653 0,-0.2794 0.0857,-0.508 0.0943,-0.2286 0.24858,-0.42333 0.1543,-0.19474 0.35145,-0.3556 0.20573,-0.16934 0.42002,-0.31327 -0.17143,-0.34713 -0.2743,-0.66887 -0.0943,-0.3302 -0.0943,-0.635 0,-0.2794 0.0943,-0.51646 0.0943,-0.23707 0.26573,-0.41487 0.17144,-0.1778 0.41146,-0.2794 0.24001,-0.1016 0.53145,-0.1016 0.52289,0 0.81434,0.3048 0.29144,0.3048 0.29144,0.79587 0,0.27093 -0.11143,0.49953 -0.11144,0.2286 -0.29145,0.4318 -0.18001,0.19473 -0.41145,0.37253 -0.22287,0.16934 -0.45431,0.33867 0.2743,0.4318 0.64289,0.82973 0.37717,0.39794 0.78005,0.72814 0.25715,-0.34714 0.45431,-0.75354 0.20573,-0.4064 0.3343,-0.889 h 0.66004 q -0.17144,0.55034 -0.41145,1.04987 -0.24001,0.49953 -0.57432,0.9398 0.29145,0.19473 0.55718,0.3302 0.26573,0.13547 0.49717,0.2032 l -0.18858,0.57573 q -0.30002,-0.0847 -0.62576,-0.23706 -0.32573,-0.16087 -0.66861,-0.39794 -0.32573,0.28787 -0.72861,0.46567 -0.39431,0.16933 -0.89148,0.16933 z m -0.36859,-4.45346 q 0,0.2286 0.0686,0.47413 0.0772,0.24553 0.19716,0.49953 0.18858,-0.127 0.36002,-0.254 0.18001,-0.13546 0.30859,-0.27093 0.13715,-0.14393 0.2143,-0.29633 0.0771,-0.16087 0.0771,-0.34714 0,-0.24553 -0.12858,-0.42333 -0.12,-0.18627 -0.40288,-0.18627 -0.31716,0 -0.50574,0.2286 -0.18858,0.2286 -0.18858,0.57574 z m 0.44574,3.89466 q 0.29144,0 0.55717,-0.11853 0.26573,-0.11853 0.51432,-0.3302 -0.41145,-0.3556 -0.79719,-0.77047 -0.37716,-0.42333 -0.67718,-0.88053 -0.30002,0.23707 -0.50575,0.49953 -0.19715,0.254 -0.19715,0.57574 0,0.2286 0.0857,0.42333 0.0857,0.18627 0.23144,0.32173 0.1543,0.13547 0.35145,0.21167 0.20573,0.0677 0.43717,0.0677 z"
           style="font-style:normal;font-variant:normal;font-weight:normal;font-stretch:normal;font-size:32px;line-height:1.25;font-family:'Source Sans Pro';-inkscape-font-specification:'Source Sans Pro';letter-spacing:0px;word-spacing:0px;fill:#133a5e;fill-opacity:1;stroke:none;stroke-width:0.26622289"
           id="path9591" />
        <path
           d="m 157.47638,184.16994 q -0.59146,0 -1.0972,-0.22013 -0.50575,-0.22013 -0.87434,-0.60113 l 0.4286,-0.49107 q 0.30001,0.31327 0.70289,0.508 0.41146,0.18627 0.84862,0.18627 0.55718,0 0.86577,-0.24554 0.30859,-0.254 0.30859,-0.6604 0,-0.21166 -0.0772,-0.3556 -0.0686,-0.1524 -0.19715,-0.254 -0.12001,-0.11006 -0.29145,-0.19473 -0.17144,-0.0847 -0.36859,-0.1778 l -0.80576,-0.34713 q -0.19716,-0.0847 -0.40288,-0.2032 -0.20573,-0.11854 -0.3686,-0.28787 -0.16286,-0.16933 -0.26573,-0.39793 -0.10286,-0.23707 -0.10286,-0.54187 0,-0.31327 0.12858,-0.5842 0.13715,-0.27093 0.36859,-0.46567 0.24002,-0.2032 0.55718,-0.31326 0.32573,-0.11007 0.71147,-0.11007 0.50574,0 0.93434,0.19473 0.42859,0.18627 0.72861,0.49107 l -0.38574,0.4572 q -0.25715,-0.24553 -0.57431,-0.381 -0.30859,-0.14393 -0.7029,-0.14393 -0.47146,0 -0.7629,0.22013 -0.28288,0.21167 -0.28288,0.59267 0,0.2032 0.0772,0.34713 0.0857,0.13547 0.22287,0.24553 0.13715,0.1016 0.30002,0.18627 0.16286,0.0762 0.3343,0.14393 l 0.79719,0.33867 q 0.24002,0.1016 0.45431,0.23707 0.2143,0.127 0.3686,0.3048 0.15429,0.16933 0.24001,0.4064 0.0943,0.2286 0.0943,0.5334 0,0.3302 -0.13715,0.61806 -0.12858,0.28787 -0.37716,0.508 -0.24859,0.21167 -0.60004,0.33867 -0.35145,0.11853 -0.79719,0.11853 z"
           style="font-style:normal;font-variant:normal;font-weight:normal;font-stretch:normal;font-size:32px;line-height:1.25;font-family:'Source Sans Pro';-inkscape-font-specification:'Source Sans Pro';letter-spacing:0px;word-spacing:0px;fill:#133a5e;fill-opacity:1;stroke:none;stroke-width:0.26622289"
           id="path9593" />
        <path
           d="m 160.41829,185.80401 v -5.85047 h 0.58289 l 0.06,0.47414 h 0.0257 q 0.28288,-0.23707 0.61718,-0.4064 0.34288,-0.16934 0.71147,-0.16934 0.40288,0 0.71147,0.1524 0.30859,0.14394 0.51432,0.42334 0.20572,0.27093 0.30859,0.6604 0.11143,0.381 0.11143,0.8636 0,0.52493 -0.14572,0.9398 -0.14572,0.4064 -0.39431,0.69426 -0.24859,0.28787 -0.57432,0.44027 -0.32573,0.14393 -0.68575,0.14393 -0.29145,0 -0.58289,-0.127 -0.28288,-0.127 -0.57432,-0.34713 l 0.0171,0.71967 v 1.38853 z m 1.72296,-2.21827 q 0.25716,0 0.47146,-0.11006 0.22287,-0.11854 0.37716,-0.32174 0.16287,-0.21166 0.24859,-0.51646 0.0943,-0.3048 0.0943,-0.6858 0,-0.33867 -0.06,-0.61807 -0.06,-0.2794 -0.19715,-0.47413 -0.12858,-0.2032 -0.34288,-0.31327 -0.20572,-0.11007 -0.49717,-0.11007 -0.26573,0 -0.54003,0.14394 -0.26573,0.14393 -0.57432,0.41486 v 2.159 q 0.28287,0.23707 0.5486,0.33867 0.26573,0.0931 0.47146,0.0931 z"
           style="font-style:normal;font-variant:normal;font-weight:normal;font-stretch:normal;font-size:32px;line-height:1.25;font-family:'Source Sans Pro';-inkscape-font-specification:'Source Sans Pro';letter-spacing:0px;word-spacing:0px;fill:#133a5e;fill-opacity:1;stroke:none;stroke-width:0.26622289"
           id="path9595" />
        <path
           d="m 166.01589,184.16994 q -0.52288,0 -0.87433,-0.3048 -0.34288,-0.3048 -0.34288,-0.8636 0,-0.67733 0.60861,-1.03293 0.6086,-0.36407 1.94582,-0.508 0,-0.19473 -0.0429,-0.381 -0.0343,-0.18627 -0.12858,-0.3302 -0.0943,-0.14393 -0.26572,-0.2286 -0.16287,-0.0931 -0.42003,-0.0931 -0.36002,0 -0.67718,0.13546 -0.31716,0.13547 -0.56575,0.3048 l -0.2743,-0.4826 q 0.29145,-0.18626 0.71147,-0.3556 0.42002,-0.1778 0.92577,-0.1778 0.7629,0 1.10578,0.46567 0.34287,0.4572 0.34287,1.22767 v 2.52306 h -0.58289 l -0.06,-0.49106 h -0.0257 q -0.30001,0.24553 -0.64289,0.42333 -0.34288,0.16933 -0.73719,0.16933 z m 0.20573,-0.5588 q 0.30002,0 0.56575,-0.13546 0.26573,-0.14394 0.56574,-0.41487 v -1.143 q -0.52288,0.0677 -0.8829,0.16087 -0.35145,0.0931 -0.57432,0.22013 -0.2143,0.127 -0.31717,0.29633 -0.0943,0.16087 -0.0943,0.3556 0,0.3556 0.2143,0.508 0.2143,0.1524 0.52289,0.1524 z"
           style="font-style:normal;font-variant:normal;font-weight:normal;font-stretch:normal;font-size:32px;line-height:1.25;font-family:'Source Sans Pro';-inkscape-font-specification:'Source Sans Pro';letter-spacing:0px;word-spacing:0px;fill:#133a5e;fill-opacity:1;stroke:none;stroke-width:0.26622289"
           id="path9597" />
        <path
           d="m 172.71164,184.16994 q -0.59147,0 -1.09721,-0.22013 -0.50574,-0.22013 -0.87434,-0.60113 l 0.4286,-0.49107 q 0.30002,0.31327 0.7029,0.508 0.41145,0.18627 0.84862,0.18627 0.55717,0 0.86576,-0.24554 0.30859,-0.254 0.30859,-0.6604 0,-0.21166 -0.0772,-0.3556 -0.0686,-0.1524 -0.19715,-0.254 -0.12001,-0.11006 -0.29144,-0.19473 -0.17144,-0.0847 -0.3686,-0.1778 l -0.80576,-0.34713 q -0.19715,-0.0847 -0.40288,-0.2032 -0.20572,-0.11854 -0.36859,-0.28787 -0.16287,-0.16933 -0.26573,-0.39793 -0.10286,-0.23707 -0.10286,-0.54187 0,-0.31327 0.12857,-0.5842 0.13716,-0.27093 0.3686,-0.46567 0.24001,-0.2032 0.55717,-0.31326 0.32574,-0.11007 0.71147,-0.11007 0.50575,0 0.93434,0.19473 0.4286,0.18627 0.72862,0.49107 l -0.38574,0.4572 q -0.25716,-0.24553 -0.57432,-0.381 -0.30859,-0.14393 -0.7029,-0.14393 -0.47145,0 -0.7629,0.22013 -0.28287,0.21167 -0.28287,0.59267 0,0.2032 0.0771,0.34713 0.0857,0.13547 0.22287,0.24553 0.13716,0.1016 0.30002,0.18627 0.16287,0.0762 0.33431,0.14393 l 0.79719,0.33867 q 0.24001,0.1016 0.45431,0.23707 0.2143,0.127 0.36859,0.3048 0.1543,0.16933 0.24001,0.4064 0.0943,0.2286 0.0943,0.5334 0,0.3302 -0.13715,0.61806 -0.12858,0.28787 -0.37717,0.508 -0.24859,0.21167 -0.60003,0.33867 -0.35145,0.11853 -0.79719,0.11853 z"
           style="font-style:normal;font-variant:normal;font-weight:normal;font-stretch:normal;font-size:32px;line-height:1.25;font-family:'Source Sans Pro';-inkscape-font-specification:'Source Sans Pro';letter-spacing:0px;word-spacing:0px;fill:#133a5e;fill-opacity:1;stroke:none;stroke-width:0.26622289"
           id="path9599" />
        <path
           d="m 177.34222,184.16994 q -0.42003,0 -0.78862,-0.14393 -0.36002,-0.1524 -0.63432,-0.42333 -0.26573,-0.2794 -0.42003,-0.67734 -0.15429,-0.39793 -0.15429,-0.90593 0,-0.508 0.15429,-0.90593 0.16287,-0.4064 0.42003,-0.6858 0.26573,-0.2794 0.60003,-0.42334 0.33431,-0.1524 0.69433,-0.1524 0.39431,0 0.7029,0.13547 0.31716,0.13547 0.52288,0.38947 0.2143,0.254 0.32574,0.6096 0.11143,0.3556 0.11143,0.79586 0,0.11007 -0.009,0.22014 0,0.1016 -0.0171,0.1778 h -2.8116 q 0.0429,0.6604 0.41146,1.04986 0.37716,0.381 0.9772,0.381 0.30001,0 0.5486,-0.0847 0.25716,-0.0931 0.4886,-0.23707 l 0.24858,0.4572 q -0.2743,0.16933 -0.6086,0.29633 -0.33431,0.127 -0.7629,0.127 z m -1.31151,-2.4892 h 2.2287 q 0,-0.62653 -0.2743,-0.94826 -0.26573,-0.3302 -0.75433,-0.3302 -0.22287,0 -0.42859,0.0847 -0.19716,0.0847 -0.36003,0.254 -0.16286,0.16087 -0.2743,0.39794 -0.10286,0.23706 -0.13715,0.54186 z"
           style="font-style:normal;font-variant:normal;font-weight:normal;font-stretch:normal;font-size:32px;line-height:1.25;font-family:'Source Sans Pro';-inkscape-font-specification:'Source Sans Pro';letter-spacing:0px;word-spacing:0px;fill:#133a5e;fill-opacity:1;stroke:none;stroke-width:0.26622289"
           id="path9601" />
        <path
           d="m 179.90603,184.06834 v -4.1148 h 0.58289 l 0.06,0.74507 h 0.0257 q 0.21429,-0.38947 0.51431,-0.61807 0.30859,-0.2286 0.66861,-0.2286 0.24859,0 0.44574,0.0847 l -0.13715,0.6096 q -0.10286,-0.0339 -0.18858,-0.0508 -0.0857,-0.0169 -0.2143,-0.0169 -0.26573,0 -0.55718,0.21166 -0.28287,0.21167 -0.49717,0.7366 v 2.6416 z"
           style="font-style:normal;font-variant:normal;font-weight:normal;font-stretch:normal;font-size:32px;line-height:1.25;font-family:'Source Sans Pro';-inkscape-font-specification:'Source Sans Pro';letter-spacing:0px;word-spacing:0px;fill:#133a5e;fill-opacity:1;stroke:none;stroke-width:0.26622289"
           id="path9603" />
        <path
           d="m 184.00381,184.06834 -1.50009,-4.1148 h 0.72861 l 0.78862,2.3368 q 0.0943,0.3048 0.18858,0.6096 0.10287,0.3048 0.19716,0.60114 h 0.0343 q 0.0943,-0.29634 0.18859,-0.60114 0.0943,-0.3048 0.18858,-0.6096 l 0.78862,-2.3368 h 0.69432 l -1.47437,4.1148 z"
           style="font-style:normal;font-variant:normal;font-weight:normal;font-stretch:normal;font-size:32px;line-height:1.25;font-family:'Source Sans Pro';-inkscape-font-specification:'Source Sans Pro';letter-spacing:0px;word-spacing:0px;fill:#133a5e;fill-opacity:1;stroke:none;stroke-width:0.26622289"
           id="path9605" />
        <path
           d="m 187.1051,184.06834 v -4.1148 h 0.7029 v 4.1148 z m 0.36002,-4.96146 q -0.20572,0 -0.35145,-0.127 -0.13715,-0.127 -0.13715,-0.32174 0,-0.2032 0.13715,-0.32173 0.14573,-0.127 0.35145,-0.127 0.20573,0 0.34288,0.127 0.14572,0.11853 0.14572,0.32173 0,0.19474 -0.14572,0.32174 -0.13715,0.127 -0.34288,0.127 z"
           style="font-style:normal;font-variant:normal;font-weight:normal;font-stretch:normal;font-size:32px;line-height:1.25;font-family:'Source Sans Pro';-inkscape-font-specification:'Source Sans Pro';letter-spacing:0px;word-spacing:0px;fill:#133a5e;fill-opacity:1;stroke:none;stroke-width:0.26622289"
           id="path9607" />
        <path
           d="m 190.86041,184.16994 q -0.41145,0 -0.77148,-0.14393 -0.36002,-0.14393 -0.62575,-0.41487 -0.25715,-0.2794 -0.41145,-0.67733 -0.14572,-0.4064 -0.14572,-0.9144 0,-0.51647 0.16287,-0.9144 0.16286,-0.4064 0.43716,-0.6858 0.27431,-0.2794 0.63433,-0.42333 0.36859,-0.14394 0.77147,-0.14394 0.41145,0 0.7029,0.14394 0.29144,0.14393 0.51431,0.33866 l -0.36002,0.4572 q -0.18001,-0.16086 -0.38573,-0.26246 -0.19716,-0.1016 -0.44574,-0.1016 -0.28288,0 -0.52289,0.11853 -0.24002,0.11007 -0.41145,0.32173 -0.17144,0.21167 -0.27431,0.508 -0.0943,0.28787 -0.0943,0.64347 0,0.3556 0.0943,0.64347 0.0943,0.28786 0.25716,0.49953 0.17144,0.2032 0.41145,0.32173 0.24002,0.11007 0.52289,0.11007 0.29145,0 0.53146,-0.11853 0.24859,-0.127 0.44574,-0.29634 l 0.30859,0.46567 q -0.28287,0.24553 -0.62575,0.38947 -0.34288,0.13546 -0.72004,0.13546 z"
           style="font-style:normal;font-variant:normal;font-weight:normal;font-stretch:normal;font-size:32px;line-height:1.25;font-family:'Source Sans Pro';-inkscape-font-specification:'Source Sans Pro';letter-spacing:0px;word-spacing:0px;fill:#133a5e;fill-opacity:1;stroke:none;stroke-width:0.26622289"
           id="path9609" />
        <path
           d="m 194.62,184.16994 q -0.42002,0 -0.78862,-0.14393 -0.36002,-0.1524 -0.63432,-0.42333 -0.26573,-0.2794 -0.42002,-0.67734 -0.1543,-0.39793 -0.1543,-0.90593 0,-0.508 0.1543,-0.90593 0.16286,-0.4064 0.42002,-0.6858 0.26573,-0.2794 0.60004,-0.42334 0.3343,-0.1524 0.69432,-0.1524 0.39431,0 0.7029,0.13547 0.31716,0.13547 0.52289,0.38947 0.21429,0.254 0.32573,0.6096 0.11143,0.3556 0.11143,0.79586 0,0.11007 -0.009,0.22014 0,0.1016 -0.0171,0.1778 h -2.81159 q 0.0429,0.6604 0.41145,1.04986 0.37716,0.381 0.9772,0.381 0.30002,0 0.5486,-0.0847 0.25716,-0.0931 0.4886,-0.23707 l 0.24859,0.4572 q -0.2743,0.16933 -0.60861,0.29633 -0.3343,0.127 -0.7629,0.127 z m -1.3115,-2.4892 h 2.2287 q 0,-0.62653 -0.27431,-0.94826 -0.26573,-0.3302 -0.75432,-0.3302 -0.22287,0 -0.4286,0.0847 -0.19716,0.0847 -0.36002,0.254 -0.16287,0.16087 -0.2743,0.39794 -0.10287,0.23706 -0.13715,0.54186 z"
           style="font-style:normal;font-variant:normal;font-weight:normal;font-stretch:normal;font-size:32px;line-height:1.25;font-family:'Source Sans Pro';-inkscape-font-specification:'Source Sans Pro';letter-spacing:0px;word-spacing:0px;fill:#133a5e;fill-opacity:1;stroke:none;stroke-width:0.26622289"
           id="path9611" />
        <path
           d="m 200.17729,184.16994 q -0.38574,0 -0.7029,-0.11006 -0.30859,-0.11854 -0.54003,-0.32174 -0.22287,-0.2032 -0.35145,-0.4826 -0.12001,-0.28786 -0.12001,-0.62653 0,-0.2794 0.0857,-0.508 0.0943,-0.2286 0.24859,-0.42333 0.15429,-0.19474 0.35144,-0.3556 0.20573,-0.16934 0.42003,-0.31327 -0.17144,-0.34713 -0.2743,-0.66887 -0.0943,-0.3302 -0.0943,-0.635 0,-0.2794 0.0943,-0.51646 0.0943,-0.23707 0.26573,-0.41487 0.17144,-0.1778 0.41145,-0.2794 0.24001,-0.1016 0.53146,-0.1016 0.52289,0 0.81433,0.3048 0.29145,0.3048 0.29145,0.79587 0,0.27093 -0.11144,0.49953 -0.11143,0.2286 -0.29144,0.4318 -0.18001,0.19473 -0.41146,0.37253 -0.22287,0.16934 -0.45431,0.33867 0.2743,0.4318 0.6429,0.82973 0.37716,0.39794 0.78004,0.72814 0.25716,-0.34714 0.45431,-0.75354 0.20573,-0.4064 0.33431,-0.889 h 0.66004 q -0.17144,0.55034 -0.41146,1.04987 -0.24001,0.49953 -0.57432,0.9398 0.29145,0.19473 0.55718,0.3302 0.26573,0.13547 0.49717,0.2032 l -0.18858,0.57573 q -0.30002,-0.0847 -0.62575,-0.23706 -0.32573,-0.16087 -0.66861,-0.39794 -0.32573,0.28787 -0.72861,0.46567 -0.39431,0.16933 -0.89148,0.16933 z m -0.3686,-4.45346 q 0,0.2286 0.0686,0.47413 0.0771,0.24553 0.19715,0.49953 0.18858,-0.127 0.36002,-0.254 0.18001,-0.13546 0.30859,-0.27093 0.13715,-0.14393 0.2143,-0.29633 0.0771,-0.16087 0.0771,-0.34714 0,-0.24553 -0.12858,-0.42333 -0.12001,-0.18627 -0.40288,-0.18627 -0.31716,0 -0.50575,0.2286 -0.18858,0.2286 -0.18858,0.57574 z m 0.44574,3.89466 q 0.29145,0 0.55718,-0.11853 0.26573,-0.11853 0.51431,-0.3302 -0.41145,-0.3556 -0.79719,-0.77047 -0.37716,-0.42333 -0.67718,-0.88053 -0.30002,0.23707 -0.50574,0.49953 -0.19716,0.254 -0.19716,0.57574 0,0.2286 0.0857,0.42333 0.0857,0.18627 0.23145,0.32173 0.15429,0.13547 0.35144,0.21167 0.20573,0.0677 0.43717,0.0677 z"
           style="font-style:normal;font-variant:normal;font-weight:normal;font-stretch:normal;font-size:32px;line-height:1.25;font-family:'Source Sans Pro';-inkscape-font-specification:'Source Sans Pro';letter-spacing:0px;word-spacing:0px;fill:#133a5e;fill-opacity:1;stroke:none;stroke-width:0.26622289"
           id="path9613" />
        <path
           d="m 205.89128,184.06834 v -5.55413 h 0.85719 l 1.08006,2.96333 q 0.10286,0.28787 0.19715,0.5842 0.10287,0.28787 0.20573,0.57574 h 0.0343 q 0.10286,-0.28787 0.18858,-0.57574 0.0943,-0.29633 0.19716,-0.5842 l 1.06291,-2.96333 h 0.86577 v 5.55413 h -0.66861 v -3.05646 q 0,-0.37254 0.0343,-0.82127 0.0343,-0.44873 0.06,-0.82127 h -0.0343 l -0.44574,1.26154 -1.06292,2.87866 h -0.47145 l -1.06292,-2.87866 -0.44574,-1.26154 h -0.0343 q 0.0257,0.37254 0.0514,0.82127 0.0343,0.44873 0.0343,0.82127 v 3.05646 z"
           style="font-style:normal;font-variant:normal;font-weight:normal;font-stretch:normal;font-size:32px;line-height:1.25;font-family:'Source Sans Pro';-inkscape-font-specification:'Source Sans Pro';letter-spacing:0px;word-spacing:0px;fill:#133a5e;fill-opacity:1;stroke:none;stroke-width:0.26622289"
           id="path9615" />
        <path
           d="m 213.01079,184.16994 q -0.52288,0 -0.87433,-0.3048 -0.34288,-0.3048 -0.34288,-0.8636 0,-0.67733 0.60861,-1.03293 0.6086,-0.36407 1.94582,-0.508 0,-0.19473 -0.0429,-0.381 -0.0343,-0.18627 -0.12857,-0.3302 -0.0943,-0.14393 -0.26573,-0.2286 -0.16287,-0.0931 -0.42003,-0.0931 -0.36002,0 -0.67718,0.13546 -0.31716,0.13547 -0.56575,0.3048 l -0.2743,-0.4826 q 0.29145,-0.18626 0.71147,-0.3556 0.42003,-0.1778 0.92577,-0.1778 0.7629,0 1.10578,0.46567 0.34287,0.4572 0.34287,1.22767 v 2.52306 h -0.58289 l -0.06,-0.49106 h -0.0257 q -0.30001,0.24553 -0.64289,0.42333 -0.34288,0.16933 -0.73719,0.16933 z m 0.20573,-0.5588 q 0.30002,0 0.56575,-0.13546 0.26573,-0.14394 0.56574,-0.41487 v -1.143 q -0.52288,0.0677 -0.8829,0.16087 -0.35145,0.0931 -0.57432,0.22013 -0.2143,0.127 -0.31716,0.29633 -0.0943,0.16087 -0.0943,0.3556 0,0.3556 0.2143,0.508 0.2143,0.1524 0.52289,0.1524 z"
           style="font-style:normal;font-variant:normal;font-weight:normal;font-stretch:normal;font-size:32px;line-height:1.25;font-family:'Source Sans Pro';-inkscape-font-specification:'Source Sans Pro';letter-spacing:0px;word-spacing:0px;fill:#133a5e;fill-opacity:1;stroke:none;stroke-width:0.26622289"
           id="path9617" />
        <path
           d="m 216.37018,184.06834 v -4.1148 h 0.7029 v 4.1148 z m 0.36003,-4.96146 q -0.20573,0 -0.35145,-0.127 -0.13715,-0.127 -0.13715,-0.32174 0,-0.2032 0.13715,-0.32173 0.14572,-0.127 0.35145,-0.127 0.20572,0 0.34287,0.127 0.14572,0.11853 0.14572,0.32173 0,0.19474 -0.14572,0.32174 -0.13715,0.127 -0.34287,0.127 z"
           style="font-style:normal;font-variant:normal;font-weight:normal;font-stretch:normal;font-size:32px;line-height:1.25;font-family:'Source Sans Pro';-inkscape-font-specification:'Source Sans Pro';letter-spacing:0px;word-spacing:0px;fill:#133a5e;fill-opacity:1;stroke:none;stroke-width:0.26622289"
           id="path9619" />
        <path
           d="m 218.47968,184.06834 v -4.1148 h 0.58289 l 0.06,0.59267 h 0.0257 q 0.30002,-0.29633 0.62575,-0.49107 0.33431,-0.2032 0.77147,-0.2032 0.66004,0 0.96006,0.4064 0.30859,0.4064 0.30859,1.20227 v 2.60773 h -0.7029 v -2.5146 q 0,-0.5842 -0.18858,-0.8382 -0.18858,-0.26246 -0.60004,-0.26246 -0.32573,0 -0.57431,0.16086 -0.24859,0.16087 -0.56575,0.47414 v 2.98026 z"
           style="font-style:normal;font-variant:normal;font-weight:normal;font-stretch:normal;font-size:32px;line-height:1.25;font-family:'Source Sans Pro';-inkscape-font-specification:'Source Sans Pro';letter-spacing:0px;word-spacing:0px;fill:#133a5e;fill-opacity:1;stroke:none;stroke-width:0.26622289"
           id="path9621" />
        <path
           d="m 224.47896,184.16994 q -0.33431,0 -0.56575,-0.1016 -0.22287,-0.1016 -0.36859,-0.2794 -0.13715,-0.1778 -0.19716,-0.4318 -0.06,-0.254 -0.06,-0.5588 v -2.27753 h -0.61718 v -0.52493 l 0.65147,-0.0423 0.0857,-1.15146 h 0.59146 v 1.15146 h 1.12292 v 0.56727 h -1.12292 v 2.286 q 0,0.381 0.13715,0.59267 0.14572,0.2032 0.50574,0.2032 0.11144,0 0.24002,-0.0339 0.12858,-0.0339 0.23144,-0.0762 l 0.13715,0.52493 q -0.17144,0.0593 -0.37717,0.1016 -0.19715,0.0508 -0.3943,0.0508 z"
           style="font-style:normal;font-variant:normal;font-weight:normal;font-stretch:normal;font-size:32px;line-height:1.25;font-family:'Source Sans Pro';-inkscape-font-specification:'Source Sans Pro';letter-spacing:0px;word-spacing:0px;fill:#133a5e;fill-opacity:1;stroke:none;stroke-width:0.26622289"
           id="path9623" />
        <path
           d="m 227.6353,184.16994 q -0.42003,0 -0.78862,-0.14393 -0.36002,-0.1524 -0.63432,-0.42333 -0.26573,-0.2794 -0.42002,-0.67734 -0.1543,-0.39793 -0.1543,-0.90593 0,-0.508 0.1543,-0.90593 0.16286,-0.4064 0.42002,-0.6858 0.26573,-0.2794 0.60003,-0.42334 0.33431,-0.1524 0.69433,-0.1524 0.39431,0 0.7029,0.13547 0.31716,0.13547 0.52289,0.38947 0.21429,0.254 0.32573,0.6096 0.11143,0.3556 0.11143,0.79586 0,0.11007 -0.009,0.22014 0,0.1016 -0.0171,0.1778 h -2.81159 q 0.0429,0.6604 0.41145,1.04986 0.37716,0.381 0.9772,0.381 0.30002,0 0.5486,-0.0847 0.25716,-0.0931 0.4886,-0.23707 l 0.24859,0.4572 q -0.2743,0.16933 -0.60861,0.29633 -0.3343,0.127 -0.7629,0.127 z m -1.31151,-2.4892 h 2.22871 q 0,-0.62653 -0.27431,-0.94826 -0.26573,-0.3302 -0.75433,-0.3302 -0.22287,0 -0.42859,0.0847 -0.19716,0.0847 -0.36002,0.254 -0.16287,0.16087 -0.2743,0.39794 -0.10287,0.23706 -0.13716,0.54186 z"
           style="font-style:normal;font-variant:normal;font-weight:normal;font-stretch:normal;font-size:32px;line-height:1.25;font-family:'Source Sans Pro';-inkscape-font-specification:'Source Sans Pro';letter-spacing:0px;word-spacing:0px;fill:#133a5e;fill-opacity:1;stroke:none;stroke-width:0.26622289"
           id="path9625" />
        <path
           d="m 230.19911,184.06834 v -4.1148 h 0.58289 l 0.06,0.59267 h 0.0257 q 0.30002,-0.29633 0.62575,-0.49107 0.3343,-0.2032 0.77147,-0.2032 0.66004,0 0.96006,0.4064 0.30859,0.4064 0.30859,1.20227 v 2.60773 h -0.7029 v -2.5146 q 0,-0.5842 -0.18858,-0.8382 -0.18859,-0.26246 -0.60004,-0.26246 -0.32573,0 -0.57432,0.16086 -0.24858,0.16087 -0.56574,0.47414 v 2.98026 z"
           style="font-style:normal;font-variant:normal;font-weight:normal;font-stretch:normal;font-size:32px;line-height:1.25;font-family:'Source Sans Pro';-inkscape-font-specification:'Source Sans Pro';letter-spacing:0px;word-spacing:0px;fill:#133a5e;fill-opacity:1;stroke:none;stroke-width:0.26622289"
           id="path9627" />
        <path
           d="m 235.84693,184.16994 q -0.52288,0 -0.87433,-0.3048 -0.34288,-0.3048 -0.34288,-0.8636 0,-0.67733 0.60861,-1.03293 0.6086,-0.36407 1.94582,-0.508 0,-0.19473 -0.0429,-0.381 -0.0343,-0.18627 -0.12857,-0.3302 -0.0943,-0.14393 -0.26573,-0.2286 -0.16287,-0.0931 -0.42003,-0.0931 -0.36002,0 -0.67718,0.13546 -0.31716,0.13547 -0.56575,0.3048 l -0.2743,-0.4826 q 0.29145,-0.18626 0.71147,-0.3556 0.42003,-0.1778 0.92577,-0.1778 0.7629,0 1.10578,0.46567 0.34287,0.4572 0.34287,1.22767 v 2.52306 h -0.58289 l -0.06,-0.49106 h -0.0257 q -0.30001,0.24553 -0.64289,0.42333 -0.34288,0.16933 -0.73719,0.16933 z m 0.20573,-0.5588 q 0.30002,0 0.56575,-0.13546 0.26573,-0.14394 0.56574,-0.41487 v -1.143 q -0.52288,0.0677 -0.8829,0.16087 -0.35145,0.0931 -0.57432,0.22013 -0.2143,0.127 -0.31716,0.29633 -0.0943,0.16087 -0.0943,0.3556 0,0.3556 0.2143,0.508 0.2143,0.1524 0.52289,0.1524 z"
           style="font-style:normal;font-variant:normal;font-weight:normal;font-stretch:normal;font-size:32px;line-height:1.25;font-family:'Source Sans Pro';-inkscape-font-specification:'Source Sans Pro';letter-spacing:0px;word-spacing:0px;fill:#133a5e;fill-opacity:1;stroke:none;stroke-width:0.26622289"
           id="path9629" />
        <path
           d="m 239.20632,184.06834 v -4.1148 h 0.5829 l 0.06,0.59267 h 0.0257 q 0.30002,-0.29633 0.62575,-0.49107 0.33431,-0.2032 0.77148,-0.2032 0.66004,0 0.96005,0.4064 0.30859,0.4064 0.30859,1.20227 v 2.60773 h -0.70289 v -2.5146 q 0,-0.5842 -0.18859,-0.8382 -0.18858,-0.26246 -0.60003,-0.26246 -0.32574,0 -0.57432,0.16086 -0.24859,0.16087 -0.56575,0.47414 v 2.98026 z"
           style="font-style:normal;font-variant:normal;font-weight:normal;font-stretch:normal;font-size:32px;line-height:1.25;font-family:'Source Sans Pro';-inkscape-font-specification:'Source Sans Pro';letter-spacing:0px;word-spacing:0px;fill:#133a5e;fill-opacity:1;stroke:none;stroke-width:0.26622289"
           id="path9631" />
        <path
           d="m 245.5399,184.16994 q -0.41145,0 -0.77147,-0.14393 -0.36002,-0.14393 -0.62575,-0.41487 -0.25716,-0.2794 -0.41145,-0.67733 -0.14572,-0.4064 -0.14572,-0.9144 0,-0.51647 0.16286,-0.9144 0.16287,-0.4064 0.43717,-0.6858 0.2743,-0.2794 0.63432,-0.42333 0.3686,-0.14394 0.77148,-0.14394 0.41145,0 0.70289,0.14394 0.29145,0.14393 0.51432,0.33866 l -0.36002,0.4572 q -0.18001,-0.16086 -0.38574,-0.26246 -0.19715,-0.1016 -0.44574,-0.1016 -0.28287,0 -0.52289,0.11853 -0.24001,0.11007 -0.41145,0.32173 -0.17144,0.21167 -0.2743,0.508 -0.0943,0.28787 -0.0943,0.64347 0,0.3556 0.0943,0.64347 0.0943,0.28786 0.25716,0.49953 0.17144,0.2032 0.41145,0.32173 0.24001,0.11007 0.52289,0.11007 0.29144,0 0.53146,-0.11853 0.24858,-0.127 0.44574,-0.29634 l 0.30859,0.46567 q -0.28288,0.24553 -0.62575,0.38947 -0.34288,0.13546 -0.72005,0.13546 z"
           style="font-style:normal;font-variant:normal;font-weight:normal;font-stretch:normal;font-size:32px;line-height:1.25;font-family:'Source Sans Pro';-inkscape-font-specification:'Source Sans Pro';letter-spacing:0px;word-spacing:0px;fill:#133a5e;fill-opacity:1;stroke:none;stroke-width:0.26622289"
           id="path9633" />
        <path
           d="m 249.2995,184.16994 q -0.42003,0 -0.78862,-0.14393 -0.36002,-0.1524 -0.63432,-0.42333 -0.26573,-0.2794 -0.42003,-0.67734 -0.15429,-0.39793 -0.15429,-0.90593 0,-0.508 0.15429,-0.90593 0.16287,-0.4064 0.42003,-0.6858 0.26573,-0.2794 0.60003,-0.42334 0.33431,-0.1524 0.69433,-0.1524 0.39431,0 0.7029,0.13547 0.31716,0.13547 0.52288,0.38947 0.2143,0.254 0.32574,0.6096 0.11143,0.3556 0.11143,0.79586 0,0.11007 -0.009,0.22014 0,0.1016 -0.0171,0.1778 h -2.8116 q 0.0429,0.6604 0.41146,1.04986 0.37716,0.381 0.9772,0.381 0.30001,0 0.5486,-0.0847 0.25716,-0.0931 0.4886,-0.23707 l 0.24858,0.4572 q -0.2743,0.16933 -0.6086,0.29633 -0.33431,0.127 -0.7629,0.127 z m -1.31151,-2.4892 h 2.2287 q 0,-0.62653 -0.2743,-0.94826 -0.26573,-0.3302 -0.75433,-0.3302 -0.22287,0 -0.42859,0.0847 -0.19716,0.0847 -0.36003,0.254 -0.16286,0.16087 -0.2743,0.39794 -0.10286,0.23706 -0.13715,0.54186 z"
           style="font-style:normal;font-variant:normal;font-weight:normal;font-stretch:normal;font-size:32px;line-height:1.25;font-family:'Source Sans Pro';-inkscape-font-specification:'Source Sans Pro';letter-spacing:0px;word-spacing:0px;fill:#133a5e;fill-opacity:1;stroke:none;stroke-width:0.26622289"
           id="path9635" />
        <g
           id="g10398"
           transform="translate(0,1.6)">
          <path
             style="fill:#133a5e;fill-opacity:1;fill-rule:nonzero;stroke:#000000;stroke-width:0.1;stroke-linejoin:round;stroke-miterlimit:4;stroke-dasharray:none;stroke-opacity:1"
             d="m 108.11346,161.62513 c -0.49968,-0.0548 -0.99574,-0.0808 -1.48644,-0.0792 -1.92999,0.006 -3.77716,0.43807 -5.43628,1.21296 -1.907824,0.89104 -3.566985,2.23565 -4.817471,3.90816 -1.283712,1.71695 -2.136743,3.77946 -2.38598,6.05158 -0.09461,0.91186 -0.08705,1.83153 0.02251,2.74266 0.236032,-0.66937 0.525785,-1.344 0.863738,-2.0118 0.609821,-1.20503 1.376582,-2.38784 2.267839,-3.4775 0.948368,-1.15949 2.037699,-2.21352 3.228904,-3.07661 0.8963,-0.64942 1.85027,-1.19075 2.84527,-1.58758 1.49054,-0.59446 3.07315,-0.86464 4.69183,-0.68816 2.01034,0.22275 3.9202,1.2146 5.60355,2.62324 0.90265,0.75535 1.74018,1.63053 2.49314,2.57124 0.73151,0.9139 1.38321,1.88964 1.93729,2.87741 0.62559,1.11524 1.12673,2.24582 1.47778,3.32005 0.0301,-0.16427 0.0564,-0.32913 0.0795,-0.49451 0.10799,-0.9845 0.0968,-1.95516 -0.0223,-2.89813 -0.20398,-1.61563 -0.72454,-3.14997 -1.5046,-4.53336 -1.04743,-1.85756 -2.56274,-3.44295 -4.40772,-4.58753 -1.59925,-0.99215 -3.4462,-1.65308 -5.45083,-1.87298 z"
             id="path10255" />
          <g
             id="g10330"
             style="fill:#133a5e;fill-opacity:1"
             transform="translate(-9.6,-22.8)">
            <g
               id="g10321"
               style="fill:#133a5e;fill-opacity:1">
              <path
                 id="path10297"
                 d="m 104.87056,201.27526 c 0.70735,-1.31102 1.63349,-2.89479 2.67407,-4.17887 1.04057,-1.28407 2.19566,-2.26845 3.29644,-2.84956 1.10077,-0.58111 2.14797,-0.75942 3.20978,-0.76193 1.06181,-0.002 2.13915,0.17076 3.15173,0.77535 1.01258,0.60459 2.01759,1.70256 2.88072,2.59132 0.86313,0.88875 1.65508,1.63941 2.33453,2.33395 0.67946,0.69454 1.2663,1.3516 2.02136,1.90613 0.75505,0.55453 1.68041,1.00712 2.90175,1.43001 1.22134,0.42289 2.78071,0.82734 4.07745,0.98169 1.29673,0.15435 2.35133,0.0639 3.39438,-0.15828 1.04304,-0.22221 2.07517,-0.5763 2.17071,-0.49608 0.0955,0.0802 -0.74578,0.59507 -1.81427,1.04084 -1.0685,0.44577 -2.36353,0.82225 -4.02404,0.87972 -1.66051,0.0575 -3.75251,-0.21293 -5.64686,-0.87566 -1.89434,-0.66274 -3.7146,-1.77752 -5.1646,-2.71352 -1.45,-0.93601 -2.58466,-1.72773 -3.80223,-2.23735 -1.21757,-0.50962 -2.60851,-0.75566 -3.76138,-0.69923 -1.15287,0.0564 -2.08321,0.3979 -3.03035,0.79151 -0.94715,0.39362 -1.86976,0.82156 -3.00664,1.85531 -1.13687,1.03375 -2.47392,2.66684 -3.0979,3.3946 -0.62399,0.72777 -0.53579,0.55138 -0.24762,-0.0557 0.28818,-0.60705 0.77562,-1.64325 1.48297,-2.95427 z"
                 style="fill:#133a5e;fill-opacity:1;stroke:#000000;stroke-width:0.26458332px;stroke-linecap:butt;stroke-linejoin:miter;stroke-opacity:1" />
              <path
                 id="path10310"
                 d="m 103.71667,205.18959 c 0.79375,-0.79375 1.58776,-1.58776 2.46952,-2.38134 0.88177,-0.79358 1.8523,-1.58765 2.77822,-2.16081 0.92592,-0.57315 1.80813,-0.92604 2.77805,-1.10236 0.96992,-0.17633 1.98717,-0.18478 2.95451,4e-5 0.90082,0.17211 1.7295,0.62005 2.55756,1.01426 0.92363,0.43971 1.79662,0.97964 2.67672,1.50104 0.71583,0.42409 1.38735,0.92247 2.11667,1.32292 0.44836,0.24618 0.91487,0.45905 1.38463,0.66144 0.47819,0.20602 0.56897,0.29599 1.45748,0.56187 0.88851,0.26588 1.92039,0.62877 1.92039,0.62877 0,0 -1.35085,-0.004 -2.01745,-0.0992 -0.6193,-0.088 -1.22564,-0.25728 -1.82578,-0.43369 -0.56959,-0.16743 -1.12035,-0.39329 -1.67995,-0.59157 -0.64579,-0.22882 -1.28191,-0.48643 -1.93603,-0.69023 -1.02487,-0.31931 -2.14061,-0.61233 -3.11081,-0.83283 -0.97021,-0.22051 -1.852,-0.39686 -2.71841,-0.40001 -0.86642,-0.003 -1.77933,0.17943 -2.70325,0.39933 -0.92393,0.2199 -1.89829,0.48563 -2.79982,0.82612 -0.90154,0.34049 -1.83249,0.80597 -2.53815,1.11471 -0.70565,0.30874 -1.23493,0.48517 -1.7641,0.66156 z"
                 style="fill:#133a5e;fill-opacity:1;stroke:#000000;stroke-width:0.26458332px;stroke-linecap:butt;stroke-linejoin:miter;stroke-opacity:1" />
              <path
                 id="path10314"
                 d="m 108.47917,195.13542 c 0.79375,-0.61736 1.58779,-1.23495 2.55772,-1.67579 0.96993,-0.44085 2.11689,-0.70553 3.17503,-0.7055 1.05814,2e-5 2.02853,0.26467 2.77811,0.61744 0.74958,0.35276 1.27874,0.79373 1.76381,1.23469 0.48506,0.44097 0.8954,0.85131 1.31984,1.27575 0.42444,0.42444 0.73933,0.73933 1.19703,1.19703 0.45769,0.4577 0.96679,0.96679 1.49596,1.49596 -0.52917,-0.97014 -1.05839,-1.94037 -1.67571,-2.95454 -0.61732,-1.01417 -1.32294,-2.0726 -2.16075,-2.9545 -0.83781,-0.88189 -1.80795,-1.58745 -2.60163,-2.02842 -0.79368,-0.44096 -1.41097,-0.61733 -2.11654,-0.66147 -0.70558,-0.0442 -1.49925,0.044 -2.2048,0.30854 -0.70555,0.26449 -1.32268,0.70529 -1.7639,1.23461 -0.44122,0.52931 -0.70561,1.14622 -0.97028,1.7638 -0.26468,0.61759 -0.52931,1.23504 -0.79389,1.8524 z"
                 style="fill:#133a5e;fill-opacity:1;stroke:#000000;stroke-width:0.26458332px;stroke-linecap:butt;stroke-linejoin:miter;stroke-opacity:1" />
            </g>
          </g>
        </g>
      </g>
    </g>
  </g>
</svg>
