<svg xmlns="http://www.w3.org/2000/svg" width="31.39" height="31.39"><g fill="#144d75"><path d="M27.851 21.77a1.73 1.73 0 0 1-2.605 0 5.605 5.605 0 0 0-4.244-1.933 5.605 5.605 0 0 0-4.216 1.897 1.73 1.73 0 0 1-2.586.001 5.605 5.605 0 0 0-4.215-1.898 5.598 5.598 0 0 0-4.214 1.898 1.731 1.731 0 0 1-2.587.001A5.603 5.603 0 0 0 0 19.948v3.414c.27.134.519.315.728.552a5.018 5.018 0 0 0 3.749 1.684 5.002 5.002 0 0 0 3.747-1.686 2.334 2.334 0 0 1 1.762-.794 2.32 2.32 0 0 1 1.76.795 5.008 5.008 0 0 0 7.495 0 2.33 2.33 0 0 1 1.763-.795c.926 0 1.507.508 1.771.809a5.009 5.009 0 0 0 7.55 0 2.405 2.405 0 0 1 1.065-.694v-3.319c-1.408.178-2.652.841-3.539 1.856zm.57-7.252a4.047 4.047 0 0 1-4.047 4.047 4.047 4.047 0 0 1-4.047-4.047 4.047 4.047 0 0 1 4.047-4.047 4.047 4.047 0 0 1 4.047 4.047z"/><path d="M15.018 21.01c.24.268.708.27.949-.001a6.743 6.743 0 0 1 3.949-2.168 3.79 3.79 0 0 0-.15-1.898c-.117-.331-1.404-4.654-1.404-4.654-.002-.009-.156-.9.391-1.701.542-.793 1.677-1.337 3.277-1.577a1.641 1.641 0 1 0-.485-3.245c-2.562.382-4.415 1.381-5.501 2.968-1.352 1.975-.936 4.049-.875 4.31l.348 1.41c-.212.037-.426.08-.634.154l-6.62 2.337a3.827 3.827 0 0 0-2.543 3.341 6.722 6.722 0 0 1 4.268-1.543 6.72 6.72 0 0 1 5.03 2.267z"/></g></svg>