<?xml version="1.0" encoding="UTF-8" standalone="no"?>
<!-- Generator: Adobe Illustrator 18.0.0, SVG Export Plug-In . SVG Version: 6.00 Build 0)  -->

<svg
   xmlns:dc="http://purl.org/dc/elements/1.1/"
   xmlns:cc="http://creativecommons.org/ns#"
   xmlns:rdf="http://www.w3.org/1999/02/22-rdf-syntax-ns#"
   xmlns:svg="http://www.w3.org/2000/svg"
   xmlns="http://www.w3.org/2000/svg"
   xmlns:sodipodi="http://sodipodi.sourceforge.net/DTD/sodipodi-0.dtd"
   xmlns:inkscape="http://www.inkscape.org/namespaces/inkscape"
   version="1.1"
   id="Capa_1"
   x="0px"
   y="0px"
   viewBox="0 0 490.29 490.29"
   style="enable-background:new 0 0 490.29 490.29;"
   xml:space="preserve"
   sodipodi:docname="001-hot.svg"
   inkscape:version="0.92.2 (5c3e80d, 2017-08-06)"><metadata
     id="metadata6816"><rdf:RDF><cc:Work
         rdf:about=""><dc:format>image/svg+xml</dc:format><dc:type
           rdf:resource="http://purl.org/dc/dcmitype/StillImage" /><dc:title></dc:title></cc:Work></rdf:RDF></metadata><defs
     id="defs6814" /><sodipodi:namedview
     pagecolor="#ffffff"
     bordercolor="#666666"
     borderopacity="1"
     objecttolerance="10"
     gridtolerance="10"
     guidetolerance="10"
     inkscape:pageopacity="0"
     inkscape:pageshadow="2"
     inkscape:window-width="862"
     inkscape:window-height="480"
     id="namedview6812"
     showgrid="false"
     inkscape:zoom="0.48134777"
     inkscape:cx="302.25682"
     inkscape:cy="236.06195"
     inkscape:window-x="74"
     inkscape:window-y="125"
     inkscape:window-maximized="0"
     inkscape:current-layer="XMLID_47_" /><g
     id="XMLID_47_"><g
       id="g7365"><path
         style="fill:#144d75;fill-opacity:1"
         d="M249.457,288.49c30.062-11.866,23.138-60.108,22.148-69.072c-1.054-8.784-12.527-52.148-2.168-66.096   c-30.458,10.711-23.261,57.106-21.771,72.032C249.586,244.6,260.611,271.003,249.457,288.49z"
         id="XMLID_54_" /><path
         style="fill:#144d75;fill-opacity:1"
         d="M363.07,306.887c30.061-11.866,23.138-60.108,22.148-69.073c-1.054-8.784-12.527-52.148-2.168-66.096   c-30.459,10.711-23.261,57.106-21.772,72.032C363.199,262.996,374.225,289.399,363.07,306.887z"
         id="XMLID_53_" /><path
         style="fill:#144d75;fill-opacity:1"
         d="M245.145,315.569c-11.893,0-37.636,0.255-68.081,2.024V214.782c0-28.91-23.522-52.428-52.448-52.428   c-9.031,0-17.398,2.506-24.834,6.536c9.118,7.183,16.537,16.264,21.66,26.788c1.073-0.175,2.059-0.639,3.174-0.639   c10.888,0,19.759,8.857,19.759,19.743v25.912l-39.502,6.342v-17.954c0-28.914-23.508-52.428-52.424-52.428   C23.532,176.655,0,200.169,0,229.083v30.65c0,9.024,7.327,16.342,16.35,16.342c9.031,0,16.341-7.317,16.341-16.342v-30.65   c0-10.886,8.871-19.74,19.759-19.74c10.881,0,19.742,8.855,19.742,19.74v101.373C31.508,339.355,0,353.535,0,376.175   c0,57.687,204.226,60.607,245.145,60.607c40.952,0,245.145-2.92,245.145-60.607C490.29,318.488,286.098,315.569,245.145,315.569z    M104.873,280.14l39.502-6.347v46.21c-13.101,1.191-26.444,2.69-39.502,4.592V280.14z M245.145,403.724   c-134.323,0-198.308-12.335-198.308-27.549c0-15.214,65.147-27.548,198.308-27.548c135.419,0,198.307,12.334,198.307,27.548   C443.452,391.389,373.588,403.724,245.145,403.724z"
         id="XMLID_49_" /><path
         style="fill:#144d75;fill-opacity:1"
         d="M313.637,188.677c30.061-11.866,23.138-60.108,22.148-69.072c-1.054-8.784-12.527-52.148-2.168-66.096   c-30.458,10.711-23.26,57.106-21.771,72.031C313.766,144.786,324.792,171.19,313.637,188.677z"
         id="XMLID_48_" /></g></g><g
     id="g6781" /><g
     id="g6783" /><g
     id="g6785" /><g
     id="g6787" /><g
     id="g6789" /><g
     id="g6791" /><g
     id="g6793" /><g
     id="g6795" /><g
     id="g6797" /><g
     id="g6799" /><g
     id="g6801" /><g
     id="g6803" /><g
     id="g6805" /><g
     id="g6807" /><g
     id="g6809" /></svg>