<?xml version="1.0" encoding="UTF-8" standalone="no"?>
<!-- Generator: Adobe Illustrator 18.0.0, SVG Export Plug-In . SVG Version: 6.00 Build 0)  -->

<svg
   xmlns:dc="http://purl.org/dc/elements/1.1/"
   xmlns:cc="http://creativecommons.org/ns#"
   xmlns:rdf="http://www.w3.org/1999/02/22-rdf-syntax-ns#"
   xmlns:svg="http://www.w3.org/2000/svg"
   xmlns="http://www.w3.org/2000/svg"
   xmlns:sodipodi="http://sodipodi.sourceforge.net/DTD/sodipodi-0.dtd"
   xmlns:inkscape="http://www.inkscape.org/namespaces/inkscape"
   version="1.1"
   id="Capa_1"
   x="0px"
   y="0px"
   viewBox="0 0 303.477 303.477"
   style="enable-background:new 0 0 303.477 303.477;"
   xml:space="preserve"
   sodipodi:docname="003-construction.svg"
   inkscape:version="0.92.2 (5c3e80d, 2017-08-06)"><metadata
     id="metadata6186"><rdf:RDF><cc:Work
         rdf:about=""><dc:format>image/svg+xml</dc:format><dc:type
           rdf:resource="http://purl.org/dc/dcmitype/StillImage" /><dc:title></dc:title></cc:Work></rdf:RDF></metadata><defs
     id="defs6184" /><sodipodi:namedview
     pagecolor="#ffffff"
     bordercolor="#666666"
     borderopacity="1"
     objecttolerance="10"
     gridtolerance="10"
     guidetolerance="10"
     inkscape:pageopacity="0"
     inkscape:pageshadow="2"
     inkscape:window-width="901"
     inkscape:window-height="584"
     id="namedview6182"
     showgrid="false"
     inkscape:zoom="0.77765369"
     inkscape:cx="172.35403"
     inkscape:cy="151.73849"
     inkscape:window-x="779"
     inkscape:window-y="85"
     inkscape:window-maximized="0"
     inkscape:current-layer="Capa_1" /><g
     id="g6732"><path
       style="fill:#144d75;fill-opacity:1"
       id="path6149"
       d="M298.604,64.209l-49.978,49.979L204.907,98.57L189.29,54.852l49.979-49.979c-32.791-10.97-70.418-3.42-96.529,22.692  c-25.629,25.629-33.373,62.349-23.281,94.704c-1.359,1.07-2.676,2.222-3.93,3.476L12.884,228.389  c-17.178,17.177-17.178,45.027,0,62.205c17.178,17.178,45.029,17.178,62.207,0l102.645-102.645c1.254-1.254,2.404-2.57,3.475-3.929  c32.355,10.092,69.074,2.347,94.703-23.282C302.024,134.626,309.575,97.001,298.604,64.209z" /></g><g
     id="g6151" /><g
     id="g6153" /><g
     id="g6155" /><g
     id="g6157" /><g
     id="g6159" /><g
     id="g6161" /><g
     id="g6163" /><g
     id="g6165" /><g
     id="g6167" /><g
     id="g6169" /><g
     id="g6171" /><g
     id="g6173" /><g
     id="g6175" /><g
     id="g6177" /><g
     id="g6179" /></svg>