<?xml version="1.0" encoding="UTF-8" standalone="no"?>
<!-- Created with Inkscape (http://www.inkscape.org/) -->

<svg
   xmlns:osb="http://www.openswatchbook.org/uri/2009/osb"
   xmlns:dc="http://purl.org/dc/elements/1.1/"
   xmlns:cc="http://creativecommons.org/ns#"
   xmlns:rdf="http://www.w3.org/1999/02/22-rdf-syntax-ns#"
   xmlns:svg="http://www.w3.org/2000/svg"
   xmlns="http://www.w3.org/2000/svg"
   xmlns:sodipodi="http://sodipodi.sourceforge.net/DTD/sodipodi-0.dtd"
   xmlns:inkscape="http://www.inkscape.org/namespaces/inkscape"
   width="297mm"
   height="210mm"
   viewBox="0 0 297 210"
   version="1.1"
   id="svg9551"
   inkscape:version="0.92.2 (5c3e80d, 2017-08-06)"
   sodipodi:docname="Beemer-logo2.svg">
  <defs
     id="defs9545">
    <linearGradient
       id="linearGradient10334"
       osb:paint="solid">
      <stop
         style="stop-color:#133a5e;stop-opacity:1;"
         offset="0"
         id="stop10332" />
    </linearGradient>
    <inkscape:path-effect
       effect="bspline"
       id="path-effect10316"
       is_visible="true"
       weight="33.333333"
       steps="2"
       helper_size="0"
       apply_no_weight="true"
       apply_with_weight="true"
       only_selected="false" />
    <inkscape:path-effect
       effect="bspline"
       id="path-effect10312"
       is_visible="true"
       weight="33.333333"
       steps="2"
       helper_size="0"
       apply_no_weight="true"
       apply_with_weight="true"
       only_selected="false" />
    <inkscape:path-effect
       effect="bspline"
       id="path-effect10299"
       is_visible="true"
       weight="33.333333"
       steps="2"
       helper_size="0"
       apply_no_weight="true"
       apply_with_weight="true"
       only_selected="false" />
  </defs>
  <sodipodi:namedview
     id="base"
     pagecolor="#ffffff"
     bordercolor="#666666"
     borderopacity="1.0"
     inkscape:pageopacity="0.0"
     inkscape:pageshadow="2"
     inkscape:zoom="2"
     inkscape:cx="655.31016"
     inkscape:cy="465.90792"
     inkscape:document-units="mm"
     inkscape:current-layer="g10390"
     showgrid="true"
     inkscape:pagecheckerboard="true"
     inkscape:showpageshadow="true"
     inkscape:window-width="1920"
     inkscape:window-height="1001"
     inkscape:window-x="-9"
     inkscape:window-y="-9"
     inkscape:window-maximized="1">
    <inkscape:grid
       type="xygrid"
       id="grid9553"
       snapvisiblegridlinesonly="false" />
  </sodipodi:namedview>
  <metadata
     id="metadata9548">
    <rdf:RDF>
      <cc:Work
         rdf:about="">
        <dc:format>image/svg+xml</dc:format>
        <dc:type
           rdf:resource="http://purl.org/dc/dcmitype/StillImage" />
        <dc:title></dc:title>
      </cc:Work>
    </rdf:RDF>
  </metadata>
  <g
     inkscape:label="Layer 1"
     inkscape:groupmode="layer"
     id="layer1"
     transform="translate(0,-87)">
    <flowRoot
       xml:space="preserve"
       id="flowRoot9555"
       style="fill:black;fill-opacity:1;stroke:none;font-family:'Source Sans Pro';font-style:normal;font-weight:normal;font-size:32px;line-height:1.25;letter-spacing:0px;word-spacing:0px;-inkscape-font-specification:'Source Sans Pro';font-stretch:normal;font-variant:normal"><flowRegion
         id="flowRegion9557"><rect
           id="rect9559"
           width="556"
           height="96"
           x="475"
           y="307.70081" /></flowRegion><flowPara
         id="flowPara9561"></flowPara></flowRoot>    <g
       id="g10390">
      <g
         id="g10451">
        <g
           id="g10253">
          <g
             id="text9565"
             style="font-style:normal;font-variant:normal;font-weight:normal;font-stretch:normal;font-size:8.46666622px;line-height:1.25;font-family:'Source Sans Pro';-inkscape-font-specification:'Source Sans Pro';letter-spacing:0px;word-spacing:0px;fill:#133a5e;fill-opacity:1;stroke:none;stroke-width:0.26458332"
             aria-label="Beemer Pools Ltd">
            <path
               id="path9638"
               style="font-size:12.69999981px;stroke-width:0.26458332;fill:#133a5e;fill-opacity:1"
               d="m 131.318,176.61459 v -8.3312 h 2.4765 q 0.635,0 1.1557,0.1143 0.5334,0.1143 0.9017,0.3556 0.381,0.2413 0.5842,0.635 0.2159,0.381 0.2159,0.9271 0,0.6223 -0.3175,1.1303 -0.3048,0.4953 -0.9017,0.6858 v 0.0508 q 0.762,0.1397 1.2319,0.635 0.4699,0.4953 0.4699,1.3589 0,0.6096 -0.2286,1.0668 -0.2286,0.4572 -0.6477,0.762 -0.4191,0.3048 -1.0033,0.4572 -0.5842,0.1524 -1.2827,0.1524 z m 1.0541,-4.7879 h 1.2319 q 1.0668,0 1.5367,-0.3683 0.4699,-0.3683 0.4699,-1.0033 0,-0.7239 -0.4953,-1.0287 -0.4826,-0.3048 -1.4605,-0.3048 h -1.2827 z m 0,3.9497 h 1.4478 q 1.0795,0 1.6764,-0.3937 0.5969,-0.4064 0.5969,-1.2446 0,-0.7747 -0.5842,-1.1303 -0.5842,-0.3683 -1.6891,-0.3683 h -1.4478 z" />
            <path
               id="path9640"
               style="font-size:12.69999981px;stroke-width:0.26458332;fill:#133a5e;fill-opacity:1"
               d="m 141.18451,176.76699 q -0.6223,0 -1.1684,-0.2159 -0.5334,-0.2286 -0.9398,-0.635 -0.3937,-0.4191 -0.6223,-1.016 -0.2286,-0.5969 -0.2286,-1.3589 0,-0.762 0.2286,-1.3589 0.2413,-0.6096 0.6223,-1.0287 0.3937,-0.4191 0.889,-0.635 0.4953,-0.2286 1.0287,-0.2286 0.5842,0 1.0414,0.2032 0.4699,0.2032 0.7747,0.5842 0.3175,0.381 0.4826,0.9144 0.1651,0.5334 0.1651,1.1938 0,0.1651 -0.0127,0.3302 0,0.1524 -0.0254,0.2667 h -4.1656 q 0.0635,0.9906 0.6096,1.5748 0.5588,0.5715 1.4478,0.5715 0.4445,0 0.8128,-0.127 0.381,-0.1397 0.7239,-0.3556 l 0.3683,0.6858 q -0.4064,0.254 -0.9017,0.4445 -0.4953,0.1905 -1.1303,0.1905 z m -1.9431,-3.7338 h 3.302 q 0,-0.9398 -0.4064,-1.4224 -0.3937,-0.4953 -1.1176,-0.4953 -0.3302,0 -0.635,0.127 -0.2921,0.127 -0.5334,0.381 -0.2413,0.2413 -0.4064,0.5969 -0.1524,0.3556 -0.2032,0.8128 z" />
            <path
               id="path9642"
               style="font-size:12.69999981px;stroke-width:0.26458332;fill:#133a5e;fill-opacity:1"
               d="m 147.4849,176.76699 q -0.6223,0 -1.1684,-0.2159 -0.5334,-0.2286 -0.9398,-0.635 -0.3937,-0.4191 -0.6223,-1.016 -0.2286,-0.5969 -0.2286,-1.3589 0,-0.762 0.2286,-1.3589 0.2413,-0.6096 0.6223,-1.0287 0.3937,-0.4191 0.889,-0.635 0.4953,-0.2286 1.0287,-0.2286 0.5842,0 1.0414,0.2032 0.4699,0.2032 0.7747,0.5842 0.3175,0.381 0.4826,0.9144 0.1651,0.5334 0.1651,1.1938 0,0.1651 -0.0127,0.3302 0,0.1524 -0.0254,0.2667 h -4.1656 q 0.0635,0.9906 0.6096,1.5748 0.5588,0.5715 1.4478,0.5715 0.4445,0 0.8128,-0.127 0.381,-0.1397 0.7239,-0.3556 l 0.3683,0.6858 q -0.4064,0.254 -0.9017,0.4445 -0.4953,0.1905 -1.1303,0.1905 z m -1.9431,-3.7338 h 3.302 q 0,-0.9398 -0.4064,-1.4224 -0.3937,-0.4953 -1.1176,-0.4953 -0.3302,0 -0.635,0.127 -0.2921,0.127 -0.5334,0.381 -0.2413,0.2413 -0.4064,0.5969 -0.1524,0.3556 -0.2032,0.8128 z" />
            <path
               id="path9644"
               style="font-size:12.69999981px;stroke-width:0.26458332;fill:#133a5e;fill-opacity:1"
               d="m 151.28339,176.61459 v -6.1722 h 0.8636 l 0.0889,0.889 h 0.0381 q 0.4064,-0.4445 0.8763,-0.7366 0.4826,-0.3048 1.0414,-0.3048 0.7112,0 1.1049,0.3175 0.4064,0.3048 0.5969,0.8636 0.4826,-0.5334 0.9652,-0.8509 0.4953,-0.3302 1.0668,-0.3302 0.9525,0 1.4097,0.6096 0.4699,0.6096 0.4699,1.8034 v 3.9116 h -1.0414 v -3.7719 q 0,-0.8763 -0.2794,-1.2573 -0.2794,-0.3937 -0.8636,-0.3937 -0.6985,0 -1.5494,0.9525 v 4.4704 h -1.0414 v -3.7719 q 0,-0.8763 -0.2794,-1.2573 -0.2794,-0.3937 -0.8763,-0.3937 -0.6985,0 -1.5494,0.9525 v 4.4704 z" />
            <path
               id="path9646"
               style="font-size:12.69999981px;stroke-width:0.26458332;fill:#133a5e;fill-opacity:1"
               d="m 164.30248,176.76699 q -0.6223,0 -1.1684,-0.2159 -0.5334,-0.2286 -0.9398,-0.635 -0.3937,-0.4191 -0.6223,-1.016 -0.2286,-0.5969 -0.2286,-1.3589 0,-0.762 0.2286,-1.3589 0.2413,-0.6096 0.6223,-1.0287 0.3937,-0.4191 0.889,-0.635 0.4953,-0.2286 1.0287,-0.2286 0.5842,0 1.0414,0.2032 0.4699,0.2032 0.7747,0.5842 0.3175,0.381 0.4826,0.9144 0.1651,0.5334 0.1651,1.1938 0,0.1651 -0.0127,0.3302 0,0.1524 -0.0254,0.2667 h -4.1656 q 0.0635,0.9906 0.6096,1.5748 0.5588,0.5715 1.4478,0.5715 0.4445,0 0.8128,-0.127 0.381,-0.1397 0.7239,-0.3556 l 0.3683,0.6858 q -0.4064,0.254 -0.9017,0.4445 -0.4953,0.1905 -1.1303,0.1905 z m -1.9431,-3.7338 h 3.302 q 0,-0.9398 -0.4064,-1.4224 -0.3937,-0.4953 -1.1176,-0.4953 -0.3302,0 -0.635,0.127 -0.2921,0.127 -0.5334,0.381 -0.2413,0.2413 -0.4064,0.5969 -0.1524,0.3556 -0.2032,0.8128 z" />
            <path
               id="path9648"
               style="font-size:12.69999981px;stroke-width:0.26458332;fill:#133a5e;fill-opacity:1"
               d="m 168.10097,176.61459 v -6.1722 h 0.8636 l 0.0889,1.1176 h 0.0381 q 0.3175,-0.5842 0.762,-0.9271 0.4572,-0.3429 0.9906,-0.3429 0.3683,0 0.6604,0.127 l -0.2032,0.9144 q -0.1524,-0.0508 -0.2794,-0.0762 -0.127,-0.0254 -0.3175,-0.0254 -0.3937,0 -0.8255,0.3175 -0.4191,0.3175 -0.7366,1.1049 v 3.9624 z" />
            <path
               id="path9650"
               style="font-size:12.69999981px;stroke-width:0.26458332;fill:#133a5e;fill-opacity:1"
               d="m 175.14789,176.61459 v -8.3312 h 2.3749 q 0.6985,0 1.27,0.127 0.5842,0.127 0.9906,0.4191 0.4064,0.2794 0.635,0.7493 0.2286,0.4699 0.2286,1.1557 0,0.6604 -0.2286,1.143 -0.2159,0.4826 -0.6223,0.8001 -0.4064,0.3175 -0.9779,0.4826 -0.5588,0.1524 -1.2446,0.1524 h -1.3716 v 3.302 z m 1.0541,-4.1656 h 1.2446 q 1.0922,0 1.6129,-0.4064 0.5334,-0.4191 0.5334,-1.3081 0,-0.9017 -0.5588,-1.2446 -0.5461,-0.3556 -1.6383,-0.3556 h -1.1938 z" />
            <path
               id="path9652"
               style="font-size:12.69999981px;stroke-width:0.26458332;fill:#133a5e;fill-opacity:1"
               d="m 184.34229,176.76699 q -0.5715,0 -1.0922,-0.2159 -0.508,-0.2159 -0.9017,-0.6223 -0.3937,-0.4191 -0.635,-1.016 -0.2286,-0.6096 -0.2286,-1.3716 0,-0.7747 0.2286,-1.3716 0.2413,-0.6096 0.635,-1.0287 0.3937,-0.4191 0.9017,-0.635 0.5207,-0.2159 1.0922,-0.2159 0.5715,0 1.0795,0.2159 0.5207,0.2159 0.9144,0.635 0.3937,0.4191 0.6223,1.0287 0.2413,0.5969 0.2413,1.3716 0,0.762 -0.2413,1.3716 -0.2286,0.5969 -0.6223,1.016 -0.3937,0.4064 -0.9144,0.6223 -0.508,0.2159 -1.0795,0.2159 z m 0,-0.8636 q 0.3937,0 0.7239,-0.1651 0.3302,-0.1778 0.5588,-0.4826 0.2413,-0.3175 0.3683,-0.7493 0.127,-0.4318 0.127,-0.9652 0,-0.5334 -0.127,-0.9652 -0.127,-0.4445 -0.3683,-0.762 -0.2286,-0.3175 -0.5588,-0.4826 -0.3302,-0.1778 -0.7239,-0.1778 -0.3937,0 -0.7239,0.1778 -0.3302,0.1651 -0.5715,0.4826 -0.2286,0.3175 -0.3556,0.762 -0.127,0.4318 -0.127,0.9652 0,0.5334 0.127,0.9652 0.127,0.4318 0.3556,0.7493 0.2413,0.3048 0.5715,0.4826 0.3302,0.1651 0.7239,0.1651 z" />
            <path
               id="path9654"
               style="font-size:12.69999981px;stroke-width:0.26458332;fill:#133a5e;fill-opacity:1"
               d="m 191.23799,176.76699 q -0.5715,0 -1.0922,-0.2159 -0.508,-0.2159 -0.9017,-0.6223 -0.3937,-0.4191 -0.635,-1.016 -0.2286,-0.6096 -0.2286,-1.3716 0,-0.7747 0.2286,-1.3716 0.2413,-0.6096 0.635,-1.0287 0.3937,-0.4191 0.9017,-0.635 0.5207,-0.2159 1.0922,-0.2159 0.5715,0 1.0795,0.2159 0.5207,0.2159 0.9144,0.635 0.3937,0.4191 0.6223,1.0287 0.2413,0.5969 0.2413,1.3716 0,0.762 -0.2413,1.3716 -0.2286,0.5969 -0.6223,1.016 -0.3937,0.4064 -0.9144,0.6223 -0.508,0.2159 -1.0795,0.2159 z m 0,-0.8636 q 0.3937,0 0.7239,-0.1651 0.3302,-0.1778 0.5588,-0.4826 0.2413,-0.3175 0.3683,-0.7493 0.127,-0.4318 0.127,-0.9652 0,-0.5334 -0.127,-0.9652 -0.127,-0.4445 -0.3683,-0.762 -0.2286,-0.3175 -0.5588,-0.4826 -0.3302,-0.1778 -0.7239,-0.1778 -0.3937,0 -0.7239,0.1778 -0.3302,0.1651 -0.5715,0.4826 -0.2286,0.3175 -0.3556,0.762 -0.127,0.4318 -0.127,0.9652 0,0.5334 0.127,0.9652 0.127,0.4318 0.3556,0.7493 0.2413,0.3048 0.5715,0.4826 0.3302,0.1651 0.7239,0.1651 z" />
            <path
               id="path9656"
               style="font-size:12.69999981px;stroke-width:0.26458332;fill:#133a5e;fill-opacity:1"
               d="m 196.83829,176.76699 q -0.5969,0 -0.8509,-0.3556 -0.254,-0.3556 -0.254,-1.0414 v -7.7978 h 1.0414 v 7.874 q 0,0.254 0.0889,0.3556 0.0889,0.1016 0.2032,0.1016 0.0508,0 0.0889,0 0.0508,0 0.1397,-0.0254 l 0.1397,0.7874 q -0.1016,0.0508 -0.2413,0.0762 -0.1397,0.0254 -0.3556,0.0254 z" />
            <path
               id="path9658"
               style="font-size:12.69999981px;stroke-width:0.26458332;fill:#133a5e;fill-opacity:1"
               d="m 200.59571,176.76699 q -0.6604,0 -1.2573,-0.2413 -0.5969,-0.2413 -1.0414,-0.6096 l 0.5207,-0.6985 q 0.4064,0.3302 0.8255,0.5334 0.4318,0.2032 0.9906,0.2032 0.6096,0 0.9144,-0.2794 0.3048,-0.2794 0.3048,-0.6858 0,-0.2413 -0.127,-0.4191 -0.127,-0.1778 -0.3302,-0.3048 -0.1905,-0.1397 -0.4445,-0.2413 -0.254,-0.1016 -0.508,-0.2032 -0.3302,-0.1143 -0.6604,-0.254 -0.3302,-0.1524 -0.5969,-0.3556 -0.254,-0.2159 -0.4191,-0.4953 -0.1651,-0.2794 -0.1651,-0.6731 0,-0.3683 0.1397,-0.6858 0.1524,-0.3302 0.4191,-0.5588 0.2794,-0.2413 0.6731,-0.3683 0.3937,-0.1397 0.889,-0.1397 0.5842,0 1.0668,0.2032 0.4953,0.2032 0.8509,0.4953 l -0.4953,0.6604 q -0.3175,-0.2413 -0.6604,-0.3937 -0.3429,-0.1524 -0.7493,-0.1524 -0.5842,0 -0.8636,0.2667 -0.2667,0.2667 -0.2667,0.6223 0,0.2159 0.1143,0.381 0.1143,0.1524 0.3048,0.2794 0.1905,0.1143 0.4318,0.2159 0.254,0.0889 0.5207,0.1905 0.3302,0.127 0.6604,0.2667 0.3429,0.1397 0.6096,0.3556 0.2667,0.2032 0.4318,0.508 0.1778,0.3048 0.1778,0.7366 0,0.381 -0.1524,0.7112 -0.1397,0.3302 -0.4318,0.5842 -0.2794,0.254 -0.7112,0.3937 -0.4191,0.1524 -0.9652,0.1524 z" />
            <path
               id="path9660"
               style="font-size:12.69999981px;stroke-width:0.26458332;fill:#133a5e;fill-opacity:1"
               d="m 206.9475,176.61459 v -8.3312 h 1.0541 v 7.4295 h 3.6449 v 0.9017 z" />
            <path
               id="path9662"
               style="font-size:12.69999981px;stroke-width:0.26458332;fill:#133a5e;fill-opacity:1"
               d="m 214.71731,176.76699 q -0.4953,0 -0.8382,-0.1524 -0.3302,-0.1524 -0.5461,-0.4191 -0.2032,-0.2667 -0.2921,-0.6477 -0.0889,-0.381 -0.0889,-0.8382 v -3.4163 h -0.9144 v -0.7874 l 0.9652,-0.0635 0.127,-1.7272 h 0.8763 v 1.7272 h 1.6637 v 0.8509 h -1.6637 v 3.429 q 0,0.5715 0.2032,0.889 0.2159,0.3048 0.7493,0.3048 0.1651,0 0.3556,-0.0508 0.1905,-0.0508 0.3429,-0.1143 l 0.2032,0.7874 q -0.254,0.0889 -0.5588,0.1524 -0.2921,0.0762 -0.5842,0.0762 z" />
            <path
               id="path9664"
               style="font-size:12.69999981px;stroke-width:0.26458332;fill:#133a5e;fill-opacity:1"
               d="m 219,176.76699 q -1.1684,0 -1.8669,-0.8382 -0.6858,-0.8382 -0.6858,-2.3876 0,-0.7493 0.2159,-1.3462 0.2286,-0.6096 0.5969,-1.0287 0.3683,-0.4191 0.8509,-0.6477 0.4826,-0.2286 1.016,-0.2286 0.5334,0 0.9271,0.1905 0.3937,0.1905 0.8001,0.5207 l -0.0508,-1.0541 v -2.3749 h 1.0541 v 9.0424 h -0.8636 l -0.0889,-0.7239 h -0.0381 q -0.3683,0.3556 -0.8509,0.6223 -0.4699,0.254 -1.016,0.254 z m 0.2286,-0.8763 q 0.4318,0 0.8128,-0.2032 0.381,-0.2159 0.762,-0.6477 v -3.2258 q -0.3937,-0.3556 -0.762,-0.4953 -0.3556,-0.1524 -0.7366,-0.1524 -0.3683,0 -0.6985,0.1778 -0.3175,0.1651 -0.5588,0.4826 -0.2413,0.3048 -0.381,0.7366 -0.1397,0.4318 -0.1397,0.9652 0,1.1176 0.4445,1.7399 0.4445,0.6223 1.2573,0.6223 z" />
          </g>
          <g
             id="flowRoot9575"
             style="font-style:normal;font-variant:normal;font-weight:normal;font-stretch:normal;font-size:32px;line-height:1.25;font-family:'Source Sans Pro';-inkscape-font-specification:'Source Sans Pro';letter-spacing:0px;word-spacing:0px;fill:#133a5e;fill-opacity:1;stroke:none"
             transform="matrix(0.26787261,0,0,0.26458333,-3.0506994,84.928661)"
             aria-label="Pool &amp; Spa Service &amp; Maintenance">
            <path
               id="path9583"
               style="fill:#133a5e;fill-opacity:1"
               d="m 500.88,374.70117 v -20.992 h 5.984 q 1.76,0 3.2,0.32 1.472,0.32 2.496,1.056 1.024,0.704 1.6,1.888 0.576,1.184 0.576,2.912 0,1.664 -0.576,2.88 -0.544,1.216 -1.568,2.016 -1.024,0.8 -2.464,1.216 -1.408,0.384 -3.136,0.384 h -3.456 v 8.32 z m 2.656,-10.496 h 3.136 q 2.752,0 4.064,-1.024 1.344,-1.056 1.344,-3.296 0,-2.272 -1.408,-3.136 -1.376,-0.896 -4.128,-0.896 h -3.008 z" />
            <path
               id="path9585"
               style="fill:#133a5e;fill-opacity:1"
               d="m 524.047,375.08517 q -1.44,0 -2.752,-0.544 -1.28,-0.544 -2.272,-1.568 -0.992,-1.056 -1.6,-2.56 -0.576,-1.536 -0.576,-3.456 0,-1.952 0.576,-3.456 0.608,-1.536 1.6,-2.592 0.992,-1.056 2.272,-1.6 1.312,-0.544 2.752,-0.544 1.44,0 2.72,0.544 1.312,0.544 2.304,1.6 0.992,1.056 1.568,2.592 0.608,1.504 0.608,3.456 0,1.92 -0.608,3.456 -0.576,1.504 -1.568,2.56 -0.992,1.024 -2.304,1.568 -1.28,0.544 -2.72,0.544 z m 0,-2.176 q 0.992,0 1.824,-0.416 0.832,-0.448 1.408,-1.216 0.608,-0.8 0.928,-1.888 0.32,-1.088 0.32,-2.432 0,-1.344 -0.32,-2.432 -0.32,-1.12 -0.928,-1.92 -0.576,-0.8 -1.408,-1.216 -0.832,-0.448 -1.824,-0.448 -0.992,0 -1.824,0.448 -0.832,0.416 -1.44,1.216 -0.576,0.8 -0.896,1.92 -0.32,1.088 -0.32,2.432 0,1.344 0.32,2.432 0.32,1.088 0.896,1.888 0.608,0.768 1.44,1.216 0.832,0.416 1.824,0.416 z" />
            <path
               id="path9587"
               style="fill:#133a5e;fill-opacity:1"
               d="m 541.422,375.08517 q -1.44,0 -2.752,-0.544 -1.28,-0.544 -2.272,-1.568 -0.992,-1.056 -1.6,-2.56 -0.576,-1.536 -0.576,-3.456 0,-1.952 0.576,-3.456 0.608,-1.536 1.6,-2.592 0.992,-1.056 2.272,-1.6 1.312,-0.544 2.752,-0.544 1.44,0 2.72,0.544 1.312,0.544 2.304,1.6 0.992,1.056 1.568,2.592 0.608,1.504 0.608,3.456 0,1.92 -0.608,3.456 -0.576,1.504 -1.568,2.56 -0.992,1.024 -2.304,1.568 -1.28,0.544 -2.72,0.544 z m 0,-2.176 q 0.992,0 1.824,-0.416 0.832,-0.448 1.408,-1.216 0.608,-0.8 0.928,-1.888 0.32,-1.088 0.32,-2.432 0,-1.344 -0.32,-2.432 -0.32,-1.12 -0.928,-1.92 -0.576,-0.8 -1.408,-1.216 -0.832,-0.448 -1.824,-0.448 -0.992,0 -1.824,0.448 -0.832,0.416 -1.44,1.216 -0.576,0.8 -0.896,1.92 -0.32,1.088 -0.32,2.432 0,1.344 0.32,2.432 0.32,1.088 0.896,1.888 0.608,0.768 1.44,1.216 0.832,0.416 1.824,0.416 z" />
            <path
               id="path9589"
               style="fill:#133a5e;fill-opacity:1"
               d="m 555.533,375.08517 q -1.504,0 -2.144,-0.896 -0.64,-0.896 -0.64,-2.624 v -19.648 h 2.624 v 19.84 q 0,0.64 0.224,0.896 0.224,0.256 0.512,0.256 0.128,0 0.224,0 0.128,0 0.352,-0.064 l 0.352,1.984 q -0.256,0.128 -0.608,0.192 -0.352,0.064 -0.896,0.064 z" />
            <path
               id="path9591"
               style="fill:#133a5e;fill-opacity:1"
               d="m 572.1115,375.08517 q -1.44,0 -2.624,-0.416 -1.152,-0.448 -2.016,-1.216 -0.832,-0.768 -1.312,-1.824 -0.448,-1.088 -0.448,-2.368 0,-1.056 0.32,-1.92 0.352,-0.864 0.928,-1.6 0.576,-0.736 1.312,-1.344 0.768,-0.64 1.568,-1.184 -0.64,-1.312 -1.024,-2.528 -0.352,-1.248 -0.352,-2.4 0,-1.056 0.352,-1.952 0.352,-0.896 0.992,-1.568 0.64,-0.672 1.536,-1.056 0.896,-0.384 1.984,-0.384 1.952,0 3.04,1.152 1.088,1.152 1.088,3.008 0,1.024 -0.416,1.888 -0.416,0.864 -1.088,1.632 -0.672,0.736 -1.536,1.408 -0.832,0.64 -1.696,1.28 1.024,1.632 2.4,3.136 1.408,1.504 2.912,2.752 0.96,-1.312 1.696,-2.848 0.768,-1.536 1.248,-3.36 h 2.464 q -0.64,2.08 -1.536,3.968 -0.896,1.888 -2.144,3.552 1.088,0.736 2.08,1.248 0.992,0.512 1.856,0.768 l -0.704,2.176 q -1.12,-0.32 -2.336,-0.896 -1.216,-0.608 -2.496,-1.504 -1.216,1.088 -2.72,1.76 -1.472,0.64 -3.328,0.64 z m -1.376,-16.832 q 0,0.864 0.256,1.792 0.288,0.928 0.736,1.888 0.704,-0.48 1.344,-0.96 0.672,-0.512 1.152,-1.024 0.512,-0.544 0.8,-1.12 0.288,-0.608 0.288,-1.312 0,-0.928 -0.48,-1.6 -0.448,-0.704 -1.504,-0.704 -1.184,0 -1.888,0.864 -0.704,0.864 -0.704,2.176 z m 1.664,14.72 q 1.088,0 2.08,-0.448 0.992,-0.448 1.92,-1.248 -1.536,-1.344 -2.976,-2.912 -1.408,-1.6 -2.528,-3.328 -1.12,0.896 -1.888,1.888 -0.736,0.96 -0.736,2.176 0,0.864 0.32,1.6 0.32,0.704 0.864,1.216 0.576,0.512 1.312,0.8 0.768,0.256 1.632,0.256 z" />
            <path
               id="path9593"
               style="fill:#133a5e;fill-opacity:1"
               d="m 599.2665,375.08517 q -2.208,0 -4.096,-0.832 -1.888,-0.832 -3.264,-2.272 l 1.6,-1.856 q 1.12,1.184 2.624,1.92 1.536,0.704 3.168,0.704 2.08,0 3.232,-0.928 1.152,-0.96 1.152,-2.496 0,-0.8 -0.288,-1.344 -0.256,-0.576 -0.736,-0.96 -0.448,-0.416 -1.088,-0.736 -0.64,-0.32 -1.376,-0.672 l -3.008,-1.312 q -0.736,-0.32 -1.504,-0.768 -0.768,-0.448 -1.376,-1.088 -0.608,-0.64 -0.992,-1.504 -0.384,-0.896 -0.384,-2.048 0,-1.184 0.48,-2.208 0.512,-1.024 1.376,-1.76 0.896,-0.768 2.08,-1.184 1.216,-0.416 2.656,-0.416 1.888,0 3.488,0.736 1.6,0.704 2.72,1.856 l -1.44,1.728 q -0.96,-0.928 -2.144,-1.44 -1.152,-0.544 -2.624,-0.544 -1.76,0 -2.848,0.832 -1.056,0.8 -1.056,2.24 0,0.768 0.288,1.312 0.32,0.512 0.832,0.928 0.512,0.384 1.12,0.704 0.608,0.288 1.248,0.544 l 2.976,1.28 q 0.896,0.384 1.696,0.896 0.8,0.48 1.376,1.152 0.576,0.64 0.896,1.536 0.352,0.864 0.352,2.016 0,1.248 -0.512,2.336 -0.48,1.088 -1.408,1.92 -0.928,0.8 -2.24,1.28 -1.312,0.448 -2.976,0.448 z" />
            <path
               id="path9595"
               style="fill:#133a5e;fill-opacity:1"
               d="m 610.249,381.26117 v -22.112 h 2.176 l 0.224,1.792 h 0.096 q 1.056,-0.896 2.304,-1.536 1.28,-0.64 2.656,-0.64 1.504,0 2.656,0.576 1.152,0.544 1.92,1.6 0.768,1.024 1.152,2.496 0.416,1.44 0.416,3.264 0,1.984 -0.544,3.552 -0.544,1.536 -1.472,2.624 -0.928,1.088 -2.144,1.664 -1.216,0.544 -2.56,0.544 -1.088,0 -2.176,-0.48 -1.056,-0.48 -2.144,-1.312 l 0.064,2.72 v 5.248 z m 6.432,-8.384 q 0.96,0 1.76,-0.416 0.832,-0.448 1.408,-1.216 0.608,-0.8 0.928,-1.952 0.352,-1.152 0.352,-2.592 0,-1.28 -0.224,-2.336 -0.224,-1.056 -0.736,-1.792 -0.48,-0.768 -1.28,-1.184 -0.768,-0.416 -1.856,-0.416 -0.992,0 -2.016,0.544 -0.992,0.544 -2.144,1.568 v 8.16 q 1.056,0.896 2.048,1.28 0.992,0.352 1.76,0.352 z" />
            <path
               id="path9597"
               style="fill:#133a5e;fill-opacity:1"
               d="m 631.1455,375.08517 q -1.952,0 -3.264,-1.152 -1.28,-1.152 -1.28,-3.264 0,-2.56 2.272,-3.904 2.272,-1.376 7.264,-1.92 0,-0.736 -0.16,-1.44 -0.128,-0.704 -0.48,-1.248 -0.352,-0.544 -0.992,-0.864 -0.608,-0.352 -1.568,-0.352 -1.344,0 -2.528,0.512 -1.184,0.512 -2.112,1.152 l -1.024,-1.824 q 1.088,-0.704 2.656,-1.344 1.568,-0.672 3.456,-0.672 2.848,0 4.128,1.76 1.28,1.728 1.28,4.64 v 9.536 h -2.176 l -0.224,-1.856 h -0.096 q -1.12,0.928 -2.4,1.6 -1.28,0.64 -2.752,0.64 z m 0.768,-2.112 q 1.12,0 2.112,-0.512 0.992,-0.544 2.112,-1.568 v -4.32 q -1.952,0.256 -3.296,0.608 -1.312,0.352 -2.144,0.832 -0.8,0.48 -1.184,1.12 -0.352,0.608 -0.352,1.344 0,1.344 0.8,1.92 0.8,0.576 1.952,0.576 z" />
            <path
               id="path9599"
               style="fill:#133a5e;fill-opacity:1"
               d="m 656.1415,375.08517 q -2.208,0 -4.096,-0.832 -1.888,-0.832 -3.264,-2.272 l 1.6,-1.856 q 1.12,1.184 2.624,1.92 1.536,0.704 3.168,0.704 2.08,0 3.232,-0.928 1.152,-0.96 1.152,-2.496 0,-0.8 -0.288,-1.344 -0.256,-0.576 -0.736,-0.96 -0.448,-0.416 -1.088,-0.736 -0.64,-0.32 -1.376,-0.672 l -3.008,-1.312 q -0.736,-0.32 -1.504,-0.768 -0.768,-0.448 -1.376,-1.088 -0.608,-0.64 -0.992,-1.504 -0.384,-0.896 -0.384,-2.048 0,-1.184 0.48,-2.208 0.512,-1.024 1.376,-1.76 0.896,-0.768 2.08,-1.184 1.216,-0.416 2.656,-0.416 1.888,0 3.488,0.736 1.6,0.704 2.72,1.856 l -1.44,1.728 q -0.96,-0.928 -2.144,-1.44 -1.152,-0.544 -2.624,-0.544 -1.76,0 -2.848,0.832 -1.056,0.8 -1.056,2.24 0,0.768 0.288,1.312 0.32,0.512 0.832,0.928 0.512,0.384 1.12,0.704 0.608,0.288 1.248,0.544 l 2.976,1.28 q 0.896,0.384 1.696,0.896 0.8,0.48 1.376,1.152 0.576,0.64 0.896,1.536 0.352,0.864 0.352,2.016 0,1.248 -0.512,2.336 -0.48,1.088 -1.408,1.92 -0.928,0.8 -2.24,1.28 -1.312,0.448 -2.976,0.448 z" />
            <path
               id="path9601"
               style="fill:#133a5e;fill-opacity:1"
               d="m 673.428,375.08517 q -1.568,0 -2.944,-0.544 -1.344,-0.576 -2.368,-1.6 -0.992,-1.056 -1.568,-2.56 -0.576,-1.504 -0.576,-3.424 0,-1.92 0.576,-3.424 0.608,-1.536 1.568,-2.592 0.992,-1.056 2.24,-1.6 1.248,-0.576 2.592,-0.576 1.472,0 2.624,0.512 1.184,0.512 1.952,1.472 0.8,0.96 1.216,2.304 0.416,1.344 0.416,3.008 0,0.416 -0.032,0.832 0,0.384 -0.064,0.672 h -10.496 q 0.16,2.496 1.536,3.968 1.408,1.44 3.648,1.44 1.12,0 2.048,-0.32 0.96,-0.352 1.824,-0.896 l 0.928,1.728 q -1.024,0.64 -2.272,1.12 -1.248,0.48 -2.848,0.48 z m -4.896,-9.408 h 8.32 q 0,-2.368 -1.024,-3.584 -0.992,-1.248 -2.816,-1.248 -0.832,0 -1.6,0.32 -0.736,0.32 -1.344,0.96 -0.608,0.608 -1.024,1.504 -0.384,0.896 -0.512,2.048 z" />
            <path
               id="path9603"
               style="fill:#133a5e;fill-opacity:1"
               d="m 682.999,374.70117 v -15.552 h 2.176 l 0.224,2.816 h 0.096 q 0.8,-1.472 1.92,-2.336 1.152,-0.864 2.496,-0.864 0.928,0 1.664,0.32 l -0.512,2.304 q -0.384,-0.128 -0.704,-0.192 -0.32,-0.064 -0.8,-0.064 -0.992,0 -2.08,0.8 -1.056,0.8 -1.856,2.784 v 9.984 z" />
            <path
               id="path9605"
               style="fill:#133a5e;fill-opacity:1"
               d="m 698.2965,374.70117 -5.6,-15.552 h 2.72 l 2.944,8.832 q 0.352,1.152 0.704,2.304 0.384,1.152 0.736,2.272 h 0.128 q 0.352,-1.12 0.704,-2.272 0.352,-1.152 0.704,-2.304 l 2.944,-8.832 h 2.592 l -5.504,15.552 z" />
            <path
               id="path9607"
               style="fill:#133a5e;fill-opacity:1"
               d="m 709.874,374.70117 v -15.552 h 2.624 v 15.552 z m 1.344,-18.752 q -0.768,0 -1.312,-0.48 -0.512,-0.48 -0.512,-1.216 0,-0.768 0.512,-1.216 0.544,-0.48 1.312,-0.48 0.768,0 1.28,0.48 0.544,0.448 0.544,1.216 0,0.736 -0.544,1.216 -0.512,0.48 -1.28,0.48 z" />
            <path
               id="path9609"
               style="fill:#133a5e;fill-opacity:1"
               d="m 723.893,375.08517 q -1.536,0 -2.88,-0.544 -1.344,-0.544 -2.336,-1.568 -0.96,-1.056 -1.536,-2.56 -0.544,-1.536 -0.544,-3.456 0,-1.952 0.608,-3.456 0.608,-1.536 1.632,-2.592 1.024,-1.056 2.368,-1.6 1.376,-0.544 2.88,-0.544 1.536,0 2.624,0.544 1.088,0.544 1.92,1.28 l -1.344,1.728 q -0.672,-0.608 -1.44,-0.992 -0.736,-0.384 -1.664,-0.384 -1.056,0 -1.952,0.448 -0.896,0.416 -1.536,1.216 -0.64,0.8 -1.024,1.92 -0.352,1.088 -0.352,2.432 0,1.344 0.352,2.432 0.352,1.088 0.96,1.888 0.64,0.768 1.536,1.216 0.896,0.416 1.952,0.416 1.088,0 1.984,-0.448 0.928,-0.48 1.664,-1.12 l 1.152,1.76 q -1.056,0.928 -2.336,1.472 -1.28,0.512 -2.688,0.512 z" />
            <path
               id="path9611"
               style="fill:#133a5e;fill-opacity:1"
               d="m 737.928,375.08517 q -1.568,0 -2.944,-0.544 -1.344,-0.576 -2.368,-1.6 -0.992,-1.056 -1.568,-2.56 -0.576,-1.504 -0.576,-3.424 0,-1.92 0.576,-3.424 0.608,-1.536 1.568,-2.592 0.992,-1.056 2.24,-1.6 1.248,-0.576 2.592,-0.576 1.472,0 2.624,0.512 1.184,0.512 1.952,1.472 0.8,0.96 1.216,2.304 0.416,1.344 0.416,3.008 0,0.416 -0.032,0.832 0,0.384 -0.064,0.672 h -10.496 q 0.16,2.496 1.536,3.968 1.408,1.44 3.648,1.44 1.12,0 2.048,-0.32 0.96,-0.352 1.824,-0.896 l 0.928,1.728 q -1.024,0.64 -2.272,1.12 -1.248,0.48 -2.848,0.48 z m -4.896,-9.408 h 8.32 q 0,-2.368 -1.024,-3.584 -0.992,-1.248 -2.816,-1.248 -0.832,0 -1.6,0.32 -0.736,0.32 -1.344,0.96 -0.608,0.608 -1.024,1.504 -0.384,0.896 -0.512,2.048 z" />
            <path
               id="path9613"
               style="fill:#133a5e;fill-opacity:1"
               d="m 758.674,375.08517 q -1.44,0 -2.624,-0.416 -1.152,-0.448 -2.016,-1.216 -0.832,-0.768 -1.312,-1.824 -0.448,-1.088 -0.448,-2.368 0,-1.056 0.32,-1.92 0.352,-0.864 0.928,-1.6 0.576,-0.736 1.312,-1.344 0.768,-0.64 1.568,-1.184 -0.64,-1.312 -1.024,-2.528 -0.352,-1.248 -0.352,-2.4 0,-1.056 0.352,-1.952 0.352,-0.896 0.992,-1.568 0.64,-0.672 1.536,-1.056 0.896,-0.384 1.984,-0.384 1.952,0 3.04,1.152 1.088,1.152 1.088,3.008 0,1.024 -0.416,1.888 -0.416,0.864 -1.088,1.632 -0.672,0.736 -1.536,1.408 -0.832,0.64 -1.696,1.28 1.024,1.632 2.4,3.136 1.408,1.504 2.912,2.752 0.96,-1.312 1.696,-2.848 0.768,-1.536 1.248,-3.36 h 2.464 q -0.64,2.08 -1.536,3.968 -0.896,1.888 -2.144,3.552 1.088,0.736 2.08,1.248 0.992,0.512 1.856,0.768 l -0.704,2.176 q -1.12,-0.32 -2.336,-0.896 -1.216,-0.608 -2.496,-1.504 -1.216,1.088 -2.72,1.76 -1.472,0.64 -3.328,0.64 z m -1.376,-16.832 q 0,0.864 0.256,1.792 0.288,0.928 0.736,1.888 0.704,-0.48 1.344,-0.96 0.672,-0.512 1.152,-1.024 0.512,-0.544 0.8,-1.12 0.288,-0.608 0.288,-1.312 0,-0.928 -0.48,-1.6 -0.448,-0.704 -1.504,-0.704 -1.184,0 -1.888,0.864 -0.704,0.864 -0.704,2.176 z m 1.664,14.72 q 1.088,0 2.08,-0.448 0.992,-0.448 1.92,-1.248 -1.536,-1.344 -2.976,-2.912 -1.408,-1.6 -2.528,-3.328 -1.12,0.896 -1.888,1.888 -0.736,0.96 -0.736,2.176 0,0.864 0.32,1.6 0.32,0.704 0.864,1.216 0.576,0.512 1.312,0.8 0.768,0.256 1.632,0.256 z" />
            <path
               id="path9615"
               style="fill:#133a5e;fill-opacity:1"
               d="m 780.005,374.70117 v -20.992 h 3.2 l 4.032,11.2 q 0.384,1.088 0.736,2.208 0.384,1.088 0.768,2.176 h 0.128 q 0.384,-1.088 0.704,-2.176 0.352,-1.12 0.736,-2.208 l 3.968,-11.2 h 3.232 v 20.992 h -2.496 v -11.552 q 0,-1.408 0.128,-3.104 0.128,-1.696 0.224,-3.104 h -0.128 l -1.664,4.768 -3.968,10.88 h -1.76 l -3.968,-10.88 -1.664,-4.768 h -0.128 q 0.096,1.408 0.192,3.104 0.128,1.696 0.128,3.104 v 11.552 z" />
            <path
               id="path9617"
               style="fill:#133a5e;fill-opacity:1"
               d="m 806.583,375.08517 q -1.952,0 -3.264,-1.152 -1.28,-1.152 -1.28,-3.264 0,-2.56 2.272,-3.904 2.272,-1.376 7.264,-1.92 0,-0.736 -0.16,-1.44 -0.128,-0.704 -0.48,-1.248 -0.352,-0.544 -0.992,-0.864 -0.608,-0.352 -1.568,-0.352 -1.344,0 -2.528,0.512 -1.184,0.512 -2.112,1.152 l -1.024,-1.824 q 1.088,-0.704 2.656,-1.344 1.568,-0.672 3.456,-0.672 2.848,0 4.128,1.76 1.28,1.728 1.28,4.64 v 9.536 h -2.176 l -0.224,-1.856 h -0.096 q -1.12,0.928 -2.4,1.6 -1.28,0.64 -2.752,0.64 z m 0.768,-2.112 q 1.12,0 2.112,-0.512 0.992,-0.544 2.112,-1.568 v -4.32 q -1.952,0.256 -3.296,0.608 -1.312,0.352 -2.144,0.832 -0.8,0.48 -1.184,1.12 -0.352,0.608 -0.352,1.344 0,1.344 0.8,1.92 0.8,0.576 1.952,0.576 z" />
            <path
               id="path9619"
               style="fill:#133a5e;fill-opacity:1"
               d="m 819.124,374.70117 v -15.552 h 2.624 v 15.552 z m 1.344,-18.752 q -0.768,0 -1.312,-0.48 -0.512,-0.48 -0.512,-1.216 0,-0.768 0.512,-1.216 0.544,-0.48 1.312,-0.48 0.768,0 1.28,0.48 0.544,0.448 0.544,1.216 0,0.736 -0.544,1.216 -0.512,0.48 -1.28,0.48 z" />
            <path
               id="path9621"
               style="fill:#133a5e;fill-opacity:1"
               d="m 826.999,374.70117 v -15.552 h 2.176 l 0.224,2.24 h 0.096 q 1.12,-1.12 2.336,-1.856 1.248,-0.768 2.88,-0.768 2.464,0 3.584,1.536 1.152,1.536 1.152,4.544 v 9.856 h -2.624 v -9.504 q 0,-2.208 -0.704,-3.168 -0.704,-0.992 -2.24,-0.992 -1.216,0 -2.144,0.608 -0.928,0.608 -2.112,1.792 v 11.264 z" />
            <path
               id="path9623"
               style="fill:#133a5e;fill-opacity:1"
               d="m 849.395,375.08517 q -1.248,0 -2.112,-0.384 -0.832,-0.384 -1.376,-1.056 -0.512,-0.672 -0.736,-1.632 -0.224,-0.96 -0.224,-2.112 v -8.608 h -2.304 v -1.984 l 2.432,-0.16 0.32,-4.352 h 2.208 v 4.352 h 4.192 v 2.144 h -4.192 v 8.64 q 0,1.44 0.512,2.24 0.544,0.768 1.888,0.768 0.416,0 0.896,-0.128 0.48,-0.128 0.864,-0.288 l 0.512,1.984 q -0.64,0.224 -1.408,0.384 -0.736,0.192 -1.472,0.192 z" />
            <path
               id="path9625"
               style="fill:#133a5e;fill-opacity:1"
               d="m 861.178,375.08517 q -1.568,0 -2.944,-0.544 -1.344,-0.576 -2.368,-1.6 -0.992,-1.056 -1.568,-2.56 -0.576,-1.504 -0.576,-3.424 0,-1.92 0.576,-3.424 0.608,-1.536 1.568,-2.592 0.992,-1.056 2.24,-1.6 1.248,-0.576 2.592,-0.576 1.472,0 2.624,0.512 1.184,0.512 1.952,1.472 0.8,0.96 1.216,2.304 0.416,1.344 0.416,3.008 0,0.416 -0.032,0.832 0,0.384 -0.064,0.672 h -10.496 q 0.16,2.496 1.536,3.968 1.408,1.44 3.648,1.44 1.12,0 2.048,-0.32 0.96,-0.352 1.824,-0.896 l 0.928,1.728 q -1.024,0.64 -2.272,1.12 -1.248,0.48 -2.848,0.48 z m -4.896,-9.408 h 8.32 q 0,-2.368 -1.024,-3.584 -0.992,-1.248 -2.816,-1.248 -0.832,0 -1.6,0.32 -0.736,0.32 -1.344,0.96 -0.608,0.608 -1.024,1.504 -0.384,0.896 -0.512,2.048 z" />
            <path
               id="path9627"
               style="fill:#133a5e;fill-opacity:1"
               d="m 870.749,374.70117 v -15.552 h 2.176 l 0.224,2.24 h 0.096 q 1.12,-1.12 2.336,-1.856 1.248,-0.768 2.88,-0.768 2.464,0 3.584,1.536 1.152,1.536 1.152,4.544 v 9.856 h -2.624 v -9.504 q 0,-2.208 -0.704,-3.168 -0.704,-0.992 -2.24,-0.992 -1.216,0 -2.144,0.608 -0.928,0.608 -2.112,1.792 v 11.264 z" />
            <path
               id="path9629"
               style="fill:#133a5e;fill-opacity:1"
               d="m 891.833,375.08517 q -1.952,0 -3.264,-1.152 -1.28,-1.152 -1.28,-3.264 0,-2.56 2.272,-3.904 2.272,-1.376 7.264,-1.92 0,-0.736 -0.16,-1.44 -0.128,-0.704 -0.48,-1.248 -0.352,-0.544 -0.992,-0.864 -0.608,-0.352 -1.568,-0.352 -1.344,0 -2.528,0.512 -1.184,0.512 -2.112,1.152 l -1.024,-1.824 q 1.088,-0.704 2.656,-1.344 1.568,-0.672 3.456,-0.672 2.848,0 4.128,1.76 1.28,1.728 1.28,4.64 v 9.536 h -2.176 l -0.224,-1.856 h -0.096 q -1.12,0.928 -2.4,1.6 -1.28,0.64 -2.752,0.64 z m 0.768,-2.112 q 1.12,0 2.112,-0.512 0.992,-0.544 2.112,-1.568 v -4.32 q -1.952,0.256 -3.296,0.608 -1.312,0.352 -2.144,0.832 -0.8,0.48 -1.184,1.12 -0.352,0.608 -0.352,1.344 0,1.344 0.8,1.92 0.8,0.576 1.952,0.576 z" />
            <path
               id="path9631"
               style="fill:#133a5e;fill-opacity:1"
               d="m 904.374,374.70117 v -15.552 h 2.176 l 0.224,2.24 h 0.096 q 1.12,-1.12 2.336,-1.856 1.248,-0.768 2.88,-0.768 2.464,0 3.584,1.536 1.152,1.536 1.152,4.544 v 9.856 h -2.624 v -9.504 q 0,-2.208 -0.704,-3.168 -0.704,-0.992 -2.24,-0.992 -1.216,0 -2.144,0.608 -0.928,0.608 -2.112,1.792 v 11.264 z" />
            <path
               id="path9633"
               style="fill:#133a5e;fill-opacity:1"
               d="m 928.018,375.08517 q -1.536,0 -2.88,-0.544 -1.344,-0.544 -2.336,-1.568 -0.96,-1.056 -1.536,-2.56 -0.544,-1.536 -0.544,-3.456 0,-1.952 0.608,-3.456 0.608,-1.536 1.632,-2.592 1.024,-1.056 2.368,-1.6 1.376,-0.544 2.88,-0.544 1.536,0 2.624,0.544 1.088,0.544 1.92,1.28 l -1.344,1.728 q -0.672,-0.608 -1.44,-0.992 -0.736,-0.384 -1.664,-0.384 -1.056,0 -1.952,0.448 -0.896,0.416 -1.536,1.216 -0.64,0.8 -1.024,1.92 -0.352,1.088 -0.352,2.432 0,1.344 0.352,2.432 0.352,1.088 0.96,1.888 0.64,0.768 1.536,1.216 0.896,0.416 1.952,0.416 1.088,0 1.984,-0.448 0.928,-0.48 1.664,-1.12 l 1.152,1.76 q -1.056,0.928 -2.336,1.472 -1.28,0.512 -2.688,0.512 z" />
            <path
               id="path9635"
               style="fill:#133a5e;fill-opacity:1"
               d="m 942.053,375.08517 q -1.568,0 -2.944,-0.544 -1.344,-0.576 -2.368,-1.6 -0.992,-1.056 -1.568,-2.56 -0.576,-1.504 -0.576,-3.424 0,-1.92 0.576,-3.424 0.608,-1.536 1.568,-2.592 0.992,-1.056 2.24,-1.6 1.248,-0.576 2.592,-0.576 1.472,0 2.624,0.512 1.184,0.512 1.952,1.472 0.8,0.96 1.216,2.304 0.416,1.344 0.416,3.008 0,0.416 -0.032,0.832 0,0.384 -0.064,0.672 h -10.496 q 0.16,2.496 1.536,3.968 1.408,1.44 3.648,1.44 1.12,0 2.048,-0.32 0.96,-0.352 1.824,-0.896 l 0.928,1.728 q -1.024,0.64 -2.272,1.12 -1.248,0.48 -2.848,0.48 z m -4.896,-9.408 h 8.32 q 0,-2.368 -1.024,-3.584 -0.992,-1.248 -2.816,-1.248 -0.832,0 -1.6,0.32 -0.736,0.32 -1.344,0.96 -0.608,0.608 -1.024,1.504 -0.384,0.896 -0.512,2.048 z" />
          </g>
        </g>
        <g
           transform="translate(0,1.6)"
           id="g10398">
          <path
             sodipodi:nodetypes="csssccsssscsssccssscc"
             inkscape:connector-curvature="0"
             id="path10255"
             d="m 108.11346,161.62513 c -0.49968,-0.0548 -0.99574,-0.0808 -1.48644,-0.0792 -1.92999,0.006 -3.77716,0.43807 -5.43628,1.21296 -1.907824,0.89104 -3.566985,2.23565 -4.817471,3.90816 -1.283712,1.71695 -2.136743,3.77946 -2.38598,6.05158 -0.09461,0.91186 -0.08705,1.83153 0.02251,2.74266 0.236032,-0.66937 0.525785,-1.344 0.863738,-2.0118 0.609821,-1.20503 1.376582,-2.38784 2.267839,-3.4775 0.948368,-1.15949 2.037699,-2.21352 3.228904,-3.07661 0.8963,-0.64942 1.85027,-1.19075 2.84527,-1.58758 1.49054,-0.59446 3.07315,-0.86464 4.69183,-0.68816 2.01034,0.22275 3.9202,1.2146 5.60355,2.62324 0.90265,0.75535 1.74018,1.63053 2.49314,2.57124 0.73151,0.9139 1.38321,1.88964 1.93729,2.87741 0.62559,1.11524 1.12673,2.24582 1.47778,3.32005 0.0301,-0.16427 0.0564,-0.32913 0.0795,-0.49451 0.10799,-0.9845 0.0968,-1.95516 -0.0223,-2.89813 -0.20398,-1.61563 -0.72454,-3.14997 -1.5046,-4.53336 -1.04743,-1.85756 -2.56274,-3.44295 -4.40772,-4.58753 -1.59925,-0.99215 -3.4462,-1.65308 -5.45083,-1.87298 z"
             style="fill:#133a5e;fill-opacity:1;fill-rule:nonzero;stroke:#000000;stroke-width:0.1;stroke-linejoin:round;stroke-miterlimit:4;stroke-dasharray:none;stroke-opacity:1" />
          <g
             transform="translate(-9.6,-22.8)"
             style="fill:#133a5e;fill-opacity:1"
             id="g10330">
            <g
               style="fill:#133a5e;fill-opacity:1"
               id="g10321">
              <path
                 inkscape:connector-curvature="0"
                 style="fill:#133a5e;fill-opacity:1;stroke:#000000;stroke-width:0.26458332px;stroke-linecap:butt;stroke-linejoin:miter;stroke-opacity:1"
                 d="m 104.87056,201.27526 c 0.70735,-1.31102 1.63349,-2.89479 2.67407,-4.17887 1.04057,-1.28407 2.19566,-2.26845 3.29644,-2.84956 1.10077,-0.58111 2.14797,-0.75942 3.20978,-0.76193 1.06181,-0.002 2.13915,0.17076 3.15173,0.77535 1.01258,0.60459 2.01759,1.70256 2.88072,2.59132 0.86313,0.88875 1.65508,1.63941 2.33453,2.33395 0.67946,0.69454 1.2663,1.3516 2.02136,1.90613 0.75505,0.55453 1.68041,1.00712 2.90175,1.43001 1.22134,0.42289 2.78071,0.82734 4.07745,0.98169 1.29673,0.15435 2.35133,0.0639 3.39438,-0.15828 1.04304,-0.22221 2.07517,-0.5763 2.17071,-0.49608 0.0955,0.0802 -0.74578,0.59507 -1.81427,1.04084 -1.0685,0.44577 -2.36353,0.82225 -4.02404,0.87972 -1.66051,0.0575 -3.75251,-0.21293 -5.64686,-0.87566 -1.89434,-0.66274 -3.7146,-1.77752 -5.1646,-2.71352 -1.45,-0.93601 -2.58466,-1.72773 -3.80223,-2.23735 -1.21757,-0.50962 -2.60851,-0.75566 -3.76138,-0.69923 -1.15287,0.0564 -2.08321,0.3979 -3.03035,0.79151 -0.94715,0.39362 -1.86976,0.82156 -3.00664,1.85531 -1.13687,1.03375 -2.47392,2.66684 -3.0979,3.3946 -0.62399,0.72777 -0.53579,0.55138 -0.24762,-0.0557 0.28818,-0.60705 0.77562,-1.64325 1.48297,-2.95427 z"
                 id="path10297" />
              <path
                 sodipodi:nodetypes="ccccaaaaascaaaacccccc"
                 inkscape:connector-curvature="0"
                 style="fill:#133a5e;fill-opacity:1;stroke:#000000;stroke-width:0.26458332px;stroke-linecap:butt;stroke-linejoin:miter;stroke-opacity:1"
                 d="m 103.71667,205.18959 c 0.79375,-0.79375 1.58776,-1.58776 2.46952,-2.38134 0.88177,-0.79358 1.8523,-1.58765 2.77822,-2.16081 0.92592,-0.57315 1.80813,-0.92604 2.77805,-1.10236 0.96992,-0.17633 1.98717,-0.18478 2.95451,4e-5 0.90082,0.17211 1.7295,0.62005 2.55756,1.01426 0.92363,0.43971 1.79662,0.97964 2.67672,1.50104 0.71583,0.42409 1.38735,0.92247 2.11667,1.32292 0.44836,0.24618 0.91487,0.45905 1.38463,0.66144 0.47819,0.20602 0.56897,0.29599 1.45748,0.56187 0.88851,0.26588 1.92039,0.62877 1.92039,0.62877 0,0 -1.35085,-0.004 -2.01745,-0.0992 -0.6193,-0.088 -1.22564,-0.25728 -1.82578,-0.43369 -0.56959,-0.16743 -1.12035,-0.39329 -1.67995,-0.59157 -0.64579,-0.22882 -1.28191,-0.48643 -1.93603,-0.69023 -1.02487,-0.31931 -2.14061,-0.61233 -3.11081,-0.83283 -0.97021,-0.22051 -1.852,-0.39686 -2.71841,-0.40001 -0.86642,-0.003 -1.77933,0.17943 -2.70325,0.39933 -0.92393,0.2199 -1.89829,0.48563 -2.79982,0.82612 -0.90154,0.34049 -1.83249,0.80597 -2.53815,1.11471 -0.70565,0.30874 -1.23493,0.48517 -1.7641,0.66156 z"
                 id="path10310" />
              <path
                 inkscape:connector-curvature="0"
                 style="fill:#133a5e;fill-opacity:1;stroke:#000000;stroke-width:0.26458332px;stroke-linecap:butt;stroke-linejoin:miter;stroke-opacity:1"
                 d="m 108.47917,195.13542 c 0.79375,-0.61736 1.58779,-1.23495 2.55772,-1.67579 0.96993,-0.44085 2.11689,-0.70553 3.17503,-0.7055 1.05814,2e-5 2.02853,0.26467 2.77811,0.61744 0.74958,0.35276 1.27874,0.79373 1.76381,1.23469 0.48506,0.44097 0.8954,0.85131 1.31984,1.27575 0.42444,0.42444 0.73933,0.73933 1.19703,1.19703 0.45769,0.4577 0.96679,0.96679 1.49596,1.49596 -0.52917,-0.97014 -1.05839,-1.94037 -1.67571,-2.95454 -0.61732,-1.01417 -1.32294,-2.0726 -2.16075,-2.9545 -0.83781,-0.88189 -1.80795,-1.58745 -2.60163,-2.02842 -0.79368,-0.44096 -1.41097,-0.61733 -2.11654,-0.66147 -0.70558,-0.0442 -1.49925,0.044 -2.2048,0.30854 -0.70555,0.26449 -1.32268,0.70529 -1.7639,1.23461 -0.44122,0.52931 -0.70561,1.14622 -0.97028,1.7638 -0.26468,0.61759 -0.52931,1.23504 -0.79389,1.8524 z"
                 id="path10314" />
            </g>
          </g>
        </g>
      </g>
    </g>
  </g>
</svg>
