<svg xmlns="http://www.w3.org/2000/svg" style="display: none;"><symbol id="hot" viewBox="0 0 490.29 490.29"><title>hot</title><path id="XMLID_54_" d="M249.457,288.49c30.062-11.866,23.138-60.108,22.148-69.072c-1.054-8.784-12.527-52.148-2.168-66.096 c-30.458,10.711-23.261,57.106-21.771,72.032C249.586,244.6,260.611,271.003,249.457,288.49z"/><path id="XMLID_53_" d="M363.07,306.887c30.061-11.866,23.138-60.108,22.148-69.073c-1.054-8.784-12.527-52.148-2.168-66.096 c-30.459,10.711-23.261,57.106-21.772,72.032C363.199,262.996,374.225,289.399,363.07,306.887z"/><path id="XMLID_49_" d="M245.145,315.569c-11.893,0-37.636,0.255-68.081,2.024V214.782c0-28.91-23.522-52.428-52.448-52.428 c-9.031,0-17.398,2.506-24.834,6.536c9.118,7.183,16.537,16.264,21.66,26.788c1.073-0.175,2.059-0.639,3.174-0.639 c10.888,0,19.759,8.857,19.759,19.743v25.912l-39.502,6.342v-17.954c0-28.914-23.508-52.428-52.424-52.428 C23.532,176.655,0,200.169,0,229.083v30.65c0,9.024,7.327,16.342,16.35,16.342c9.031,0,16.341-7.317,16.341-16.342v-30.65 c0-10.886,8.871-19.74,19.759-19.74c10.881,0,19.742,8.855,19.742,19.74v101.373C31.508,339.355,0,353.535,0,376.175 c0,57.687,204.226,60.607,245.145,60.607c40.952,0,245.145-2.92,245.145-60.607C490.29,318.488,286.098,315.569,245.145,315.569z M104.873,280.14l39.502-6.347v46.21c-13.101,1.191-26.444,2.69-39.502,4.592V280.14z M245.145,403.724 c-134.323,0-198.308-12.335-198.308-27.549c0-15.214,65.147-27.548,198.308-27.548c135.419,0,198.307,12.334,198.307,27.548 C443.452,391.389,373.588,403.724,245.145,403.724z"/><path id="XMLID_48_" d="M313.637,188.677c30.061-11.866,23.138-60.108,22.148-69.072c-1.054-8.784-12.527-52.148-2.168-66.096 c-30.458,10.711-23.26,57.106-21.771,72.031C313.766,144.786,324.792,171.19,313.637,188.677z"/></symbol><symbol id="shape" viewBox="0 0 983 983"><title>shape</title><path d="M937.8,702.95c-4.399-3.2-10.399,1.3-8.5,6.399c2.2,6,3.4,12.101,3.4,18.301c0,81.3-197.5,147.1-441.2,147.1 s-441.2-65.8-441.2-147c0-6.2,1.1-12.3,3.4-18.3c1.9-5.101-4-9.601-8.5-6.4c-29,20.9-45.2,44.2-45.2,68.7 c0,90.5,220,163.8,491.5,163.8S983,862.25,983,771.75C983,747.15,966.8,723.85,937.8,702.95z"/><path d="M811.6,674.15c4.301,6.1,6.601,12.399,6.601,18.8c0,51.8-146.3,93.8-326.7,93.8s-326.7-42-326.7-93.8 c0-6.4,2.3-12.7,6.6-18.8c3.3-4.7-1.8-10.7-7-8.2c-34.6,16.5-54.5,35.8-54.5,56.399c0,60.5,170.8,109.5,381.5,109.5 c210.699,0,381.5-49,381.5-109.5c0-20.6-19.9-39.899-54.5-56.399C813.4,663.45,808.3,669.45,811.6,674.15z"/><path d="M259.5,670.55c-3.2,1.8-4.7,5.601-3.6,9c11.6,34.5,112.6,61.4,235.6,61.4c122.9,0,223.8-26.9,235.6-61.2 c1.2-3.5-0.399-7.4-3.699-9.1c-28-14.7-191.2-69-225.9-354c21.9-3,38.9-21.7,38.9-44.5c0-24.8-20.101-44.9-44.9-44.9 s-44.9,20.1-44.9,44.9c0,22.9,17.101,41.7,39.2,44.5C451.6,602.85,286.2,655.85,259.5,670.55z"/><path d="M556.5,112.55c0-35.9-29.1-65.1-65.1-65.1c-35.9,0-65.101,29.1-65.101,65.1s29.101,65.1,65.101,65.1 C527.4,177.55,556.5,148.45,556.5,112.55z M471,115.55c-10.8,0-19.8-9-19.8-19.8s9-19.8,19.8-19.8s19.8,9,19.8,19.8 S481.8,115.55,471,115.55z"/></symbol><symbol id="construction" viewBox="0 0 303.477 303.477"><title>construction</title><path d="M298.604,64.209l-49.978,49.979L204.907,98.57L189.29,54.852l49.979-49.979c-32.791-10.97-70.418-3.42-96.529,22.692 c-25.629,25.629-33.373,62.349-23.281,94.704c-1.359,1.07-2.676,2.222-3.93,3.476L12.884,228.389 c-17.178,17.177-17.178,45.027,0,62.205c17.178,17.178,45.029,17.178,62.207,0l102.645-102.645c1.254-1.254,2.404-2.57,3.475-3.929 c32.355,10.092,69.074,2.347,94.703-23.282C302.024,134.626,309.575,97.001,298.604,64.209z"/></symbol><symbol id="summer" viewBox="0 0 621.121 621.121"><title>summer</title><path style="fill:#27241F;" d="M197.85,48.183c-0.166,0-0.166,0-0.332,0c-0.493-0.64-0.986-1.304-1.47-1.962 C196.693,46.87,197.191,47.533,197.85,48.183L197.85,48.183z"/><path style="fill:#27241F;" d="M209.692,183.435h129.501v32.909H209.692V183.435L209.692,183.435z M209.692,328.333v-11.956h34.027 c11.207-5.85,23.011-13.909,35.715-25.11c3.868-3.418,7.348-6.187,10.913-9.107h-80.655v-31.586h129.501v0.304 c10.031-4.233,18.924-6.552,27.476-8.367V96.394c0-0.502,0.161-0.991,0.161-1.484v-1.972c0.162-45.405,27.154-38.175,27.154-38.175 c15.956,1.631,19.578,23.864,20.394,36.535c0.834,8.068,6.409,8.708,6.409,8.708h12.345c4.769,0,5.783-3.612,5.783-6.418 c-0.171-0.981-0.171-1.967-0.342-3.133v-0.157c-1.138-9.376-3.129-23.679-5.765-31.425c-1.63-4.11-3.792-7.732-6.086-10.699 c-0.493-0.64-0.986-1.304-1.479-1.962c-0.645-0.659-1.156-1.323-1.811-1.816c-1.337-1.318-2.627-2.456-3.935-3.456 c-1.318-1.157-2.807-2.138-4.286-3.115c0-0.166-0.151-0.166-0.151-0.166c-2.807-1.649-5.612-2.972-8.732-4.11 c-4.437-1.65-8.391-2.309-11.349-2.811c-1.83-0.166-3.451-0.322-5.271-0.322c-0.151,0-0.312,0-0.312,0h-0.825 c-27.153,0-49.358,22.205-49.358,49.358v69.425h-129.52V96.394c0-0.502,0.166-0.991,0.166-1.484v-1.972 c0-45.405,27.158-38.175,27.158-38.175c15.795,1.631,19.569,23.864,20.384,36.535c0.834,8.068,6.428,8.708,6.428,8.708h12.344 c4.778,0,5.755-3.612,5.755-6.418c-0.161-0.981-0.161-1.967-0.322-3.133v-0.157c-1.157-9.376-3.138-23.679-5.764-31.425 c-1.641-4.11-3.773-7.732-6.087-10.699c-0.484-0.64-0.986-1.304-1.489-1.962c-0.645-0.659-1.138-1.323-1.792-1.816 c-1.318-1.318-2.645-2.456-3.963-3.456c-1.309-1.157-2.797-2.138-4.276-3.115c0-0.166-0.171-0.166-0.171-0.166 c-2.797-1.649-5.594-2.972-8.713-4.11c-4.447-1.65-8.391-2.309-11.358-2.811c-1.811-0.166-3.441-0.322-5.271-0.322 c-0.166,0-0.317,0-0.317,0h-0.815c-27.158,0-49.358,22.205-49.358,49.358V330.67C191.161,330.713,200.268,330.106,209.692,328.333 L209.692,328.333z"/><path style="fill:#27241F;" d="M579.585,515.598c0,15.738-12.752,28.519-28.51,28.519H70.036 c-15.738,0-28.504-12.761-28.504-28.519V113.882H0v443.906c0,18.185,14.733,32.918,32.899,32.918h555.322 c18.166,0,32.899-14.733,32.899-32.918V113.882h-41.536V515.598L579.585,515.598z"/><path style="fill:#27241F;" d="M543.681,315.458c-5.329-5.096-12.335-10.292-19.598-16 c-65.808-45.736-129.653-29.292-129.653-29.292c-25.172,5.11-49.358,8.234-97.74,50.847 c-48.202,42.769-84.239,40.646-120.286,38.673c-36.028-2.152-72.397-33.089-80.115-40.664c-4.438-4.418-10.865-4.584-16.236-3.005 c-7.969,3.281-9.879,14.051-10.259,21.181V489.81c0,13.33,14.814,24.366,32.899,24.366h415.634 c18.261,0,32.908-11.036,32.908-24.366V339.094C550.857,331.869,549.246,321.592,543.681,315.458L543.681,315.458z"/></symbol><symbol id="person" viewBox="0 0 31.39 31.39"><title>person</title><path d="M27.851,21.77c-0.327,0.375-0.803,0.591-1.304,0.591c-0.498,0-0.975-0.215-1.301-0.591 c-1.033-1.184-2.543-1.933-4.244-1.933c-1.686,0-3.184,0.733-4.216,1.897c-0.328,0.37-0.797,0.581-1.292,0.581 c-0.494,0-0.965-0.21-1.294-0.58c-1.034-1.164-2.528-1.898-4.215-1.898c-1.685,0-3.183,0.733-4.214,1.898 c-0.33,0.37-0.799,0.58-1.295,0.58l0,0c-0.492,0-0.965-0.21-1.292-0.579C2.369,20.816,1.259,20.182,0,19.948v3.414 c0.27,0.134,0.519,0.315,0.728,0.552c0.951,1.07,2.316,1.684,3.749,1.684c1.432,0,2.799-0.613,3.747-1.686 c0.456-0.512,1.083-0.794,1.762-0.794c0.681,0,1.307,0.282,1.76,0.795c0.95,1.071,2.316,1.686,3.749,1.686 c1.431,0,2.798-0.615,3.746-1.686c0.455-0.513,1.082-0.795,1.763-0.795c0.926,0,1.507,0.508,1.771,0.809 c0.95,1.09,2.325,1.716,3.778,1.716c1.448-0.002,2.824-0.627,3.772-1.716c0.188-0.215,0.545-0.529,1.065-0.694v-3.319 C29.982,20.092,28.738,20.755,27.851,21.77z"/><circle cx="24.374" cy="14.518" r="4.047"/><path d="M15.018,21.01c0.24,0.268,0.708,0.27,0.949-0.001c1.035-1.165,2.436-1.919,3.949-2.168 c0.104-0.617,0.072-1.267-0.15-1.898c-0.117-0.331-1.404-4.654-1.404-4.654c-0.002-0.009-0.156-0.9,0.391-1.701 c0.542-0.793,1.677-1.337,3.277-1.577c0.896-0.134,1.514-0.968,1.381-1.864c-0.131-0.896-0.959-1.515-1.866-1.381 c-2.562,0.382-4.415,1.381-5.501,2.968c-1.352,1.975-0.936,4.049-0.875,4.31l0.348,1.41c-0.212,0.037-0.426,0.08-0.634,0.154 l-6.62,2.337c-1.484,0.524-2.438,1.868-2.543,3.341c1.195-0.984,2.7-1.543,4.268-1.543C11.907,18.741,13.741,19.569,15.018,21.01z "/></symbol></svg>